<?xml version="1.0" encoding="UTF-8" standalone="no"?>
<!-- Created with Inkscape (http://www.inkscape.org/) -->

<svg
   xmlns:dc="http://purl.org/dc/elements/1.1/"
   xmlns:cc="http://creativecommons.org/ns#"
   xmlns:rdf="http://www.w3.org/1999/02/22-rdf-syntax-ns#"
   xmlns:svg="http://www.w3.org/2000/svg"
   xmlns="http://www.w3.org/2000/svg"
   xmlns:sodipodi="http://sodipodi.sourceforge.net/DTD/sodipodi-0.dtd"
   xmlns:inkscape="http://www.inkscape.org/namespaces/inkscape"
   width="20.32mm"
   height="128.55mm"
   viewBox="0 0 20.32 128.55"
   version="1.1"
   id="svg8"
   inkscape:version="0.92.4 (5da689c313, 2019-01-14)"
   sodipodi:docname="ChordCV.svg">
  <defs
     id="defs2" />
  <sodipodi:namedview
     id="base"
     pagecolor="#ffffff"
     bordercolor="#666666"
     borderopacity="1.0"
     inkscape:pageopacity="0.0"
     inkscape:pageshadow="2"
     inkscape:zoom="5.6"
     inkscape:cx="33.483829"
     inkscape:cy="62.238035"
     inkscape:document-units="mm"
     inkscape:current-layer="layer2"
     showgrid="false"
     inkscape:window-width="2560"
     inkscape:window-height="1377"
     inkscape:window-x="1912"
     inkscape:window-y="-8"
     inkscape:window-maximized="1" />
  <metadata
     id="metadata5">
    <rdf:RDF>
      <cc:Work
         rdf:about="">
        <dc:format>image/svg+xml</dc:format>
        <dc:type
           rdf:resource="http://purl.org/dc/dcmitype/StillImage" />
        <dc:title></dc:title>
      </cc:Work>
    </rdf:RDF>
  </metadata>
  <g
     inkscape:label="Text"
     inkscape:groupmode="layer"
     id="layer1"
     transform="translate(0,-168.45001)">
    <g
       aria-label="ChordCV"
       style="font-style:normal;font-variant:normal;font-weight:normal;font-stretch:normal;font-size:3.16297054px;line-height:1.25;font-family:'Myanmar Text';-inkscape-font-specification:'Myanmar Text, Normal';font-variant-ligatures:normal;font-variant-caps:normal;font-variant-numeric:normal;font-feature-settings:normal;text-align:start;letter-spacing:0px;word-spacing:0px;writing-mode:lr-tb;text-anchor:start;fill:#000000;fill-opacity:1;stroke:none;stroke-width:0.07907432"
       id="text3715">
      <path
         d="m 5.4216082,173.53739 q -0.2455627,0.12973 -0.61159,0.12973 -0.4725923,0 -0.7567654,-0.30425 -0.2841732,-0.30425 -0.2841732,-0.79847 0,-0.53128 0.3196948,-0.8587 0.3196948,-0.32741 0.8108201,-0.32741 0.3150615,0 0.5220137,0.0911 v 0.27645 q -0.2378406,-0.13282 -0.5251025,-0.13282 -0.3814716,0 -0.6193121,0.25483 -0.2362962,0.25483 -0.2362962,0.68109 0,0.40464 0.220852,0.64556 0.2223963,0.23939 0.582246,0.23939 0.3335946,0 0.5776128,-0.14826 z"
         style="font-style:normal;font-variant:normal;font-weight:normal;font-stretch:normal;font-size:3.16297054px;font-family:'Myanmar Text';-inkscape-font-specification:'Myanmar Text, Normal';font-variant-ligatures:normal;font-variant-caps:normal;font-variant-numeric:normal;font-feature-settings:normal;text-align:start;writing-mode:lr-tb;text-anchor:start;stroke-width:0.07907432"
         id="path4547" />
      <path
         d="M 7.1513577,173.63005 H 6.898073 v -0.91121 q 0,-0.49421 -0.3675718,-0.49421 -0.1853303,0 -0.3119727,0.14363 -0.1266423,0.14209 -0.1266423,0.36603 v 0.89576 H 5.8386014 v -2.34134 h 0.2532848 v 1.02241 h 0.00618 q 0.1822415,-0.29962 0.5189249,-0.29962 0.534369,0 0.534369,0.64402 z"
         style="font-style:normal;font-variant:normal;font-weight:normal;font-stretch:normal;font-size:3.16297054px;font-family:'Myanmar Text';-inkscape-font-specification:'Myanmar Text, Normal';font-variant-ligatures:normal;font-variant-caps:normal;font-variant-numeric:normal;font-feature-settings:normal;text-align:start;writing-mode:lr-tb;text-anchor:start;stroke-width:0.07907432"
         id="path4549" />
      <path
         d="m 8.291139,173.66712 q -0.3505831,0 -0.5606241,-0.22086 -0.2084966,-0.22239 -0.2084966,-0.58842 0,-0.39846 0.2177631,-0.6224 0.2177631,-0.22394 0.5884237,-0.22394 0.353672,0 0.5513577,0.21776 0.19923,0.21777 0.19923,0.60387 0,0.37838 -0.2146742,0.60696 -0.2131299,0.22703 -0.5729796,0.22703 z m 0.018533,-1.44249 q -0.2440183,0 -0.3861048,0.1668 -0.1420866,0.16525 -0.1420866,0.45714 0,0.28109 0.143631,0.44325 0.143631,0.16217 0.3845604,0.16217 0.2455626,0 0.3768383,-0.15908 0.13282,-0.15907 0.13282,-0.45251 0,-0.29653 -0.13282,-0.45715 -0.1312757,-0.16062 -0.3768383,-0.16062 z"
         style="font-style:normal;font-variant:normal;font-weight:normal;font-stretch:normal;font-size:3.16297054px;font-family:'Myanmar Text';-inkscape-font-specification:'Myanmar Text, Normal';font-variant-ligatures:normal;font-variant-caps:normal;font-variant-numeric:normal;font-feature-settings:normal;text-align:start;writing-mode:lr-tb;text-anchor:start;stroke-width:0.07907432"
         id="path4551" />
      <path
         d="m 10.308151,172.30494 q -0.06641,-0.051 -0.191508,-0.051 -0.1621641,0 -0.2718179,0.1529 -0.1081093,0.1529 -0.1081093,0.41699 v 0.80619 H 9.483431 v -1.58148 h 0.2532848 v 0.32587 h 0.00618 q 0.054055,-0.1668 0.1652528,-0.25946 0.1111987,-0.0942 0.2486517,-0.0942 0.09884,0 0.151353,0.0216 z"
         style="font-style:normal;font-variant:normal;font-weight:normal;font-stretch:normal;font-size:3.16297054px;font-family:'Myanmar Text';-inkscape-font-specification:'Myanmar Text, Normal';font-variant-ligatures:normal;font-variant-caps:normal;font-variant-numeric:normal;font-feature-settings:normal;text-align:start;writing-mode:lr-tb;text-anchor:start;stroke-width:0.07907432"
         id="path4553" />
      <path
         d="m 11.93288,173.63005 h -0.253285 v -0.26873 h -0.0062 q -0.176064,0.3058 -0.543635,0.3058 -0.298073,0 -0.477226,-0.21159 -0.177608,-0.21313 -0.177608,-0.57916 0,-0.39228 0.197685,-0.62857 0.197686,-0.2363 0.526647,-0.2363 0.325873,0 0.474137,0.25637 h 0.0062 v -0.97916 h 0.253285 z m -0.253285,-0.71507 v -0.2332 q 0,-0.19151 -0.126643,-0.32433 -0.126642,-0.13282 -0.321239,-0.13282 -0.231663,0 -0.364483,0.16989 -0.13282,0.16988 -0.13282,0.4695 0,0.27336 0.126643,0.43244 0.128186,0.15753 0.342861,0.15753 0.211585,0 0.342861,-0.1529 0.13282,-0.1529 0.13282,-0.38611 z"
         style="font-style:normal;font-variant:normal;font-weight:normal;font-stretch:normal;font-size:3.16297054px;font-family:'Myanmar Text';-inkscape-font-specification:'Myanmar Text, Normal';font-variant-ligatures:normal;font-variant-caps:normal;font-variant-numeric:normal;font-feature-settings:normal;text-align:start;writing-mode:lr-tb;text-anchor:start;stroke-width:0.07907432"
         id="path4555" />
      <path
         d="m 13.990046,173.53739 q -0.245563,0.12973 -0.61159,0.12973 -0.472593,0 -0.756766,-0.30425 -0.284173,-0.30425 -0.284173,-0.79847 0,-0.53128 0.319695,-0.8587 0.319695,-0.32741 0.81082,-0.32741 0.315062,0 0.522014,0.0911 v 0.27645 q -0.237841,-0.13282 -0.525103,-0.13282 -0.381471,0 -0.619312,0.25483 -0.236296,0.25483 -0.236296,0.68109 0,0.40464 0.220852,0.64556 0.222396,0.23939 0.582246,0.23939 0.333595,0 0.577613,-0.14826 z"
         style="font-style:normal;font-variant:normal;font-weight:normal;font-stretch:normal;font-size:3.16297054px;font-family:'Myanmar Text';-inkscape-font-specification:'Myanmar Text, Normal';font-variant-ligatures:normal;font-variant-caps:normal;font-variant-numeric:normal;font-feature-settings:normal;text-align:start;writing-mode:lr-tb;text-anchor:start;stroke-width:0.07907432"
         id="path4557" />
      <path
         d="m 16.087367,171.41535 -0.820087,2.2147 h -0.285717 l -0.803098,-2.2147 h 0.288806 l 0.613135,1.75601 q 0.02934,0.0849 0.04479,0.19614 h 0.0062 q 0.01236,-0.0927 0.05097,-0.19923 l 0.62549,-1.75292 z"
         style="font-style:normal;font-variant:normal;font-weight:normal;font-stretch:normal;font-size:3.16297054px;font-family:'Myanmar Text';-inkscape-font-specification:'Myanmar Text, Normal';font-variant-ligatures:normal;font-variant-caps:normal;font-variant-numeric:normal;font-feature-settings:normal;text-align:start;writing-mode:lr-tb;text-anchor:start;stroke-width:0.07907432"
         id="path4559" />
    </g>
    <g
       aria-label="Root"
       style="font-style:normal;font-weight:normal;font-size:2.12073565px;line-height:1.25;font-family:sans-serif;letter-spacing:0px;word-spacing:0px;display:inline;fill:#000000;fill-opacity:1;stroke:none;stroke-width:0.05301839"
       id="text3722">
      <path
         d="M 8.8572339,179.6846 H 8.5911065 L 8.0754198,179.07158 H 7.786511 v 0.61302 H 7.5814789 v -1.54188 h 0.43181 q 0.1397945,0 0.2329909,0.0186 0.093196,0.0176 0.1677535,0.0642 0.083877,0.0528 0.130475,0.13358 0.047634,0.0797 0.047634,0.20296 0,0.16672 -0.083877,0.27959 -0.083877,0.11184 -0.2309199,0.16879 z m -0.4794436,-1.108 q 0,-0.0663 -0.023817,-0.11701 -0.022781,-0.0518 -0.076628,-0.087 -0.044527,-0.03 -0.1056226,-0.0414 -0.061095,-0.0124 -0.1439366,-0.0124 H 7.786511 v 0.58196 h 0.2071031 q 0.097338,0 0.1698245,-0.0166 0.072486,-0.0176 0.1232263,-0.0642 0.046598,-0.0435 0.068344,-0.0994 0.022781,-0.057 0.022781,-0.14394 z"
         style="stroke-width:0.05301839"
         id="path4562" />
      <path
         d="m 9.9766262,179.10678 q 0,0.2827 -0.1449722,0.44631 -0.1449721,0.16361 -0.3883183,0.16361 -0.2454171,0 -0.3903893,-0.16361 -0.1439366,-0.16361 -0.1439366,-0.44631 0,-0.28269 0.1439366,-0.4463 0.1449722,-0.16465 0.3903893,-0.16465 0.2433462,0 0.3883183,0.16465 0.1449722,0.16361 0.1449722,0.4463 z m -0.20089,0 q 0,-0.2247 -0.088019,-0.33343 -0.088019,-0.10977 -0.2443817,-0.10977 -0.1584338,0 -0.2464526,0.10977 -0.086983,0.10873 -0.086983,0.33343 0,0.21746 0.088019,0.33033 0.088019,0.11184 0.2454171,0.11184 0.1553273,0 0.2433462,-0.1108 0.089054,-0.11184 0.089054,-0.33137 z"
         style="stroke-width:0.05301839"
         id="path4564" />
      <path
         d="m 11.264807,179.10678 q 0,0.2827 -0.144972,0.44631 -0.144972,0.16361 -0.388318,0.16361 -0.245417,0 -0.39039,-0.16361 -0.143936,-0.16361 -0.143936,-0.44631 0,-0.28269 0.143936,-0.4463 0.144973,-0.16465 0.39039,-0.16465 0.243346,0 0.388318,0.16465 0.144972,0.16361 0.144972,0.4463 z m -0.20089,0 q 0,-0.2247 -0.08802,-0.33343 -0.08802,-0.10977 -0.244381,-0.10977 -0.158434,0 -0.246453,0.10977 -0.08698,0.10873 -0.08698,0.33343 0,0.21746 0.08802,0.33033 0.08802,0.11184 0.245417,0.11184 0.155327,0 0.243346,-0.1108 0.08905,-0.11184 0.08905,-0.33137 z"
         style="stroke-width:0.05301839"
         id="path4566" />
      <path
         d="m 12.167777,179.67425 q -0.05488,0.0145 -0.12012,0.0238 -0.0642,0.009 -0.114942,0.009 -0.177073,0 -0.269234,-0.0953 -0.09216,-0.0953 -0.09216,-0.30547 v -0.6151 h -0.131511 v -0.16361 h 0.131511 v -0.3324 h 0.194677 v 0.3324 h 0.40178 v 0.16361 h -0.40178 v 0.52708 q 0,0.0911 0.0041,0.1429 0.0041,0.0507 0.02899,0.0953 0.02278,0.0414 0.06213,0.0611 0.04039,0.0186 0.122191,0.0186 0.04763,0 0.09941,-0.0135 0.05177,-0.0145 0.07456,-0.0238 h 0.01035 z"
         style="stroke-width:0.05301839"
         id="path4568" />
    </g>
    <g
       transform="translate(-0.03103385,168.35607)"
       aria-label="Out"
       style="font-style:normal;font-weight:normal;font-size:1.52720189px;line-height:1.25;font-family:sans-serif;letter-spacing:0px;word-spacing:0px;display:inline;fill:#000000;fill-opacity:1;stroke:none;stroke-width:0.03818005"
       id="text4575">
      <path
         inkscape:connector-curvature="0"
         d="m 9.7536248,119.75913 q 0.067859,0.0746 0.1036528,0.1827 0.036539,0.10812 0.036539,0.24533 0,0.13721 -0.037285,0.24608 -0.036539,0.10813 -0.1029071,0.18047 -0.068605,0.0753 -0.1625635,0.11334 -0.093213,0.038 -0.2132714,0.038 -0.1170755,0 -0.2132713,-0.0388 -0.09545,-0.0388 -0.1625635,-0.1126 -0.067113,-0.0738 -0.1036529,-0.18121 -0.035794,-0.10738 -0.035794,-0.24534 0,-0.13572 0.035794,-0.2431 0.035794,-0.10812 0.1043986,-0.18493 0.065622,-0.0731 0.1625635,-0.11186 0.097687,-0.0388 0.2125256,-0.0388 0.1193127,0 0.2140171,0.0395 0.09545,0.0388 0.1618178,0.11111 z m -0.013423,0.42803 q 0,-0.21625 -0.096941,-0.33333 -0.096942,-0.11782 -0.264725,-0.11782 -0.1692748,0 -0.2662163,0.11782 -0.096196,0.11708 -0.096196,0.33333 0,0.21849 0.098433,0.33482 0.098433,0.11559 0.2639792,0.11559 0.1655463,0 0.2632336,-0.11559 0.098433,-0.11633 0.098432,-0.33482 z"
         style="stroke-width:0.03818005"
         id="path4577" />
      <path
         inkscape:connector-curvature="0"
         d="m 10.807305,120.74197 h -0.140193 v -0.0925 q -0.07084,0.0559 -0.135718,0.0857 -0.06488,0.0298 -0.143175,0.0298 -0.131244,0 -0.204323,-0.0798 -0.07308,-0.0805 -0.07308,-0.23564 v -0.54064 h 0.140192 v 0.47427 q 0,0.0634 0.006,0.10888 0.006,0.0447 0.02535,0.0768 0.02013,0.0328 0.0522,0.0477 0.03206,0.0149 0.09321,0.0149 0.05444,0 0.118567,-0.0283 0.06488,-0.0283 0.120804,-0.0723 v -0.62192 h 0.140193 z"
         style="stroke-width:0.03818005"
         id="path4579" />
      <path
         inkscape:connector-curvature="0"
         d="m 11.515723,120.73451 q -0.03952,0.0104 -0.0865,0.0172 -0.04623,0.007 -0.08277,0.007 -0.127516,0 -0.193883,-0.0686 -0.06637,-0.0686 -0.06637,-0.21999 v -0.44294 h -0.0947 v -0.11783 h 0.0947 v -0.23937 h 0.140192 v 0.23937 h 0.289333 v 0.11783 H 11.22639 v 0.37956 q 0,0.0656 0.003,0.10291 0.003,0.0365 0.02088,0.0686 0.0164,0.0298 0.04474,0.044 0.02908,0.0134 0.08799,0.0134 0.0343,0 0.07159,-0.01 0.03729,-0.0104 0.05369,-0.0172 h 0.0075 z"
         style="stroke-width:0.03818005"
         id="path4581" />
    </g>
  </g>
  <g
     inkscape:groupmode="layer"
     id="layer2"
     inkscape:label="components"
     style="display:none">
    <circle
       id="path3718"
       cx="9.8889723"
       cy="18.835859"
       r="6.4144688"
       style="fill:#ff0000;fill-opacity:1;stroke-width:0.26458332" />
    <circle
       style="fill:#0000ff;fill-opacity:1;stroke-width:0.26458332"
       id="path4571"
       cx="10.252604"
       cy="123.30557"
       r="1.5591518" />
  </g>
</svg>
