<?xml version="1.0" encoding="utf-8"?>
<!-- Generator: Adobe Illustrator 25.4.1, SVG Export Plug-In . SVG Version: 6.00 Build 0)  -->
<svg version="1.1"
	 id="svg8" inkscape:version="0.92.4 (5da689c313, 2019-01-14)" sodipodi:docname="ChordCV.svg" xmlns:cc="http://creativecommons.org/ns#" xmlns:dc="http://purl.org/dc/elements/1.1/" xmlns:inkscape="http://www.inkscape.org/namespaces/inkscape" xmlns:rdf="http://www.w3.org/1999/02/22-rdf-syntax-ns#" xmlns:sodipodi="http://sodipodi.sourceforge.net/DTD/sodipodi-0.dtd" xmlns:svg="http://www.w3.org/2000/svg"
	 xmlns="http://www.w3.org/2000/svg" xmlns:xlink="http://www.w3.org/1999/xlink" x="0px" y="0px" width="40.639999mm" height="128.55mm"
	 viewBox="0 0 115.2 364.4" enable-background="new 0 0 115.2 364.4" xml:space="preserve">
<sodipodi:namedview  bordercolor="#666666" borderopacity="1.0" id="base" inkscape:current-layer="layer6" inkscape:cx="88.019841" inkscape:cy="218.56238" inkscape:document-units="mm" inkscape:pageopacity="0.0" inkscape:pageshadow="2" inkscape:window-height="976" inkscape:window-maximized="0" inkscape:window-width="1457" inkscape:window-x="3014" inkscape:window-y="198" inkscape:zoom="1.979899" pagecolor="#ffffff" showgrid="false">
	</sodipodi:namedview>
<g id="layer3" inkscape:groupmode="layer" inkscape:label="BG">
	<rect id="rect4608" fill="#F2F2F2" width="115.2" height="364.4"/>
</g>
<g id="layer6" inkscape:groupmode="layer" inkscape:label="Outputs">
	<path id="rect4" fill="#646464" d="M73.8,211.5h20.9c3.9,0,7,3.7,7,8.2v73.1c0,4.5-3.1,8.2-7,8.2H73.8c-3.9,0-7-3.7-7-8.2v-73.1
		C66.8,215.2,70,211.5,73.8,211.5z"/>
	<path id="rect34" fill="#646464" d="M20.5,211.5h20.9c3.9,0,7,3.7,7,8.2v73.1c0,4.5-3.1,8.2-7,8.2H20.5c-3.9,0-7-3.7-7-8.2v-73.1
		C13.5,215.2,16.6,211.5,20.5,211.5z"/>
	<path id="rect940" fill="#FC8701" d="M53.9,304.8h7.4c5.8,0,10.5,4.7,10.5,10.5v7.8c0,5.8-4.7,10.5-10.5,10.5h-7.4
		c-5.8,0-10.5-4.7-10.5-10.5v-7.8C43.4,309.5,48.1,304.8,53.9,304.8z"/>
	<g id="text893" transform="matrix(0.76444644,0,0,0.76444644,2.5704491,20.967893)">
		<path id="path961" inkscape:connector-curvature="0" fill="#C3C3C3" d="M39.3,269.4h-1.5v-9.8l-3,1.1v-1.3l4.2-1.6h0.2V269.4z"/>
	</g>
	<g id="text893-3" transform="matrix(0.76444644,0,0,0.76444644,2.5704491,25.567952)">
		<path id="path964" inkscape:connector-curvature="0" fill="#C3C3C3" d="M41,322.3h-7.6v-1.1l4-4.4c0.6-0.7,1-1.2,1.2-1.6
			c0.2-0.4,0.3-0.9,0.3-1.3c0-0.6-0.2-1.1-0.5-1.5c-0.4-0.4-0.9-0.6-1.5-0.6c-0.7,0-1.3,0.2-1.7,0.6c-0.4,0.4-0.6,1-0.6,1.7h-1.5
			c0-1.1,0.3-1.9,1-2.6c0.7-0.7,1.6-1,2.8-1c1.1,0,1.9,0.3,2.5,0.8c0.6,0.6,0.9,1.3,0.9,2.2c0,1.1-0.7,2.5-2.2,4.1l-3.1,3.4H41
			L41,322.3z"/>
	</g>
	<g id="text893-1" transform="matrix(0.76444644,0,0,0.76444644,7.0024482,20.967893)">
		<path id="path967" inkscape:connector-curvature="0" fill="#C3C3C3" d="M99.8,262.8h1.1c0.7,0,1.2-0.2,1.6-0.5
			c0.4-0.4,0.6-0.8,0.6-1.4c0-1.4-0.7-2-2-2c-0.6,0-1.1,0.2-1.5,0.5c-0.4,0.4-0.6,0.8-0.6,1.4h-1.5c0-0.9,0.3-1.7,1-2.3
			c0.7-0.6,1.5-0.9,2.6-0.9c1.1,0,1.9,0.3,2.6,0.9c0.6,0.6,0.9,1.4,0.9,2.4c0,0.5-0.2,1-0.5,1.5c-0.3,0.5-0.8,0.8-1.3,1.1
			c0.6,0.2,1.1,0.5,1.5,1c0.3,0.5,0.5,1,0.5,1.7c0,1-0.3,1.9-1,2.5c-0.7,0.6-1.6,0.9-2.6,0.9s-2-0.3-2.7-0.9c-0.7-0.6-1-1.4-1-2.3
			h1.5c0,0.6,0.2,1.1,0.6,1.5s0.9,0.5,1.6,0.5c0.7,0,1.3-0.2,1.6-0.6c0.4-0.4,0.6-0.9,0.6-1.6c0-0.7-0.2-1.2-0.6-1.5
			c-0.4-0.4-1-0.5-1.8-0.6h-1.1V262.8z"/>
	</g>
	<g id="text893-0" transform="matrix(0.76444644,0,0,0.76444644,7.0024482,25.567952)">
		<path id="path970" inkscape:connector-curvature="0" fill="#C3C3C3" d="M103.6,318.3h1.6v1.2h-1.6v2.7h-1.5v-2.7h-5.3v-0.9l5.2-8
			h1.6V318.3z M98.6,318.3h3.6v-5.7L102,313L98.6,318.3z"/>
	</g>
</g>
<g id="layer5" inkscape:groupmode="layer" inkscape:label="Inversion">
	<rect id="rect872-2-20" x="15.7" y="171.9" fill="#C3C3C3" width="30.5" height="1.3"/>
	<path id="rect860-2-3" fill="#C3C3C3" d="M18,188.2h25.9c1.7,0,3.1,1.4,3.1,3.1v7.5c0,1.7-1.4,3.1-3.1,3.1H18
		c-1.7,0-3.1-1.4-3.1-3.1v-7.5C14.9,189.6,16.3,188.2,18,188.2z"/>
	<rect id="rect872-2-2" x="30.3" y="172.8" fill="#C3C3C3" width="1.2" height="15.5"/>
	<rect id="rect872-2-2-4" x="83.4" y="173.4" fill="#C3C3C3" width="1.2" height="15.5"/>
	<g id="text1105" transform="translate(0,1.0583333)">
		<path id="path1131" inkscape:connector-curvature="0" fill="#575757" d="M20.3,196h-0.8v-4h0.8V196z"/>
		<path id="path1133" inkscape:connector-curvature="0" fill="#575757" d="M21.8,193l0,0.3c0.2-0.3,0.5-0.4,0.9-0.4
			c0.3,0,0.6,0.1,0.7,0.3c0.2,0.2,0.2,0.5,0.2,0.8v1.9h-0.8v-1.9c0-0.2,0-0.3-0.1-0.4c-0.1-0.1-0.2-0.1-0.4-0.1
			c-0.2,0-0.4,0.1-0.5,0.3v2.1H21v-3L21.8,193z"/>
		<path id="path1135" inkscape:connector-curvature="0" fill="#575757" d="M25.3,195l0.6-2h0.8l-1,3H25l-1-3h0.8L25.3,195z"/>
		<path id="path1137" inkscape:connector-curvature="0" fill="#575757" d="M28.4,196.1c-0.4,0-0.8-0.1-1.1-0.4
			c-0.3-0.3-0.4-0.6-0.4-1.1v-0.1c0-0.3,0.1-0.6,0.2-0.8c0.1-0.2,0.3-0.4,0.5-0.5c0.2-0.1,0.5-0.2,0.7-0.2c0.4,0,0.7,0.1,1,0.4
			c0.2,0.3,0.4,0.6,0.4,1.1v0.3h-1.9c0,0.2,0.1,0.4,0.2,0.5c0.1,0.1,0.3,0.2,0.5,0.2c0.3,0,0.5-0.1,0.7-0.3l0.4,0.4
			c-0.1,0.2-0.3,0.3-0.5,0.4C28.9,196,28.7,196.1,28.4,196.1L28.4,196.1z M28.3,193.6c-0.2,0-0.3,0.1-0.4,0.2
			c-0.1,0.1-0.2,0.3-0.2,0.5h1.1v-0.1c0-0.2-0.1-0.3-0.1-0.4C28.6,193.7,28.5,193.6,28.3,193.6z"/>
		<path id="path1139" inkscape:connector-curvature="0" fill="#575757" d="M31.8,193.8c-0.1,0-0.2,0-0.3,0c-0.3,0-0.5,0.1-0.6,0.3v2
			h-0.8v-3h0.8l0,0.4c0.2-0.3,0.4-0.4,0.7-0.4c0.1,0,0.2,0,0.2,0L31.8,193.8z"/>
		<path id="path1141" inkscape:connector-curvature="0" fill="#575757" d="M33.8,195.2c0-0.1,0-0.2-0.1-0.2
			c-0.1-0.1-0.3-0.1-0.5-0.2c-0.7-0.1-1.1-0.5-1.1-0.9c0-0.3,0.1-0.5,0.3-0.7c0.2-0.2,0.5-0.3,0.9-0.3c0.4,0,0.7,0.1,0.9,0.3
			c0.2,0.2,0.3,0.4,0.3,0.7h-0.8c0-0.1,0-0.2-0.1-0.3c-0.1-0.1-0.2-0.1-0.3-0.1c-0.1,0-0.2,0-0.3,0.1c-0.1,0.1-0.1,0.1-0.1,0.2
			c0,0.1,0,0.2,0.1,0.2c0.1,0.1,0.2,0.1,0.4,0.1c0.2,0,0.4,0.1,0.5,0.1c0.4,0.2,0.6,0.4,0.6,0.8c0,0.3-0.1,0.5-0.4,0.7
			c-0.2,0.2-0.5,0.3-0.9,0.3c-0.3,0-0.5,0-0.7-0.1c-0.2-0.1-0.3-0.2-0.5-0.4c-0.1-0.2-0.2-0.3-0.2-0.5h0.8c0,0.1,0.1,0.3,0.2,0.3
			c0.1,0.1,0.2,0.1,0.4,0.1c0.2,0,0.3,0,0.3-0.1C33.8,195.3,33.8,195.3,33.8,195.2L33.8,195.2z"/>
		<path id="path1143" inkscape:connector-curvature="0" fill="#575757" d="M35.9,196h-0.8v-3h0.8V196z M35.1,192.2
			c0-0.1,0-0.2,0.1-0.3c0.1-0.1,0.2-0.1,0.3-0.1c0.1,0,0.2,0,0.3,0.1c0.1,0.1,0.1,0.2,0.1,0.3c0,0.1,0,0.2-0.1,0.3
			c-0.1,0.1-0.2,0.1-0.3,0.1c-0.1,0-0.2,0-0.3-0.1C35.1,192.5,35.1,192.4,35.1,192.2z"/>
		<path id="path1145" inkscape:connector-curvature="0" fill="#575757" d="M36.5,194.5c0-0.3,0.1-0.6,0.2-0.8
			c0.1-0.2,0.3-0.4,0.5-0.5c0.2-0.1,0.5-0.2,0.7-0.2c0.4,0,0.7,0.1,1,0.4c0.3,0.2,0.4,0.6,0.4,1l0,0.2c0,0.5-0.1,0.8-0.4,1.1
			c-0.3,0.3-0.6,0.4-1,0.4s-0.8-0.1-1-0.4C36.6,195.4,36.5,195,36.5,194.5L36.5,194.5z M37.3,194.5c0,0.3,0.1,0.5,0.2,0.7
			c0.1,0.1,0.3,0.2,0.5,0.2c0.2,0,0.3-0.1,0.5-0.2c0.1-0.1,0.2-0.4,0.2-0.7c0-0.3-0.1-0.5-0.2-0.6c-0.1-0.2-0.3-0.2-0.5-0.2
			c-0.2,0-0.3,0.1-0.5,0.2C37.3,194,37.3,194.2,37.3,194.5L37.3,194.5z"/>
		<path id="path1147" inkscape:connector-curvature="0" fill="#575757" d="M40.5,193l0,0.3c0.2-0.3,0.5-0.4,0.9-0.4
			c0.3,0,0.6,0.1,0.7,0.3c0.2,0.2,0.2,0.5,0.2,0.8v1.9h-0.8v-1.9c0-0.2,0-0.3-0.1-0.4c-0.1-0.1-0.2-0.1-0.4-0.1
			c-0.2,0-0.4,0.1-0.5,0.3v2.1h-0.8v-3L40.5,193z"/>
	</g>
</g>
<g id="g1050" inkscape:groupmode="layer" inkscape:label="Voicing">
	<rect id="rect1040" x="69" y="172.1" fill="#C3C3C3" width="30.5" height="1.3"/>
	<path id="rect1042" fill="#C3C3C3" d="M71,188.7h25.9c1.7,0,3.1,1.4,3.1,3.1v7.5c0,1.7-1.4,3.1-3.1,3.1H71c-1.7,0-3.1-1.4-3.1-3.1
		v-7.5C67.9,190.1,69.3,188.7,71,188.7z"/>
	<g id="text1105-2" transform="translate(0,1.0583333)">
		<path id="path1150" inkscape:connector-curvature="0" fill="#575757" d="M76.4,195l0.9-3h0.9l-1.4,4H76l-1.4-4h0.9L76.4,195z"/>
		<path id="path1152" inkscape:connector-curvature="0" fill="#575757" d="M78.3,194.5c0-0.3,0.1-0.6,0.2-0.8
			c0.1-0.2,0.3-0.4,0.5-0.5c0.2-0.1,0.5-0.2,0.7-0.2c0.4,0,0.7,0.1,1,0.4c0.3,0.2,0.4,0.6,0.4,1l0,0.2c0,0.5-0.1,0.8-0.4,1.1
			c-0.3,0.3-0.6,0.4-1,0.4c-0.4,0-0.8-0.1-1-0.4C78.4,195.3,78.3,195,78.3,194.5L78.3,194.5z M79.1,194.5c0,0.3,0.1,0.5,0.2,0.7
			c0.1,0.1,0.3,0.2,0.5,0.2c0.2,0,0.3-0.1,0.5-0.2c0.1-0.1,0.2-0.4,0.2-0.7c0-0.3-0.1-0.5-0.2-0.6c-0.1-0.2-0.3-0.2-0.5-0.2
			c-0.2,0-0.3,0.1-0.5,0.2C79.2,194,79.1,194.2,79.1,194.5z"/>
		<path id="path1154" inkscape:connector-curvature="0" fill="#575757" d="M82.5,196h-0.8v-3h0.8V196z M81.6,192.2
			c0-0.1,0-0.2,0.1-0.3c0.1-0.1,0.2-0.1,0.3-0.1c0.1,0,0.2,0,0.3,0.1c0.1,0.1,0.1,0.2,0.1,0.3c0,0.1,0,0.2-0.1,0.3
			c-0.1,0.1-0.2,0.1-0.3,0.1s-0.2,0-0.3-0.1C81.7,192.4,81.6,192.3,81.6,192.2z"/>
		<path id="path1156" inkscape:connector-curvature="0" fill="#575757" d="M84.4,195.4c0.1,0,0.3,0,0.4-0.1c0.1-0.1,0.1-0.2,0.1-0.3
			h0.7c0,0.2-0.1,0.4-0.2,0.6c-0.1,0.2-0.3,0.3-0.4,0.4c-0.2,0.1-0.4,0.1-0.6,0.1c-0.4,0-0.8-0.1-1-0.4c-0.2-0.3-0.4-0.6-0.4-1.1
			v-0.1c0-0.5,0.1-0.8,0.4-1.1c0.2-0.3,0.6-0.4,1-0.4c0.4,0,0.7,0.1,0.9,0.3c0.2,0.2,0.3,0.5,0.3,0.8h-0.7c0-0.2-0.1-0.3-0.1-0.4
			c-0.1-0.1-0.2-0.1-0.4-0.1c-0.2,0-0.3,0.1-0.4,0.2c-0.1,0.1-0.1,0.4-0.1,0.7v0.1c0,0.3,0,0.5,0.1,0.7
			C84,195.3,84.2,195.4,84.4,195.4L84.4,195.4z"/>
		<path id="path1158" inkscape:connector-curvature="0" fill="#575757" d="M86.9,196h-0.8v-3h0.8V196z M86.1,192.2
			c0-0.1,0-0.2,0.1-0.3c0.1-0.1,0.2-0.1,0.3-0.1c0.1,0,0.2,0,0.3,0.1c0.1,0.1,0.1,0.2,0.1,0.3c0,0.1,0,0.2-0.1,0.3
			c-0.1,0.1-0.2,0.1-0.3,0.1c-0.1,0-0.2,0-0.3-0.1C86.1,192.4,86.1,192.3,86.1,192.2z"/>
		<path id="path1160" inkscape:connector-curvature="0" fill="#575757" d="M88.3,193l0,0.3c0.2-0.3,0.5-0.4,0.9-0.4
			c0.3,0,0.6,0.1,0.7,0.3c0.2,0.2,0.2,0.5,0.2,0.8v1.9h-0.8v-1.9c0-0.2,0-0.3-0.1-0.4c-0.1-0.1-0.2-0.1-0.4-0.1
			c-0.2,0-0.4,0.1-0.5,0.3v2.1h-0.8v-3L88.3,193z"/>
		<path id="path1162" inkscape:connector-curvature="0" fill="#575757" d="M90.6,194.5c0-0.5,0.1-0.8,0.3-1.1
			c0.2-0.3,0.5-0.4,0.9-0.4c0.3,0,0.6,0.1,0.8,0.3l0-0.3h0.7v2.9c0,0.3-0.1,0.5-0.2,0.7c-0.1,0.2-0.3,0.3-0.5,0.4
			c-0.2,0.1-0.5,0.2-0.8,0.2c-0.2,0-0.4,0-0.6-0.1c-0.2-0.1-0.4-0.2-0.5-0.3l0.4-0.5c0.2,0.2,0.4,0.3,0.7,0.3c0.2,0,0.4-0.1,0.5-0.2
			c0.1-0.1,0.2-0.3,0.2-0.5v-0.2c-0.2,0.2-0.4,0.3-0.7,0.3c-0.4,0-0.7-0.1-0.9-0.4C90.8,195.3,90.6,195,90.6,194.5L90.6,194.5z
			 M91.4,194.5c0,0.3,0.1,0.5,0.2,0.6c0.1,0.2,0.3,0.2,0.4,0.2c0.2,0,0.4-0.1,0.5-0.3v-1.3c-0.1-0.2-0.3-0.3-0.5-0.3
			c-0.2,0-0.3,0.1-0.5,0.2C91.5,194,91.4,194.2,91.4,194.5L91.4,194.5z"/>
	</g>
</g>
<g id="layer4" inkscape:groupmode="layer" inkscape:label="Root">
	<path id="rect860" fill="#C3C3C3" d="M82.6,84.5h25.9c1.7,0,3.1,1.4,3.1,3.1V95c0,1.7-1.4,3.1-3.1,3.1H82.6c-1.7,0-3.1-1.4-3.1-3.1
		v-7.5C79.5,85.8,80.9,84.5,82.6,84.5z"/>
	<rect id="rect872" x="12.3" y="89.7" fill="#C3C3C3" width="68" height="3.2"/>
	<path id="rect860-2" fill="#C3C3C3" d="M82.6,127.4h25.9c1.7,0,3.1,1.4,3.1,3.1v7.5c0,1.7-1.4,3.1-3.1,3.1H82.6
		c-1.7,0-3.1-1.4-3.1-3.1v-7.5C79.5,128.8,80.9,127.4,82.6,127.4z"/>
	<rect id="rect872-2" x="12.3" y="132.6" fill="#C3C3C3" width="68" height="3.2"/>
</g>
<g id="g857" inkscape:groupmode="layer" inkscape:label="Type">
</g>
<g id="layer1" transform="translate(0,-168.45001)" inkscape:groupmode="layer" inkscape:label="Text">
	<g id="text4624" transform="matrix(1.2451884,0,0,1.2451884,-4.9822279,-72.597247)">
		<path id="path838" inkscape:connector-curvature="0" fill="#4E4E4E" d="M23.9,469.7v5.3l-1.4,0v-1.2l-0.7,0.7
			c-0.4,0.4-0.9,0.5-1.5,0.5c-0.6,0-1.1-0.2-1.5-0.6c0,0-0.2-0.2-0.4-0.4c-0.4-0.4-0.6-0.9-0.6-1.5c0-0.7,0.2-1.2,0.5-1.5l1-1h1.9
			l-1.8,1.9c-0.2,0.2-0.3,0.4-0.3,0.6c0,0.3,0.1,0.5,0.3,0.6c0.2,0.2,0.3,0.3,0.4,0.4c0.2,0.1,0.4,0.2,0.6,0.2
			c0.3,0,0.5-0.1,0.6-0.3l1.5-1.6v-2.2h-4.1c0-0.8,0.5-1.3,1.4-1.4h2.8C23.4,468.4,23.9,468.8,23.9,469.7L23.9,469.7z"/>
		<path id="path840" inkscape:connector-curvature="0" fill="#4E4E4E" d="M30.3,469.7v5.3l-1.4,0v-1.2l-0.7,0.7
			c-0.4,0.4-0.9,0.5-1.5,0.5c-0.6,0-1.1-0.2-1.5-0.6c0,0-0.2-0.2-0.4-0.4c-0.4-0.4-0.6-0.9-0.6-1.5c0-0.7,0.2-1.2,0.5-1.5l1-1h1.9
			l-1.8,1.9c-0.2,0.2-0.3,0.4-0.3,0.6c0,0.3,0.1,0.5,0.3,0.6c0.2,0.2,0.3,0.3,0.4,0.4c0.2,0.1,0.4,0.2,0.6,0.2
			c0.3,0,0.5-0.1,0.6-0.3l1.5-1.6v-2.2h-4.1c0-0.8,0.5-1.3,1.4-1.4H29C29.8,468.4,30.3,468.8,30.3,469.7L30.3,469.7z"/>
		<path id="path842" inkscape:connector-curvature="0" fill="#4E4E4E" d="M36.3,472.4l-1.1,1.1l1.7,1.6H35l-1.7-1.5v-1.9l0.9,0.9
			l1-1c0.2-0.2,0.3-0.4,0.3-0.6c0-0.2-0.1-0.5-0.3-0.6c0,0-0.1-0.1-0.4-0.4c-0.2-0.1-0.4-0.2-0.6-0.2c-0.2,0-0.5,0.1-0.6,0.3
			l-1.5,1.6v3.5h-1.4v-6.6h1.4v1.2l0.7-0.7c0.4-0.4,0.8-0.5,1.4-0.5c0.6,0,1.1,0.2,1.6,0.6c0,0,0.2,0.1,0.4,0.4
			c0.4,0.4,0.6,0.9,0.6,1.5C36.9,471.4,36.7,471.9,36.3,472.4L36.3,472.4z"/>
		<path id="path844" inkscape:connector-curvature="0" fill="#4E4E4E" d="M40.8,473.5c-0.2,0.2-0.4,0.3-0.6,0.3
			c-0.2,0-0.4-0.1-0.6-0.3c0,0-0.4-0.3-1.1-1v-1.9c0-0.2,0.1-0.4,0.3-0.6c0.2-0.2,0.4-0.3,0.6-0.3c0,0,0.5,0,1.5,0
			c0.3,0,0.6,0.2,0.7,0.4c0,0,0,0,0,0c0.1,0.2,0.1,0.4,0.1,0.5v1.9C41.4,472.9,41.1,473.2,40.8,473.5L40.8,473.5z M43.1,470.5
			L43.1,470.5c0-0.2,0-0.3-0.1-0.4c0-0.1-0.1-0.3-0.2-0.5c-0.1-0.2-0.2-0.3-0.2-0.3c-0.5-0.6-1-0.9-1.7-0.9h-1.5
			c-0.5,0-1,0.2-1.4,0.5c-0.5,0.4-0.8,1-0.8,1.5l0,0v2.7l1.5,1.4c0.4,0.4,0.9,0.6,1.5,0.6c0.6,0,1.1-0.2,1.5-0.5v0l1.5-1.4V470.5z"
			/>
		<path id="path846" inkscape:connector-curvature="0" fill="#4E4E4E" d="M44.8,475h-1.4v-6.6h1.4V475z M48.2,475v-4.4
			c0-0.1-0.1-0.3-0.2-0.4c-0.2-0.2-0.4-0.3-0.5-0.5c-0.2-0.1-0.3-0.2-0.5-0.2s-0.4,0.1-0.6,0.2l-1.3,1v-1.6c0.4-0.6,1-0.9,1.7-1
			c0.7,0,1.3,0.2,1.8,0.7c0.3,0.3,0.5,0.5,0.6,0.6c0.2,0.3,0.3,0.7,0.3,1v4.4L48.2,475z"/>
		<path id="path848" inkscape:connector-curvature="0" fill="#4E4E4E" d="M53,472.7v-1.9l2.7,2.7c0.2,0.2,0.4,0.3,0.6,0.3
			c0.2,0,0.4-0.1,0.6-0.2l0.4-0.4c0.2-0.2,0.2-0.3,0.2-0.5c0-0.3-0.2-0.7-0.5-1l-1.8-1.8h1.9l1.3,1.3c0.4,0.5,0.6,1,0.6,1.6
			c0,0.6-0.2,1.1-0.6,1.5c-0.3,0.3-0.4,0.4-0.4,0.4c-0.4,0.4-0.9,0.6-1.5,0.6c-0.6,0-1-0.2-1.5-0.5l0,0L53,472.7z M55.2,468.4
			c-0.1,0.1-0.2,0.2-0.3,0.3c-0.1,0.2-0.2,0.3-0.2,0.6c0,0.2,0.1,0.5,0.3,0.6l1.2,1.2h-1.9l-0.4-0.4c-0.4-0.4-0.5-0.8-0.5-1.4
			c0-0.3,0.1-0.6,0.2-0.9L55.2,468.4z"/>
		<path id="path850" inkscape:connector-curvature="0" fill="#4E4E4E" d="M60.6,469.7v-1.3h2.8v1.3H60.6z M60.4,467v5.8
			c0,0.1,0.1,0.3,0.2,0.4c0.2,0.2,0.3,0.3,0.5,0.5c0.2,0.1,0.3,0.2,0.5,0.2s0.4-0.1,0.6-0.2l1.3-1v1.6c-0.4,0.6-1,0.9-1.7,1
			c-0.7,0-1.3-0.2-1.8-0.7c-0.3-0.4-0.5-0.6-0.6-0.6c-0.2-0.3-0.3-0.6-0.3-1V467L60.4,467z"/>
		<path id="path852" inkscape:connector-curvature="0" fill="#4E4E4E" d="M69.8,469.7v5.3l-1.4,0v-1.2l-0.7,0.7
			c-0.4,0.4-0.9,0.5-1.5,0.5c-0.6,0-1.1-0.2-1.5-0.6c0,0-0.2-0.2-0.4-0.4c-0.4-0.4-0.6-0.9-0.6-1.5c0-0.7,0.2-1.2,0.5-1.5l1-1h1.9
			l-1.8,1.9c-0.2,0.2-0.3,0.4-0.3,0.6c0,0.3,0.1,0.5,0.3,0.6c0.2,0.2,0.3,0.3,0.4,0.4c0.2,0.1,0.4,0.2,0.6,0.2
			c0.3,0,0.5-0.1,0.6-0.3l1.5-1.6v-2.2h-4.1c0-0.8,0.5-1.3,1.4-1.4h2.8C69.3,468.4,69.8,468.8,69.8,469.7L69.8,469.7z"/>
		<path id="path854" inkscape:connector-curvature="0" fill="#4E4E4E" d="M71.7,469.7v-1.3h2.8v1.3H71.7z M71.5,467v5.8
			c0,0.1,0.1,0.3,0.2,0.4c0.2,0.2,0.3,0.3,0.5,0.5c0.2,0.1,0.3,0.2,0.5,0.2c0.2,0,0.4-0.1,0.6-0.2l1.3-1v1.6c-0.4,0.6-1,0.9-1.7,1
			c-0.7,0-1.3-0.2-1.8-0.7c-0.3-0.4-0.5-0.6-0.6-0.6c-0.2-0.3-0.3-0.6-0.3-1V467L71.5,467z"/>
		<path id="path856" inkscape:connector-curvature="0" fill="#4E4E4E" d="M76.4,468.4v6.6H75v-6.6H76.4z"/>
		<path id="path858" inkscape:connector-curvature="0" fill="#4E4E4E" d="M82.7,471.5v1.7l-1.5,1.4c-0.4,0.4-0.9,0.5-1.5,0.5
			c-0.6,0-1.1-0.2-1.6-0.6c0,0-0.1-0.1-0.2-0.2h0l-1.2-1.2v-2.6c0-0.6,0.3-1,0.7-1.4c0.4-0.4,0.9-0.6,1.5-0.6c0,0,0.5,0,1.5,0
			c0.6,0,1.1,0.2,1.5,0.6c0.4,0.4,0.7,0.8,0.7,1.2h-1.4c-0.2-0.3-0.4-0.5-0.8-0.5c-1,0-1.5,0-1.5,0c-0.2,0-0.4,0.1-0.6,0.3
			c-0.2,0.2-0.3,0.4-0.3,0.6v1.9l1,0.9c0.1,0.1,0.1,0.1,0.1,0.2c0.2,0.2,0.4,0.2,0.6,0.2c0.2,0,0.4-0.1,0.6-0.3
			C80.9,473.1,81.7,472.4,82.7,471.5L82.7,471.5z"/>
	</g>
</g>
<g id="layer2" transform="translate(0,-3.0517578e-6)" inkscape:groupmode="layer" inkscape:label="components" display="none">
	<circle id="path3718" inkscape:label="ROOT_PARAM" display="inline" fill="#FF0000" cx="57.6" cy="72.7" r="18.2">
	</circle>
	<circle id="path4571" inkscape:label="CVOUT1_OUTPUT" display="inline" fill="#0000FF" cx="57.6" cy="339" r="4.4">
	</circle>
</g>
<g>
	<rect x="0" y="14.3" fill="none" width="115.2" height="13.7"/>
	<path fill="#2A2A2A" d="M27.7,16.9c-0.9,0-1.7,0.4-2.2,1.2c-0.5,0.8-0.8,1.9-0.8,3.2c0,1.2,0.2,2.3,0.7,3.1
		c0.5,0.8,1.2,1.2,2.2,1.2c0.5,0,1-0.1,1.5-0.2c0.5-0.1,0.9-0.3,1.2-0.4l1,2.1c-0.5,0.3-1.1,0.5-1.8,0.6C29,27.9,28.3,28,27.7,28
		c-2,0-3.5-0.6-4.5-1.9c-1-1.3-1.4-2.9-1.4-4.8c0-2,0.5-3.6,1.6-4.9c1-1.3,2.5-1.9,4.4-1.9c0.5,0,1,0.1,1.7,0.2s1.3,0.4,1.8,0.7
		l-0.9,2c-0.6-0.2-1.1-0.3-1.4-0.4C28.7,16.9,28.3,16.9,27.7,16.9z"/>
	<path fill="#2A2A2A" d="M38.5,18.2c1.3,0,2.2,0.4,2.7,1.1C41.7,20,42,20.9,42,22v5.7h-2.8v-5.6c0-0.5-0.1-0.9-0.4-1.2
		c-0.3-0.3-0.6-0.4-1.1-0.4c-0.3,0-0.7,0.1-1,0.2c-0.4,0.2-0.7,0.3-1,0.6v6.4h-2.8V14.5l2.8-0.2V19c0.4-0.3,0.8-0.5,1.4-0.6
		C37.6,18.2,38,18.2,38.5,18.2z"/>
	<path fill="#2A2A2A" d="M48.2,18.2c1.5,0,2.7,0.4,3.6,1.3c0.9,0.9,1.3,2.1,1.3,3.6c0,1.5-0.5,2.7-1.4,3.5c-0.9,0.8-2.2,1.3-3.7,1.3
		c-1.5,0-2.6-0.4-3.5-1.3s-1.3-2-1.3-3.6c0-1.5,0.5-2.7,1.4-3.6C45.5,18.7,46.7,18.2,48.2,18.2z M48.1,25.6c0.6,0,1.2-0.2,1.6-0.6
		c0.4-0.4,0.6-1,0.6-1.8c0-0.8-0.2-1.4-0.5-1.9c-0.4-0.5-0.9-0.7-1.5-0.7s-1.2,0.2-1.5,0.6s-0.6,1-0.6,1.9c0,0.8,0.2,1.4,0.5,1.9
		C47,25.4,47.5,25.6,48.1,25.6z"/>
	<path fill="#2A2A2A" d="M59.7,18.5l0.6,2.2c-0.4,0-0.9,0.1-1.4,0.3s-1,0.5-1.5,0.9v5.7h-2.8v-9.2H56l0.8,1.2
		c0.4-0.3,0.8-0.6,1.4-0.9C58.7,18.6,59.2,18.5,59.7,18.5z"/>
	<path fill="#2A2A2A" d="M70,14.3v13.4h-1.4l-0.7-0.9c-0.4,0.3-0.8,0.6-1.4,0.8s-1.1,0.3-1.7,0.3c-1.4,0-2.5-0.5-3.2-1.4
		c-0.7-0.9-1.1-2.1-1.1-3.5c0-1.4,0.4-2.6,1.1-3.5c0.8-0.9,1.8-1.4,3.3-1.4c0.3,0,0.7,0.1,1.1,0.2c0.4,0.1,0.8,0.2,1.1,0.4v-4.2
		L70,14.3z M65.6,25.6c0.2,0,0.5-0.1,0.8-0.2c0.3-0.1,0.6-0.2,0.8-0.4v-3.9c-0.2-0.2-0.5-0.3-0.8-0.5c-0.3-0.1-0.6-0.2-0.9-0.2
		c-0.7,0-1.3,0.3-1.6,0.8c-0.3,0.6-0.4,1.1-0.4,1.7c0,0.7,0.2,1.3,0.5,1.8S64.8,25.6,65.6,25.6z"/>
	<path fill="#2A2A2A" d="M77.7,16.9c-0.9,0-1.7,0.4-2.2,1.2c-0.5,0.8-0.8,1.9-0.8,3.2c0,1.2,0.2,2.3,0.7,3.1s1.2,1.2,2.2,1.2
		c0.5,0,1-0.1,1.5-0.2c0.5-0.1,0.9-0.3,1.2-0.4l1,2.1c-0.5,0.3-1.1,0.5-1.8,0.6S78.3,28,77.7,28c-2,0-3.5-0.6-4.5-1.9
		c-1-1.3-1.4-2.9-1.4-4.8c0-2,0.5-3.6,1.6-4.9c1-1.3,2.5-1.9,4.4-1.9c0.5,0,1,0.1,1.7,0.2c0.7,0.1,1.3,0.4,1.8,0.7l-0.9,2
		c-0.6-0.2-1.1-0.3-1.4-0.4C78.7,16.9,78.2,16.9,77.7,16.9z"/>
	<path fill="#2A2A2A" d="M86.7,27.7l-5-12.6l2.8-0.3l3.5,9.3l3.4-9.3h2.8l-5,12.9H86.7z"/>
</g>
<g>
	<path d="M41.2,35.4c-0.2,0.1-0.6,0.2-1.1,0.2c-1.1,0-2-0.7-2-2c0-1.3,0.9-2.1,2.1-2.1c0.5,0,0.8,0.1,1,0.2L41,32
		c-0.2-0.1-0.5-0.2-0.8-0.2c-0.9,0-1.6,0.6-1.6,1.7c0,1,0.6,1.6,1.6,1.6c0.3,0,0.6-0.1,0.9-0.2L41.2,35.4z"/>
	<path d="M41.8,31.3h0.5v1.8h0c0.1-0.1,0.2-0.3,0.4-0.4c0.2-0.1,0.3-0.1,0.5-0.1c0.4,0,1,0.2,1,1.2v1.7h-0.5v-1.7
		c0-0.5-0.2-0.9-0.7-0.9c-0.3,0-0.6,0.2-0.7,0.5c0,0.1,0,0.1,0,0.3v1.8h-0.5V31.3z"/>
	<path d="M47.8,34.1c0,1.1-0.7,1.5-1.4,1.5c-0.8,0-1.4-0.6-1.4-1.5c0-1,0.6-1.5,1.4-1.5C47.2,32.6,47.8,33.2,47.8,34.1z M45.5,34.1
		c0,0.6,0.4,1.1,0.9,1.1c0.5,0,0.9-0.5,0.9-1.1c0-0.5-0.2-1.1-0.9-1.1C45.7,33,45.5,33.5,45.5,34.1z"/>
	<path d="M48.4,33.5c0-0.3,0-0.6,0-0.9h0.5l0,0.6h0c0.1-0.4,0.4-0.6,0.8-0.6c0.1,0,0.1,0,0.2,0v0.5c-0.1,0-0.1,0-0.2,0
		c-0.4,0-0.6,0.3-0.7,0.7c0,0.1,0,0.2,0,0.2v1.5h-0.5V33.5z"/>
	<path d="M52.8,31.3v3.5c0,0.3,0,0.6,0,0.7h-0.5l0-0.5h0c-0.2,0.3-0.5,0.6-1,0.6c-0.7,0-1.2-0.6-1.2-1.5c0-1,0.6-1.6,1.3-1.6
		c0.4,0,0.7,0.2,0.9,0.4h0v-1.7H52.8z M52.3,33.8c0-0.1,0-0.2,0-0.2c-0.1-0.3-0.4-0.6-0.8-0.6c-0.5,0-0.9,0.5-0.9,1.1
		c0,0.6,0.3,1.1,0.9,1.1c0.4,0,0.7-0.2,0.8-0.6c0-0.1,0-0.1,0-0.2V33.8z"/>
	<path d="M58.1,35.4c-0.2,0.1-0.7,0.2-1.2,0.2c-0.6,0-1.1-0.2-1.5-0.5c-0.3-0.3-0.6-0.9-0.6-1.5c0-1.2,0.8-2.1,2.2-2.1
		c0.5,0,0.8,0.1,1,0.2l-0.1,0.4c-0.2-0.1-0.5-0.2-0.9-0.2c-1,0-1.6,0.6-1.6,1.6c0,1,0.6,1.6,1.6,1.6c0.3,0,0.6,0,0.7-0.1v-1.2h-0.8
		v-0.4h1.3V35.4z"/>
	<path d="M59.2,34.2c0,0.7,0.5,1,1,1c0.4,0,0.6-0.1,0.8-0.1l0.1,0.4c-0.2,0.1-0.5,0.2-1,0.2c-0.9,0-1.4-0.6-1.4-1.5s0.5-1.6,1.4-1.6
		c0.9,0,1.2,0.8,1.2,1.4c0,0.1,0,0.2,0,0.2H59.2z M60.7,33.8c0-0.3-0.1-0.9-0.7-0.9c-0.5,0-0.8,0.5-0.8,0.9H60.7z"/>
	<path d="M61.9,33.4c0-0.3,0-0.5,0-0.8h0.5l0,0.5h0c0.1-0.3,0.5-0.5,1-0.5c0.4,0,1,0.2,1,1.2v1.7h-0.5v-1.7c0-0.5-0.2-0.9-0.7-0.9
		c-0.3,0-0.6,0.2-0.7,0.5c0,0.1,0,0.2,0,0.2v1.7h-0.5V33.4z"/>
	<path d="M65.5,34.2c0,0.7,0.5,1,1,1c0.4,0,0.6-0.1,0.8-0.1l0.1,0.4c-0.2,0.1-0.5,0.2-1,0.2c-0.9,0-1.4-0.6-1.4-1.5s0.5-1.6,1.4-1.6
		c0.9,0,1.2,0.8,1.2,1.4c0,0.1,0,0.2,0,0.2H65.5z M67.1,33.8c0-0.3-0.1-0.9-0.7-0.9c-0.5,0-0.8,0.5-0.8,0.9H67.1z"/>
	<path d="M68.2,33.5c0-0.3,0-0.6,0-0.9h0.5l0,0.6h0c0.1-0.4,0.4-0.6,0.8-0.6c0.1,0,0.1,0,0.2,0v0.5c-0.1,0-0.1,0-0.2,0
		c-0.4,0-0.6,0.3-0.7,0.7c0,0.1,0,0.2,0,0.2v1.5h-0.5V33.5z"/>
	<path d="M71.8,35.5l0-0.4h0c-0.2,0.2-0.5,0.4-0.9,0.4c-0.6,0-0.9-0.4-0.9-0.8c0-0.7,0.6-1.1,1.7-1.1v-0.1c0-0.2-0.1-0.7-0.7-0.7
		c-0.3,0-0.6,0.1-0.8,0.2l-0.1-0.3c0.2-0.2,0.6-0.3,1-0.3c0.9,0,1.1,0.6,1.1,1.2v1.1c0,0.3,0,0.5,0,0.7H71.8z M71.7,34.1
		c-0.6,0-1.2,0.1-1.2,0.7c0,0.3,0.2,0.5,0.5,0.5c0.4,0,0.6-0.2,0.7-0.5c0-0.1,0-0.1,0-0.2V34.1z"/>
	<path d="M73.7,31.8v0.8h0.8V33h-0.8v1.6c0,0.4,0.1,0.6,0.4,0.6c0.1,0,0.2,0,0.3,0l0,0.4c-0.1,0-0.3,0.1-0.5,0.1
		c-0.2,0-0.4-0.1-0.6-0.2c-0.2-0.2-0.2-0.4-0.2-0.8V33h-0.4v-0.4h0.4v-0.7L73.7,31.8z"/>
	<path d="M77.6,34.1c0,1.1-0.7,1.5-1.4,1.5c-0.8,0-1.4-0.6-1.4-1.5c0-1,0.6-1.5,1.4-1.5C77,32.6,77.6,33.2,77.6,34.1z M75.3,34.1
		c0,0.6,0.4,1.1,0.9,1.1c0.5,0,0.9-0.5,0.9-1.1c0-0.5-0.2-1.1-0.9-1.1C75.6,33,75.3,33.5,75.3,34.1z"/>
	<path d="M78.3,33.5c0-0.3,0-0.6,0-0.9h0.5l0,0.6h0c0.1-0.4,0.4-0.6,0.8-0.6c0.1,0,0.1,0,0.2,0v0.5c-0.1,0-0.1,0-0.2,0
		c-0.4,0-0.6,0.3-0.7,0.7c0,0.1,0,0.2,0,0.2v1.5h-0.5V33.5z"/>
</g>
<g>
	<rect x="80.9" y="87.8" fill="none" width="29.3" height="8.5"/>
	<path fill="#575757" d="M90.1,94.1c-0.2-0.4-0.4-0.7-0.6-1.1c-0.2-0.4-0.4-0.7-0.6-1.1c-0.1,0-0.1,0-0.2,0c-0.1,0-0.1,0-0.2,0h-0.7
		v2.2h-1.3V88h2.1c0.7,0,1.2,0.2,1.7,0.5c0.5,0.3,0.7,0.8,0.7,1.5c0,0.4-0.1,0.7-0.3,1s-0.4,0.5-0.7,0.6c0.2,0.4,0.5,0.9,0.7,1.3
		s0.5,0.9,0.7,1.3H90.1z M88.6,89.1h-0.8v1.8h0.8c0.3,0,0.6-0.1,0.8-0.2c0.2-0.1,0.3-0.4,0.3-0.7c0-0.3-0.1-0.5-0.3-0.7
		C89.2,89.1,88.9,89.1,88.6,89.1z"/>
	<path fill="#575757" d="M94.1,89.6c0.7,0,1.3,0.2,1.7,0.6c0.4,0.4,0.6,1,0.6,1.7c0,0.7-0.2,1.3-0.7,1.7c-0.5,0.4-1,0.6-1.7,0.6
		c-0.7,0-1.2-0.2-1.7-0.6c-0.4-0.4-0.6-1-0.6-1.7c0-0.7,0.2-1.3,0.6-1.7C92.8,89.8,93.4,89.6,94.1,89.6z M94,93.1
		c0.3,0,0.6-0.1,0.7-0.3c0.2-0.2,0.3-0.5,0.3-0.9c0-0.4-0.1-0.7-0.3-0.9s-0.4-0.3-0.7-0.3c-0.3,0-0.5,0.1-0.7,0.3
		c-0.2,0.2-0.3,0.5-0.3,0.9c0,0.4,0.1,0.7,0.2,0.9C93.5,93,93.7,93.1,94,93.1z"/>
	<path fill="#575757" d="M99.2,89.6c0.7,0,1.3,0.2,1.7,0.6c0.4,0.4,0.6,1,0.6,1.7c0,0.7-0.2,1.3-0.7,1.7c-0.5,0.4-1,0.6-1.7,0.6
		c-0.7,0-1.2-0.2-1.7-0.6c-0.4-0.4-0.6-1-0.6-1.7c0-0.7,0.2-1.3,0.6-1.7C98,89.8,98.5,89.6,99.2,89.6z M99.2,93.1
		c0.3,0,0.6-0.1,0.7-0.3c0.2-0.2,0.3-0.5,0.3-0.9c0-0.4-0.1-0.7-0.3-0.9s-0.4-0.3-0.7-0.3c-0.3,0-0.5,0.1-0.7,0.3
		c-0.2,0.2-0.3,0.5-0.3,0.9c0,0.4,0.1,0.7,0.2,0.9C98.6,93,98.9,93.1,99.2,93.1z"/>
	<path fill="#575757" d="M104.2,94.3c-0.5,0-1-0.1-1.3-0.4c-0.4-0.3-0.5-0.7-0.5-1.2v-1.8h-0.6v-1h0.6v-1.1l1.3-0.2v1.3h0.9l0.3,1
		h-1.2v1.6c0,0.2,0.1,0.4,0.2,0.5c0.1,0.1,0.3,0.2,0.5,0.2c0.1,0,0.2,0,0.3,0c0.1,0,0.2-0.1,0.3-0.1l0.4,0.9
		c-0.1,0.1-0.3,0.2-0.5,0.2S104.4,94.3,104.2,94.3z"/>
</g>
<g>
	<rect x="80.9" y="130.3" fill="none" width="29.3" height="8.5"/>
	<path fill="#575757" d="M85.8,130.6h5l0.2,1H89v5.1h-1.3v-5.1h-1.8V130.6z"/>
	<path fill="#575757" d="M92.3,136.8l0.2-0.4l-1.6-4l1.3-0.2c0.2,0.4,0.3,0.9,0.5,1.3c0.2,0.4,0.3,0.9,0.5,1.3l0.9-2.6h1.4l-1.9,4.9
		c-0.1,0.4-0.4,0.7-0.7,0.9c-0.4,0.3-0.7,0.4-1.1,0.5l-0.5-1.1c0.2-0.1,0.4-0.2,0.7-0.3C92.1,137.2,92.3,137,92.3,136.8z"/>
	<path fill="#575757" d="M95.9,132.3h0.7l0.3,0.3c0.2-0.2,0.4-0.3,0.7-0.4c0.3-0.1,0.5-0.1,0.7-0.1c0.7,0,1.2,0.2,1.5,0.7
		c0.3,0.4,0.5,1,0.5,1.6c0,0.7-0.2,1.2-0.5,1.7c-0.3,0.4-0.9,0.7-1.5,0.7c-0.2,0-0.3,0-0.5-0.1c-0.2,0-0.4-0.1-0.5-0.2v2l-1.3,0.1
		V132.3z M98.9,134.5c0-0.3-0.1-0.6-0.2-0.8c-0.1-0.2-0.4-0.4-0.8-0.4c-0.1,0-0.2,0-0.4,0.1s-0.2,0.1-0.3,0.2v1.9
		c0.1,0.1,0.2,0.1,0.4,0.2c0.1,0,0.3,0.1,0.4,0.1c0.4,0,0.6-0.1,0.7-0.4C98.9,135,98.9,134.7,98.9,134.5z"/>
	<path fill="#575757" d="M103,132.2c0.7,0,1.2,0.2,1.5,0.7c0.3,0.4,0.5,1,0.5,1.6v0.4h-2.8c0.1,0.2,0.2,0.4,0.4,0.6
		c0.2,0.1,0.4,0.2,0.7,0.2c0.2,0,0.4,0,0.6-0.1c0.2,0,0.4-0.1,0.6-0.2l0.4,0.9c-0.2,0.2-0.5,0.3-0.8,0.4c-0.3,0.1-0.6,0.1-0.8,0.1
		c-0.7,0-1.3-0.2-1.8-0.6c-0.4-0.4-0.7-1-0.7-1.7c0-0.7,0.2-1.3,0.6-1.7C101.8,132.4,102.3,132.2,103,132.2z M103,133.3
		c-0.2,0-0.4,0.1-0.5,0.2c-0.1,0.1-0.2,0.3-0.3,0.6h1.6c0-0.2-0.1-0.4-0.3-0.5C103.4,133.4,103.2,133.3,103,133.3z"/>
</g>
</svg>
