<?xml version="1.0" encoding="utf-8"?>
<!-- Generator: Adobe Illustrator 25.4.1, SVG Export Plug-In . SVG Version: 6.00 Build 0)  -->
<svg version="1.1"
	 id="svg8" inkscape:version="0.92.4 (5da689c313, 2019-01-14)" sodipodi:docname="ChordCV.svg" xmlns:cc="http://creativecommons.org/ns#" xmlns:dc="http://purl.org/dc/elements/1.1/" xmlns:inkscape="http://www.inkscape.org/namespaces/inkscape" xmlns:rdf="http://www.w3.org/1999/02/22-rdf-syntax-ns#" xmlns:sodipodi="http://sodipodi.sourceforge.net/DTD/sodipodi-0.dtd" xmlns:svg="http://www.w3.org/2000/svg"
	 xmlns="http://www.w3.org/2000/svg" xmlns:xlink="http://www.w3.org/1999/xlink" x="0px" y="0px" width="40.639999mm" height="128.55mm"
	 viewBox="0 0 115.2 364.4" enable-background="new 0 0 115.2 364.4" xml:space="preserve">
<sodipodi:namedview  bordercolor="#666666" borderopacity="1.0" id="base" inkscape:current-layer="layer6" inkscape:cx="88.019841" inkscape:cy="218.56238" inkscape:document-units="mm" inkscape:pageopacity="0.0" inkscape:pageshadow="2" inkscape:window-height="976" inkscape:window-maximized="0" inkscape:window-width="1457" inkscape:window-x="3014" inkscape:window-y="198" inkscape:zoom="1.979899" pagecolor="#ffffff" showgrid="false">
	</sodipodi:namedview>
<g id="layer3" inkscape:groupmode="layer" inkscape:label="BG">
	<rect id="rect4608" x="0.1" y="0.9" fill="#F2F2F2" width="115.2" height="364.4"/>
</g>
<g id="layer6" inkscape:groupmode="layer" inkscape:label="Outputs">
	<path id="rect940" fill="#FC8701" d="M53.9,304.5h7.4c5.8,0,10.5,4.7,10.5,10.5v7.8c0,5.8-4.7,10.5-10.5,10.5h-7.4
		c-5.8,0-10.5-4.7-10.5-10.5V315C43.4,309.2,48.1,304.5,53.9,304.5z"/>
</g>
<g id="layer5" inkscape:groupmode="layer" inkscape:label="Inversion">
	<rect id="rect872-2-20" x="15.8" y="256.9" fill="#C3C3C3" width="30.5" height="1.3"/>
	<path id="rect860-2-3" fill="#C3C3C3" d="M18.1,273.2H44c1.7,0,3.1,1.4,3.1,3.1v7.5c0,1.7-1.4,3.1-3.1,3.1H18.1
		c-1.7,0-3.1-1.4-3.1-3.1v-7.5C15,274.6,16.4,273.2,18.1,273.2z"/>
	<rect id="rect872-2-2" x="30.5" y="257.9" fill="#C3C3C3" width="1.2" height="15.5"/>
	<rect id="rect872-2-2-4" x="83.5" y="258.4" fill="#C3C3C3" width="1.2" height="15.5"/>
	<g id="text1105" transform="translate(0,1.0583333)">
		<path id="path1131" inkscape:connector-curvature="0" fill="#575757" d="M20.5,281h-0.8v-4h0.8V281z"/>
		<path id="path1133" inkscape:connector-curvature="0" fill="#575757" d="M21.9,278l0,0.3c0.2-0.3,0.5-0.4,0.9-0.4
			c0.3,0,0.6,0.1,0.7,0.3c0.2,0.2,0.2,0.5,0.2,0.8v1.9H23v-1.9c0-0.2,0-0.3-0.1-0.4c-0.1-0.1-0.2-0.1-0.4-0.1
			c-0.2,0-0.4,0.1-0.5,0.3v2.1h-0.8v-3L21.9,278z"/>
		<path id="path1135" inkscape:connector-curvature="0" fill="#575757" d="M25.5,280.1l0.6-2h0.8l-1,3h-0.8l-1-3h0.8L25.5,280.1z"/>
		<path id="path1137" inkscape:connector-curvature="0" fill="#575757" d="M28.6,281.1c-0.4,0-0.8-0.1-1.1-0.4
			c-0.3-0.3-0.4-0.6-0.4-1.1v-0.1c0-0.3,0.1-0.6,0.2-0.8c0.1-0.2,0.3-0.4,0.5-0.5c0.2-0.1,0.5-0.2,0.7-0.2c0.4,0,0.7,0.1,1,0.4
			c0.2,0.3,0.4,0.6,0.4,1.1v0.3h-1.9c0,0.2,0.1,0.4,0.2,0.5c0.1,0.1,0.3,0.2,0.5,0.2c0.3,0,0.5-0.1,0.7-0.3l0.4,0.4
			c-0.1,0.2-0.3,0.3-0.5,0.4C29.1,281,28.8,281.1,28.6,281.1L28.6,281.1z M28.5,278.6c-0.2,0-0.3,0.1-0.4,0.2
			c-0.1,0.1-0.2,0.3-0.2,0.5H29v-0.1c0-0.2-0.1-0.3-0.1-0.4C28.8,278.7,28.7,278.6,28.5,278.6z"/>
		<path id="path1139" inkscape:connector-curvature="0" fill="#575757" d="M31.9,278.8c-0.1,0-0.2,0-0.3,0c-0.3,0-0.5,0.1-0.6,0.3v2
			h-0.8v-3H31l0,0.4c0.2-0.3,0.4-0.4,0.7-0.4c0.1,0,0.2,0,0.2,0L31.9,278.8z"/>
		<path id="path1141" inkscape:connector-curvature="0" fill="#575757" d="M33.9,280.2c0-0.1,0-0.2-0.1-0.2
			c-0.1-0.1-0.3-0.1-0.5-0.2c-0.7-0.1-1.1-0.5-1.1-0.9c0-0.3,0.1-0.5,0.3-0.7c0.2-0.2,0.5-0.3,0.9-0.3c0.4,0,0.7,0.1,0.9,0.3
			c0.2,0.2,0.3,0.4,0.3,0.7h-0.8c0-0.1,0-0.2-0.1-0.3c-0.1-0.1-0.2-0.1-0.3-0.1c-0.1,0-0.2,0-0.3,0.1c-0.1,0.1-0.1,0.1-0.1,0.2
			c0,0.1,0,0.2,0.1,0.2c0.1,0.1,0.2,0.1,0.4,0.1c0.2,0,0.4,0.1,0.5,0.1c0.4,0.2,0.6,0.4,0.6,0.8c0,0.3-0.1,0.5-0.4,0.7
			c-0.2,0.2-0.5,0.3-0.9,0.3c-0.3,0-0.5,0-0.7-0.1c-0.2-0.1-0.3-0.2-0.5-0.4c-0.1-0.2-0.2-0.3-0.2-0.5h0.8c0,0.1,0.1,0.3,0.2,0.3
			c0.1,0.1,0.2,0.1,0.4,0.1c0.2,0,0.3,0,0.3-0.1C33.9,280.4,33.9,280.3,33.9,280.2L33.9,280.2z"/>
		<path id="path1143" inkscape:connector-curvature="0" fill="#575757" d="M36.1,281h-0.8v-3h0.8V281z M35.2,277.3
			c0-0.1,0-0.2,0.1-0.3c0.1-0.1,0.2-0.1,0.3-0.1c0.1,0,0.2,0,0.3,0.1c0.1,0.1,0.1,0.2,0.1,0.3c0,0.1,0,0.2-0.1,0.3
			c-0.1,0.1-0.2,0.1-0.3,0.1c-0.1,0-0.2,0-0.3-0.1C35.3,277.5,35.2,277.4,35.2,277.3z"/>
		<path id="path1145" inkscape:connector-curvature="0" fill="#575757" d="M36.6,279.5c0-0.3,0.1-0.6,0.2-0.8
			c0.1-0.2,0.3-0.4,0.5-0.5c0.2-0.1,0.5-0.2,0.7-0.2c0.4,0,0.7,0.1,1,0.4c0.3,0.2,0.4,0.6,0.4,1l0,0.2c0,0.5-0.1,0.8-0.4,1.1
			c-0.3,0.3-0.6,0.4-1,0.4s-0.8-0.1-1-0.4C36.7,280.4,36.6,280,36.6,279.5L36.6,279.5z M37.4,279.6c0,0.3,0.1,0.5,0.2,0.7
			c0.1,0.1,0.3,0.2,0.5,0.2c0.2,0,0.3-0.1,0.5-0.2c0.1-0.1,0.2-0.4,0.2-0.7c0-0.3-0.1-0.5-0.2-0.6s-0.3-0.2-0.5-0.2
			c-0.2,0-0.3,0.1-0.5,0.2C37.5,279,37.4,279.3,37.4,279.6L37.4,279.6z"/>
		<path id="path1147" inkscape:connector-curvature="0" fill="#575757" d="M40.7,278l0,0.3c0.2-0.3,0.5-0.4,0.9-0.4
			c0.3,0,0.6,0.1,0.7,0.3c0.2,0.2,0.2,0.5,0.2,0.8v1.9h-0.8v-1.9c0-0.2,0-0.3-0.1-0.4c-0.1-0.1-0.2-0.1-0.4-0.1
			c-0.2,0-0.4,0.1-0.5,0.3v2.1h-0.8v-3L40.7,278z"/>
	</g>
</g>
<g id="g1050" inkscape:groupmode="layer" inkscape:label="Voicing">
	<rect id="rect1040" x="69.1" y="257.2" fill="#C3C3C3" width="30.5" height="1.3"/>
	<path id="rect1042" fill="#C3C3C3" d="M71.2,273.7h25.9c1.7,0,3.1,1.4,3.1,3.1v7.5c0,1.7-1.4,3.1-3.1,3.1H71.2
		c-1.7,0-3.1-1.4-3.1-3.1v-7.5C68.1,275.1,69.5,273.7,71.2,273.7z"/>
	<g id="text1105-2" transform="translate(0,1.0583333)">
		<path id="path1150" inkscape:connector-curvature="0" fill="#575757" d="M76.5,280l0.9-3h0.9l-1.4,4h-0.9l-1.4-4h0.9L76.5,280z"/>
		<path id="path1152" inkscape:connector-curvature="0" fill="#575757" d="M78.4,279.5c0-0.3,0.1-0.6,0.2-0.8
			c0.1-0.2,0.3-0.4,0.5-0.5c0.2-0.1,0.5-0.2,0.7-0.2c0.4,0,0.7,0.1,1,0.4c0.3,0.2,0.4,0.6,0.4,1l0,0.2c0,0.5-0.1,0.8-0.4,1.1
			c-0.3,0.3-0.6,0.4-1,0.4c-0.4,0-0.8-0.1-1-0.4C78.6,280.4,78.4,280,78.4,279.5L78.4,279.5z M79.2,279.5c0,0.3,0.1,0.5,0.2,0.7
			c0.1,0.1,0.3,0.2,0.5,0.2c0.2,0,0.3-0.1,0.5-0.2c0.1-0.1,0.2-0.4,0.2-0.7c0-0.3-0.1-0.5-0.2-0.6c-0.1-0.2-0.3-0.2-0.5-0.2
			c-0.2,0-0.3,0.1-0.5,0.2C79.3,279,79.2,279.2,79.2,279.5z"/>
		<path id="path1154" inkscape:connector-curvature="0" fill="#575757" d="M82.6,281h-0.8v-3h0.8V281z M81.8,277.2
			c0-0.1,0-0.2,0.1-0.3c0.1-0.1,0.2-0.1,0.3-0.1c0.1,0,0.2,0,0.3,0.1c0.1,0.1,0.1,0.2,0.1,0.3c0,0.1,0,0.2-0.1,0.3
			c-0.1,0.1-0.2,0.1-0.3,0.1c-0.1,0-0.2,0-0.3-0.1C81.8,277.5,81.8,277.4,81.8,277.2z"/>
		<path id="path1156" inkscape:connector-curvature="0" fill="#575757" d="M84.5,280.4c0.1,0,0.3,0,0.4-0.1c0.1-0.1,0.1-0.2,0.1-0.3
			h0.7c0,0.2-0.1,0.4-0.2,0.6c-0.1,0.2-0.3,0.3-0.4,0.4c-0.2,0.1-0.4,0.1-0.6,0.1c-0.4,0-0.8-0.1-1-0.4c-0.2-0.3-0.4-0.6-0.4-1.1
			v-0.1c0-0.5,0.1-0.8,0.4-1.1c0.2-0.3,0.6-0.4,1-0.4c0.4,0,0.7,0.1,0.9,0.3c0.2,0.2,0.3,0.5,0.3,0.8H85c0-0.2-0.1-0.3-0.1-0.4
			c-0.1-0.1-0.2-0.1-0.4-0.1c-0.2,0-0.3,0.1-0.4,0.2c-0.1,0.1-0.1,0.4-0.1,0.7v0.1c0,0.3,0,0.5,0.1,0.7
			C84.2,280.4,84.3,280.4,84.5,280.4L84.5,280.4z"/>
		<path id="path1158" inkscape:connector-curvature="0" fill="#575757" d="M87.1,281h-0.8v-3h0.8V281z M86.2,277.2
			c0-0.1,0-0.2,0.1-0.3c0.1-0.1,0.2-0.1,0.3-0.1c0.1,0,0.2,0,0.3,0.1c0.1,0.1,0.1,0.2,0.1,0.3c0,0.1,0,0.2-0.1,0.3
			c-0.1,0.1-0.2,0.1-0.3,0.1c-0.1,0-0.2,0-0.3-0.1C86.3,277.5,86.2,277.4,86.2,277.2z"/>
		<path id="path1160" inkscape:connector-curvature="0" fill="#575757" d="M88.5,278l0,0.3c0.2-0.3,0.5-0.4,0.9-0.4
			c0.3,0,0.6,0.1,0.7,0.3c0.2,0.2,0.2,0.5,0.2,0.8v1.9h-0.8v-1.9c0-0.2,0-0.3-0.1-0.4c-0.1-0.1-0.2-0.1-0.4-0.1
			c-0.2,0-0.4,0.1-0.5,0.3v2.1h-0.8v-3L88.5,278z"/>
		<path id="path1162" inkscape:connector-curvature="0" fill="#575757" d="M90.8,279.5c0-0.5,0.1-0.8,0.3-1.1
			c0.2-0.3,0.5-0.4,0.9-0.4c0.3,0,0.6,0.1,0.8,0.3l0-0.3h0.7v2.9c0,0.3-0.1,0.5-0.2,0.7c-0.1,0.2-0.3,0.3-0.5,0.4
			c-0.2,0.1-0.5,0.2-0.8,0.2c-0.2,0-0.4,0-0.6-0.1c-0.2-0.1-0.4-0.2-0.5-0.3l0.4-0.5c0.2,0.2,0.4,0.3,0.7,0.3c0.2,0,0.4-0.1,0.5-0.2
			c0.1-0.1,0.2-0.3,0.2-0.5v-0.2c-0.2,0.2-0.4,0.3-0.7,0.3c-0.4,0-0.7-0.1-0.9-0.4C90.9,280.4,90.8,280,90.8,279.5L90.8,279.5z
			 M91.6,279.6c0,0.3,0.1,0.5,0.2,0.6c0.1,0.2,0.3,0.2,0.4,0.2c0.2,0,0.4-0.1,0.5-0.3v-1.3c-0.1-0.2-0.3-0.3-0.5-0.3
			c-0.2,0-0.3,0.1-0.5,0.2C91.7,279,91.6,279.2,91.6,279.6L91.6,279.6z"/>
	</g>
</g>
<g id="layer4" inkscape:groupmode="layer" inkscape:label="Root">
	<path id="rect860" fill="#C3C3C3" d="M82.6,121.5h25.9c1.7,0,3.1,1.4,3.1,3.1v7.5c0,1.7-1.4,3.1-3.1,3.1H82.6
		c-1.7,0-3.1-1.4-3.1-3.1v-7.5C79.5,122.8,80.9,121.5,82.6,121.5z"/>
	<rect id="rect872" x="12.3" y="126.7" fill="#C3C3C3" width="68" height="3.2"/>
	<path id="rect860-2" fill="#C3C3C3" d="M82.6,164.4h25.9c1.7,0,3.1,1.4,3.1,3.1v7.5c0,1.7-1.4,3.1-3.1,3.1H82.6
		c-1.7,0-3.1-1.4-3.1-3.1v-7.5C79.5,165.8,80.9,164.4,82.6,164.4z"/>
	<rect id="rect872-2" x="12.3" y="169.6" fill="#C3C3C3" width="68" height="3.2"/>
	<path id="rect860-2_00000037664855221236180030000012493014588813269421_" fill="#C3C3C3" d="M82.6,208.2h25.9
		c1.7,0,3.1,1.4,3.1,3.1v7.5c0,1.7-1.4,3.1-3.1,3.1H82.6c-1.7,0-3.1-1.4-3.1-3.1v-7.5C79.5,209.6,80.9,208.2,82.6,208.2z"/>

		<rect id="rect872-2_00000031186450511762614070000015951560182218346937_" x="12.3" y="213.4" fill="#C3C3C3" width="68" height="3.2"/>
</g>
<g id="g857" inkscape:groupmode="layer" inkscape:label="Type">
</g>
<g id="layer1" transform="translate(0,-168.45001)" inkscape:groupmode="layer" inkscape:label="Text">
	<g id="text4624" transform="matrix(1.2451884,0,0,1.2451884,-4.9822279,-72.597247)">
		<path id="path838" inkscape:connector-curvature="0" fill="#4E4E4E" d="M23.9,469.7v5.3l-1.4,0v-1.2l-0.7,0.7
			c-0.4,0.4-0.9,0.5-1.5,0.5c-0.6,0-1.1-0.2-1.5-0.6c0,0-0.2-0.2-0.4-0.4c-0.4-0.4-0.6-0.9-0.6-1.5c0-0.7,0.2-1.2,0.5-1.5l1-1h1.9
			l-1.8,1.9c-0.2,0.2-0.3,0.4-0.3,0.6c0,0.3,0.1,0.5,0.3,0.6c0.2,0.2,0.3,0.3,0.4,0.4c0.2,0.1,0.4,0.2,0.6,0.2
			c0.3,0,0.5-0.1,0.6-0.3l1.5-1.6v-2.2h-4.1c0-0.8,0.5-1.3,1.4-1.4h2.8C23.4,468.4,23.9,468.8,23.9,469.7L23.9,469.7z"/>
		<path id="path840" inkscape:connector-curvature="0" fill="#4E4E4E" d="M30.3,469.7v5.3l-1.4,0v-1.2l-0.7,0.7
			c-0.4,0.4-0.9,0.5-1.5,0.5c-0.6,0-1.1-0.2-1.5-0.6c0,0-0.2-0.2-0.4-0.4c-0.4-0.4-0.6-0.9-0.6-1.5c0-0.7,0.2-1.2,0.5-1.5l1-1h1.9
			l-1.8,1.9c-0.2,0.2-0.3,0.4-0.3,0.6c0,0.3,0.1,0.5,0.3,0.6c0.2,0.2,0.3,0.3,0.4,0.4c0.2,0.1,0.4,0.2,0.6,0.2
			c0.3,0,0.5-0.1,0.6-0.3l1.5-1.6v-2.2h-4.1c0-0.8,0.5-1.3,1.4-1.4H29C29.8,468.4,30.3,468.8,30.3,469.7L30.3,469.7z"/>
		<path id="path842" inkscape:connector-curvature="0" fill="#4E4E4E" d="M36.3,472.4l-1.1,1.1l1.7,1.6H35l-1.7-1.5v-1.9l0.9,0.9
			l1-1c0.2-0.2,0.3-0.4,0.3-0.6c0-0.2-0.1-0.5-0.3-0.6c0,0-0.1-0.1-0.4-0.4c-0.2-0.1-0.4-0.2-0.6-0.2c-0.2,0-0.5,0.1-0.6,0.3
			l-1.5,1.6v3.5h-1.4v-6.6h1.4v1.2l0.7-0.7c0.4-0.4,0.8-0.5,1.4-0.5c0.6,0,1.1,0.2,1.6,0.6c0,0,0.2,0.1,0.4,0.4
			c0.4,0.4,0.6,0.9,0.6,1.5C36.9,471.4,36.7,471.9,36.3,472.4L36.3,472.4z"/>
		<path id="path844" inkscape:connector-curvature="0" fill="#4E4E4E" d="M40.8,473.5c-0.2,0.2-0.4,0.3-0.6,0.3
			c-0.2,0-0.4-0.1-0.6-0.3c0,0-0.4-0.3-1.1-1v-1.9c0-0.2,0.1-0.4,0.3-0.6c0.2-0.2,0.4-0.3,0.6-0.3c0,0,0.5,0,1.5,0
			c0.3,0,0.6,0.2,0.7,0.4c0,0,0,0,0,0c0.1,0.2,0.1,0.4,0.1,0.5v1.9C41.4,472.9,41.1,473.2,40.8,473.5L40.8,473.5z M43.1,470.5
			L43.1,470.5c0-0.2,0-0.3-0.1-0.4c0-0.1-0.1-0.3-0.2-0.5c-0.1-0.2-0.2-0.3-0.2-0.3c-0.5-0.6-1-0.9-1.7-0.9h-1.5
			c-0.5,0-1,0.2-1.4,0.5c-0.5,0.4-0.8,1-0.8,1.5l0,0v2.7l1.5,1.4c0.4,0.4,0.9,0.6,1.5,0.6c0.6,0,1.1-0.2,1.5-0.5v0l1.5-1.4V470.5z"
			/>
		<path id="path846" inkscape:connector-curvature="0" fill="#4E4E4E" d="M44.8,475h-1.4v-6.6h1.4V475z M48.2,475v-4.4
			c0-0.1-0.1-0.3-0.2-0.4c-0.2-0.2-0.4-0.3-0.5-0.5c-0.2-0.1-0.3-0.2-0.5-0.2s-0.4,0.1-0.6,0.2l-1.3,1v-1.6c0.4-0.6,1-0.9,1.7-1
			c0.7,0,1.3,0.2,1.8,0.7c0.3,0.3,0.5,0.5,0.6,0.6c0.2,0.3,0.3,0.7,0.3,1v4.4L48.2,475z"/>
		<path id="path848" inkscape:connector-curvature="0" fill="#4E4E4E" d="M53,472.7v-1.9l2.7,2.7c0.2,0.2,0.4,0.3,0.6,0.3
			c0.2,0,0.4-0.1,0.6-0.2l0.4-0.4c0.2-0.2,0.2-0.3,0.2-0.5c0-0.3-0.2-0.7-0.5-1l-1.8-1.8h1.9l1.3,1.3c0.4,0.5,0.6,1,0.6,1.6
			c0,0.6-0.2,1.1-0.6,1.5c-0.3,0.3-0.4,0.4-0.4,0.4c-0.4,0.4-0.9,0.6-1.5,0.6c-0.6,0-1-0.2-1.5-0.5l0,0L53,472.7z M55.2,468.4
			c-0.1,0.1-0.2,0.2-0.3,0.3c-0.1,0.2-0.2,0.3-0.2,0.6c0,0.2,0.1,0.5,0.3,0.6l1.2,1.2h-1.9l-0.4-0.4c-0.4-0.4-0.5-0.8-0.5-1.4
			c0-0.3,0.1-0.6,0.2-0.9L55.2,468.4z"/>
		<path id="path850" inkscape:connector-curvature="0" fill="#4E4E4E" d="M60.6,469.7v-1.3h2.8v1.3H60.6z M60.4,467v5.8
			c0,0.1,0.1,0.3,0.2,0.4c0.2,0.2,0.3,0.3,0.5,0.5c0.2,0.1,0.3,0.2,0.5,0.2s0.4-0.1,0.6-0.2l1.3-1v1.6c-0.4,0.6-1,0.9-1.7,1
			c-0.7,0-1.3-0.2-1.8-0.7c-0.3-0.4-0.5-0.6-0.6-0.6c-0.2-0.3-0.3-0.6-0.3-1V467L60.4,467z"/>
		<path id="path852" inkscape:connector-curvature="0" fill="#4E4E4E" d="M69.8,469.7v5.3l-1.4,0v-1.2l-0.7,0.7
			c-0.4,0.4-0.9,0.5-1.5,0.5c-0.6,0-1.1-0.2-1.5-0.6c0,0-0.2-0.2-0.4-0.4c-0.4-0.4-0.6-0.9-0.6-1.5c0-0.7,0.2-1.2,0.5-1.5l1-1h1.9
			l-1.8,1.9c-0.2,0.2-0.3,0.4-0.3,0.6c0,0.3,0.1,0.5,0.3,0.6c0.2,0.2,0.3,0.3,0.4,0.4c0.2,0.1,0.4,0.2,0.6,0.2
			c0.3,0,0.5-0.1,0.6-0.3l1.5-1.6v-2.2h-4.1c0-0.8,0.5-1.3,1.4-1.4h2.8C69.3,468.4,69.8,468.8,69.8,469.7L69.8,469.7z"/>
		<path id="path854" inkscape:connector-curvature="0" fill="#4E4E4E" d="M71.7,469.7v-1.3h2.8v1.3H71.7z M71.5,467v5.8
			c0,0.1,0.1,0.3,0.2,0.4c0.2,0.2,0.3,0.3,0.5,0.5c0.2,0.1,0.3,0.2,0.5,0.2c0.2,0,0.4-0.1,0.6-0.2l1.3-1v1.6c-0.4,0.6-1,0.9-1.7,1
			c-0.7,0-1.3-0.2-1.8-0.7c-0.3-0.4-0.5-0.6-0.6-0.6c-0.2-0.3-0.3-0.6-0.3-1V467L71.5,467z"/>
		<path id="path856" inkscape:connector-curvature="0" fill="#4E4E4E" d="M76.4,468.4v6.6H75v-6.6H76.4z"/>
		<path id="path858" inkscape:connector-curvature="0" fill="#4E4E4E" d="M82.7,471.5v1.7l-1.5,1.4c-0.4,0.4-0.9,0.5-1.5,0.5
			c-0.6,0-1.1-0.2-1.6-0.6c0,0-0.1-0.1-0.2-0.2h0l-1.2-1.2v-2.6c0-0.6,0.3-1,0.7-1.4c0.4-0.4,0.9-0.6,1.5-0.6c0,0,0.5,0,1.5,0
			c0.6,0,1.1,0.2,1.5,0.6c0.4,0.4,0.7,0.8,0.7,1.2h-1.4c-0.2-0.3-0.4-0.5-0.8-0.5c-1,0-1.5,0-1.5,0c-0.2,0-0.4,0.1-0.6,0.3
			c-0.2,0.2-0.3,0.4-0.3,0.6v1.9l1,0.9c0.1,0.1,0.1,0.1,0.1,0.2c0.2,0.2,0.4,0.2,0.6,0.2c0.2,0,0.4-0.1,0.6-0.3
			C80.9,473.1,81.7,472.4,82.7,471.5L82.7,471.5z"/>
	</g>
</g>
<g id="layer2" transform="translate(0,-3.0517578e-6)" inkscape:groupmode="layer" inkscape:label="components" display="none">
	<circle id="path3718" inkscape:label="ROOT_PARAM" display="inline" fill="#FF0000" cx="57.6" cy="72.7" r="18.2">
	</circle>
	<circle id="path4571" inkscape:label="CVOUT1_OUTPUT" display="inline" fill="#0000FF" cx="57.6" cy="339" r="4.4">
	</circle>
</g>
<path id="rect940_00000021079923697720864020000010515220416385820071_" fill="#FC8701" d="M54,76.5h7.4c5.8,0,10.5,4.7,10.5,10.5
	v7.8c0,5.8-4.7,10.5-10.5,10.5H54c-5.8,0-10.5-4.7-10.5-10.5V87C43.5,81.2,48.2,76.5,54,76.5z"/>
<g>
	<rect x="80.9" y="125.1" fill="none" width="29.3" height="8.5"/>
	<path fill="#575757" d="M85,125.2c1,0,1.7,0.3,2.2,0.9c0.5,0.6,0.7,1.4,0.7,2.2c0,0.9-0.3,1.7-0.8,2.3c-0.5,0.6-1.2,0.9-2.1,0.9
		c-1,0-1.7-0.3-2.2-0.9c-0.5-0.6-0.7-1.4-0.7-2.2c0-0.9,0.3-1.7,0.8-2.3C83.4,125.5,84.1,125.2,85,125.2z M85,130.4
		c0.5,0,0.8-0.2,1.1-0.5s0.4-0.9,0.4-1.6c0-0.6-0.1-1.1-0.4-1.5c-0.2-0.4-0.6-0.6-1.1-0.6c-0.5,0-0.8,0.2-1.1,0.6
		c-0.3,0.4-0.4,0.9-0.4,1.5c0,0.6,0.1,1.1,0.4,1.5C84.1,130.2,84.4,130.4,85,130.4z"/>
	<path fill="#575757" d="M90.8,128c-0.3,0-0.5,0.1-0.7,0.3s-0.3,0.5-0.3,0.9c0,0.4,0.1,0.6,0.3,0.9c0.2,0.2,0.4,0.3,0.7,0.3
		c0.2,0,0.4,0,0.5-0.1c0.1,0,0.3-0.1,0.5-0.2l0.4,0.9c-0.2,0.2-0.5,0.3-0.8,0.4c-0.3,0.1-0.5,0.1-0.7,0.1c-0.7,0-1.3-0.2-1.7-0.6
		c-0.4-0.4-0.6-1-0.6-1.7c0-0.7,0.2-1.3,0.6-1.7c0.4-0.4,1-0.6,1.7-0.6c0.2,0,0.4,0,0.7,0.1c0.3,0.1,0.5,0.2,0.8,0.4l-0.4,0.9
		c-0.2-0.1-0.4-0.2-0.5-0.2C91.1,128.1,91,128,90.8,128z"/>
	<path fill="#575757" d="M94.8,131.6c-0.5,0-1-0.1-1.3-0.4c-0.4-0.3-0.5-0.7-0.5-1.2v-1.8h-0.6v-1h0.6V126l1.3-0.2v1.3h0.9l0.3,1
		h-1.2v1.6c0,0.2,0.1,0.4,0.2,0.5c0.1,0.1,0.3,0.2,0.5,0.2c0.1,0,0.2,0,0.3,0c0.1,0,0.2-0.1,0.3-0.1l0.4,0.9
		c-0.1,0.1-0.3,0.2-0.5,0.2S94.9,131.6,94.8,131.6z"/>
	<path fill="#575757" d="M97.9,126.9c0.5,0,1,0.2,1.3,0.5s0.5,0.7,0.5,1.2v2.8h-0.6l-0.3-0.4c-0.2,0.1-0.3,0.2-0.6,0.3
		c-0.2,0.1-0.4,0.1-0.7,0.1c-0.5,0-0.9-0.1-1.2-0.4s-0.4-0.6-0.4-1c0-0.5,0.2-0.8,0.5-1c0.3-0.2,0.7-0.4,1.2-0.4h0.7
		c0-0.2-0.1-0.3-0.2-0.4s-0.3-0.2-0.5-0.2c-0.2,0-0.4,0-0.6,0.1c-0.2,0.1-0.4,0.1-0.6,0.2l-0.4-1c0.2-0.1,0.5-0.2,0.8-0.3
		S97.6,126.9,97.9,126.9z M97.6,130.5c0.1,0,0.3,0,0.4-0.1c0.1-0.1,0.3-0.2,0.4-0.3v-0.5h-0.8c-0.2,0-0.3,0.1-0.4,0.2
		c-0.1,0.1-0.1,0.2-0.1,0.4c0,0.1,0,0.2,0.1,0.3S97.5,130.5,97.6,130.5z"/>
	<path fill="#575757" d="M101.7,131.4l-1.7-4.2l1.3-0.2l1,2.6l0.9-2.6h1.4l-1.7,4.4H101.7z"/>
	<path fill="#575757" d="M107.1,126.9c0.7,0,1.2,0.2,1.5,0.7c0.3,0.4,0.5,1,0.5,1.6v0.4h-2.8c0.1,0.2,0.2,0.4,0.4,0.6
		c0.2,0.1,0.4,0.2,0.7,0.2c0.2,0,0.4,0,0.6-0.1c0.2,0,0.4-0.1,0.6-0.2l0.4,0.9c-0.2,0.2-0.5,0.3-0.8,0.4c-0.3,0.1-0.6,0.1-0.8,0.1
		c-0.7,0-1.3-0.2-1.8-0.6c-0.4-0.4-0.7-1-0.7-1.7c0-0.7,0.2-1.3,0.6-1.7C105.9,127.1,106.4,126.9,107.1,126.9z M107,128
		c-0.2,0-0.4,0.1-0.5,0.2c-0.1,0.1-0.2,0.3-0.3,0.6h1.6c0-0.2-0.1-0.4-0.3-0.5C107.4,128.1,107.3,128,107,128z"/>
</g>
<g>
	<rect x="80.9" y="167.6" fill="none" width="29.3" height="8.5"/>
	<path fill="#575757" d="M86.9,168.8c-0.4,0-0.8,0.2-1.1,0.6c-0.3,0.4-0.4,0.9-0.4,1.5c0,0.6,0.1,1.1,0.4,1.5
		c0.2,0.4,0.6,0.6,1.1,0.6c0.3,0,0.5,0,0.7-0.1c0.2-0.1,0.4-0.1,0.6-0.2l0.5,1c-0.2,0.1-0.5,0.2-0.8,0.3c-0.3,0.1-0.6,0.1-0.9,0.1
		c-1,0-1.7-0.3-2.1-0.9c-0.5-0.6-0.7-1.4-0.7-2.2c0-0.9,0.2-1.7,0.7-2.3c0.5-0.6,1.2-0.9,2.1-0.9c0.2,0,0.5,0,0.8,0.1
		c0.3,0.1,0.6,0.2,0.9,0.3l-0.4,0.9c-0.3-0.1-0.5-0.2-0.7-0.2S87.1,168.8,86.9,168.8z"/>
	<path fill="#575757" d="M91.9,169.5c0.6,0,1,0.2,1.3,0.5c0.3,0.3,0.4,0.8,0.4,1.3v2.7h-1.3v-2.7c0-0.2-0.1-0.4-0.2-0.6
		c-0.1-0.1-0.3-0.2-0.5-0.2c-0.2,0-0.3,0-0.5,0.1c-0.2,0.1-0.3,0.2-0.5,0.3v3h-1.3v-6.3l1.3-0.1v2.2c0.2-0.1,0.4-0.2,0.6-0.3
		C91.5,169.5,91.7,169.5,91.9,169.5z"/>
	<path fill="#575757" d="M96.5,169.5c0.7,0,1.3,0.2,1.7,0.6c0.4,0.4,0.6,1,0.6,1.7c0,0.7-0.2,1.3-0.7,1.7c-0.5,0.4-1,0.6-1.7,0.6
		c-0.7,0-1.2-0.2-1.7-0.6c-0.4-0.4-0.6-1-0.6-1.7c0-0.7,0.2-1.3,0.6-1.7C95.3,169.7,95.9,169.5,96.5,169.5z M96.5,173
		c0.3,0,0.6-0.1,0.7-0.3c0.2-0.2,0.3-0.5,0.3-0.9c0-0.4-0.1-0.7-0.3-0.9s-0.4-0.3-0.7-0.3c-0.3,0-0.5,0.1-0.7,0.3
		c-0.2,0.2-0.3,0.5-0.3,0.9c0,0.4,0.1,0.7,0.2,0.9C96,172.9,96.2,173,96.5,173z"/>
	<path fill="#575757" d="M102,169.6l0.3,1.1c-0.2,0-0.4,0-0.7,0.1c-0.3,0.1-0.5,0.2-0.7,0.4v2.7h-1.3v-4.4h0.7l0.4,0.6
		c0.2-0.1,0.4-0.3,0.6-0.4S101.8,169.6,102,169.6z"/>
	<path fill="#575757" d="M106.9,167.6v6.4h-0.7l-0.3-0.4c-0.2,0.2-0.4,0.3-0.6,0.4c-0.3,0.1-0.5,0.2-0.8,0.2c-0.7,0-1.2-0.2-1.5-0.7
		c-0.3-0.4-0.5-1-0.5-1.6c0-0.7,0.2-1.2,0.5-1.7c0.4-0.4,0.9-0.7,1.6-0.7c0.2,0,0.3,0,0.5,0.1c0.2,0,0.4,0.1,0.5,0.2v-2L106.9,167.6
		z M104.8,173c0.1,0,0.2,0,0.4-0.1c0.1,0,0.3-0.1,0.4-0.2v-1.9c-0.1-0.1-0.2-0.2-0.4-0.2c-0.1-0.1-0.3-0.1-0.4-0.1
		c-0.4,0-0.6,0.1-0.7,0.4c-0.1,0.3-0.2,0.5-0.2,0.8c0,0.3,0.1,0.6,0.2,0.8C104.2,172.9,104.4,173,104.8,173z"/>
</g>
<g>
	<rect x="42.9" y="70" fill="none" width="29.3" height="5.6"/>
	<path fill="#575757" d="M49,73.6c0.2,0.1,0.6,0.3,0.9,0.3c0.5,0,0.8-0.3,0.8-0.7c0-0.4-0.2-0.6-0.8-0.8c-0.7-0.2-1.1-0.6-1.1-1.1
		c0-0.6,0.5-1.1,1.3-1.1c0.4,0,0.7,0.1,0.9,0.2L51,70.8c-0.1-0.1-0.4-0.2-0.8-0.2c-0.6,0-0.8,0.3-0.8,0.6c0,0.4,0.2,0.6,0.8,0.8
		c0.7,0.3,1,0.6,1,1.2c0,0.6-0.5,1.2-1.4,1.2c-0.4,0-0.8-0.1-1-0.3L49,73.6z"/>
	<path fill="#575757" d="M53.9,74.2c-0.1,0.1-0.4,0.2-0.8,0.2c-0.9,0-1.4-0.6-1.4-1.5c0-0.9,0.6-1.5,1.6-1.5c0.3,0,0.6,0.1,0.7,0.1
		l-0.1,0.4c-0.1-0.1-0.3-0.1-0.6-0.1c-0.7,0-1,0.5-1,1.1c0,0.7,0.4,1.1,1,1.1c0.3,0,0.5-0.1,0.6-0.1L53.9,74.2z"/>
	<path fill="#575757" d="M56,74.3l0-0.4h0c-0.2,0.2-0.5,0.4-0.9,0.4c-0.6,0-0.9-0.4-0.9-0.8c0-0.7,0.6-1.1,1.7-1.1v-0.1
		c0-0.2-0.1-0.7-0.7-0.7c-0.3,0-0.6,0.1-0.8,0.2l-0.1-0.3c0.2-0.2,0.6-0.3,1-0.3c0.9,0,1.1,0.6,1.1,1.2v1.1c0,0.3,0,0.5,0,0.7H56z
		 M55.9,72.8c-0.6,0-1.2,0.1-1.2,0.7c0,0.3,0.2,0.5,0.5,0.5c0.4,0,0.6-0.2,0.7-0.5c0-0.1,0-0.1,0-0.2V72.8z"/>
	<path fill="#575757" d="M57.1,70h0.5v4.3h-0.5V70z"/>
	<path fill="#575757" d="M58.7,72.9c0,0.7,0.5,1,1,1c0.4,0,0.6-0.1,0.8-0.1l0.1,0.4c-0.2,0.1-0.5,0.2-1,0.2c-0.9,0-1.4-0.6-1.4-1.5
		s0.5-1.6,1.4-1.6c0.9,0,1.2,0.8,1.2,1.4c0,0.1,0,0.2,0,0.2H58.7z M60.2,72.5c0-0.3-0.1-0.9-0.7-0.9c-0.5,0-0.8,0.5-0.8,0.9H60.2z"
		/>
	<path fill="#575757" d="M62.9,70.2v4h-0.5v-4H62.9z"/>
	<path fill="#575757" d="M63.7,72.1c0-0.3,0-0.5,0-0.8h0.5l0,0.5h0c0.1-0.3,0.5-0.5,1-0.5c0.4,0,1,0.2,1,1.2v1.7h-0.5v-1.7
		c0-0.5-0.2-0.9-0.7-0.9c-0.3,0-0.6,0.2-0.7,0.5c0,0.1,0,0.2,0,0.2v1.7h-0.5V72.1z"/>
</g>
<g>
	<rect x="80.9" y="211.4" fill="none" width="29.3" height="8.5"/>
	<path fill="#575757" d="M85.8,211.6h5l0.2,1H89v5.1h-1.3v-5.1h-1.8V211.6z"/>
	<path fill="#575757" d="M92.4,217.9l0.2-0.4l-1.6-4l1.3-0.2c0.2,0.4,0.3,0.9,0.5,1.3s0.3,0.9,0.5,1.3l0.9-2.6h1.4l-1.9,4.9
		c-0.1,0.4-0.4,0.7-0.7,0.9c-0.4,0.3-0.7,0.4-1.1,0.5l-0.5-1.1c0.2-0.1,0.4-0.2,0.7-0.3C92.1,218.2,92.3,218.1,92.4,217.9z"/>
	<path fill="#575757" d="M95.9,213.4h0.7l0.3,0.3c0.2-0.2,0.4-0.3,0.7-0.4c0.3-0.1,0.5-0.1,0.7-0.1c0.7,0,1.2,0.2,1.5,0.7
		c0.3,0.4,0.5,1,0.5,1.6c0,0.7-0.2,1.2-0.5,1.7c-0.3,0.4-0.9,0.7-1.5,0.7c-0.2,0-0.3,0-0.5-0.1c-0.2,0-0.4-0.1-0.5-0.2v2l-1.3,0.1
		V213.4z M99,215.6c0-0.3-0.1-0.6-0.2-0.8c-0.1-0.2-0.4-0.4-0.8-0.4c-0.1,0-0.2,0-0.4,0.1s-0.2,0.1-0.3,0.2v1.9
		c0.1,0.1,0.2,0.1,0.4,0.2c0.1,0,0.3,0.1,0.4,0.1c0.4,0,0.6-0.1,0.7-0.4C98.9,216.1,99,215.8,99,215.6z"/>
	<path fill="#575757" d="M103,213.3c0.7,0,1.2,0.2,1.5,0.7s0.5,1,0.5,1.6v0.4h-2.8c0.1,0.2,0.2,0.4,0.4,0.6c0.2,0.1,0.4,0.2,0.7,0.2
		c0.2,0,0.4,0,0.6-0.1c0.2,0,0.4-0.1,0.6-0.2l0.4,0.9c-0.2,0.2-0.5,0.3-0.8,0.4s-0.6,0.1-0.8,0.1c-0.7,0-1.3-0.2-1.8-0.6
		c-0.4-0.4-0.7-1-0.7-1.7c0-0.7,0.2-1.3,0.6-1.7C101.8,213.5,102.4,213.3,103,213.3z M103,214.4c-0.2,0-0.4,0.1-0.5,0.2
		c-0.1,0.1-0.2,0.3-0.3,0.6h1.6c0-0.2-0.1-0.4-0.3-0.5C103.4,214.4,103.2,214.4,103,214.4z"/>
</g>
<g>
	<rect x="0" y="13.9" fill="none" width="115.2" height="13.7"/>
	<path fill="#2A2A2A" d="M17.7,27.4h-5V14.4h5c2,0,3.5,0.6,4.5,1.8c1,1.2,1.5,2.7,1.5,4.6c0,2-0.5,3.6-1.6,4.8
		C21.1,26.8,19.6,27.4,17.7,27.4z M17.8,16.7h-2.3v8.3h2.1c1,0,1.7-0.3,2.3-1c0.6-0.7,0.9-1.8,0.9-3.3c0-1.3-0.3-2.2-0.8-3
		C19.6,17.1,18.8,16.7,17.8,16.7z"/>
	<path fill="#2A2A2A" d="M28.3,15.3c0,0.4-0.2,0.8-0.5,1.1c-0.3,0.3-0.7,0.4-1.1,0.4s-0.8-0.1-1.1-0.4c-0.3-0.3-0.4-0.7-0.4-1.1
		s0.1-0.8,0.4-1.1c0.3-0.3,0.7-0.5,1.1-0.5s0.8,0.2,1.1,0.5C28.2,14.5,28.3,14.9,28.3,15.3z M28.2,18.1v9.2h-2.8v-9.2H28.2z"/>
	<path fill="#2A2A2A" d="M33.6,17.9c1.2,0,2.1,0.3,2.8,1c0.7,0.7,1.1,1.5,1.1,2.5v5.9h-1.4l-0.6-0.8c-0.3,0.3-0.7,0.5-1.2,0.7
		c-0.5,0.2-0.9,0.3-1.4,0.3c-1.1,0-2-0.3-2.5-0.8c-0.6-0.6-0.8-1.3-0.8-2.2c0-1,0.3-1.7,1-2.2c0.7-0.5,1.5-0.7,2.6-0.7h1.6
		c0-0.4-0.2-0.7-0.4-0.9s-0.6-0.3-1-0.3c-0.4,0-0.8,0.1-1.3,0.2c-0.5,0.1-0.9,0.3-1.3,0.4l-0.7-2.2c0.4-0.2,1-0.4,1.7-0.6
		C32.5,18,33.1,17.9,33.6,17.9z M33,25.3c0.3,0,0.6-0.1,0.9-0.2c0.3-0.1,0.6-0.3,0.9-0.6v-1.2h-1.6c-0.4,0-0.7,0.1-0.9,0.3
		S32,24.2,32,24.5c0,0.2,0.1,0.4,0.3,0.6S32.7,25.3,33,25.3z"/>
	<path fill="#2A2A2A" d="M43.5,27.7c-1.1,0-2.1-0.3-2.8-0.9c-0.7-0.6-1.1-1.4-1.1-2.6v-3.8h-1.3v-2.2h1.3V16l2.8-0.5v2.7h1.9
		l0.6,2.2h-2.5v3.4c0,0.4,0.1,0.8,0.3,1.1c0.2,0.3,0.6,0.4,1,0.4c0.2,0,0.3,0,0.5-0.1s0.4-0.1,0.6-0.2l0.8,2
		c-0.2,0.2-0.5,0.3-0.9,0.5S43.9,27.7,43.5,27.7z"/>
	<path fill="#2A2A2A" d="M51,17.9c1.5,0,2.7,0.4,3.6,1.3c0.9,0.9,1.3,2.1,1.3,3.6c0,1.5-0.5,2.7-1.4,3.5c-0.9,0.8-2.2,1.3-3.7,1.3
		c-1.5,0-2.6-0.4-3.5-1.3s-1.3-2-1.3-3.6c0-1.5,0.5-2.7,1.4-3.6C48.3,18.3,49.5,17.9,51,17.9z M50.9,25.2c0.6,0,1.2-0.2,1.6-0.6
		c0.4-0.4,0.6-1,0.6-1.8c0-0.8-0.2-1.4-0.5-1.9c-0.4-0.5-0.9-0.7-1.5-0.7s-1.2,0.2-1.5,0.6s-0.6,1-0.6,1.9c0,0.8,0.2,1.4,0.5,1.9
		C49.7,25,50.2,25.2,50.9,25.2z"/>
	<path fill="#2A2A2A" d="M62.9,17.8c1.3,0,2.2,0.4,2.7,1.1c0.5,0.7,0.8,1.6,0.8,2.7v5.8h-2.8v-5.6c0-0.5-0.1-0.9-0.4-1.2
		c-0.3-0.3-0.6-0.4-1.1-0.4c-0.3,0-0.6,0.1-1,0.2c-0.4,0.2-0.7,0.3-1,0.5v6.4h-2.8v-9.2h1.4l0.7,0.9c0.4-0.4,0.9-0.7,1.6-0.9
		C61.7,17.9,62.3,17.8,62.9,17.8z"/>
	<path fill="#2A2A2A" d="M71.1,15.3c0,0.4-0.2,0.8-0.5,1.1c-0.3,0.3-0.7,0.4-1.1,0.4s-0.8-0.1-1.1-0.4c-0.3-0.3-0.4-0.7-0.4-1.1
		s0.1-0.8,0.4-1.1c0.3-0.3,0.7-0.5,1.1-0.5s0.8,0.2,1.1,0.5C70.9,14.5,71.1,14.9,71.1,15.3z M70.9,18.1v9.2h-2.8v-9.2H70.9z"/>
	<path fill="#2A2A2A" d="M77.3,20.2c-0.6,0-1.1,0.2-1.5,0.7s-0.6,1.1-0.6,1.8c0,0.7,0.2,1.3,0.6,1.8c0.4,0.5,0.9,0.7,1.5,0.7
		c0.4,0,0.7,0,1.1-0.1c0.3-0.1,0.7-0.2,1.1-0.4l0.8,2c-0.5,0.4-1,0.6-1.6,0.7c-0.6,0.1-1.1,0.2-1.5,0.2c-1.5,0-2.7-0.4-3.5-1.3
		c-0.9-0.9-1.3-2-1.3-3.5c0-1.5,0.4-2.7,1.3-3.6c0.9-0.9,2-1.3,3.5-1.3c0.4,0,0.9,0.1,1.5,0.2c0.6,0.1,1.1,0.4,1.6,0.7l-0.8,2
		c-0.4-0.2-0.8-0.4-1.1-0.4C78.1,20.3,77.7,20.2,77.3,20.2z"/>
	<path fill="#2A2A2A" d="M87.3,16.5c-0.9,0-1.7,0.4-2.2,1.2c-0.5,0.8-0.8,1.9-0.8,3.2c0,1.2,0.2,2.3,0.7,3.1s1.2,1.2,2.2,1.2
		c0.5,0,1-0.1,1.5-0.2c0.5-0.1,0.9-0.3,1.2-0.4l1,2.1c-0.5,0.3-1.1,0.5-1.8,0.6s-1.3,0.2-1.9,0.2c-2,0-3.5-0.6-4.5-1.9
		c-1-1.3-1.4-2.9-1.4-4.8c0-2,0.5-3.6,1.6-4.9c1-1.3,2.5-1.9,4.4-1.9c0.5,0,1,0.1,1.7,0.2c0.7,0.1,1.3,0.4,1.8,0.7L90,17
		c-0.6-0.2-1.1-0.3-1.4-0.4C88.2,16.6,87.8,16.5,87.3,16.5z"/>
	<path fill="#2A2A2A" d="M96.3,27.4l-5-12.6l2.8-0.3l3.5,9.3l3.4-9.3h2.8l-5,12.9H96.3z"/>
</g>
<g>
	<path d="M26.1,31.2c0.3,0,0.7-0.1,1.1-0.1c0.8,0,1.3,0.2,1.6,0.5c0.4,0.3,0.6,0.8,0.6,1.5c0,0.7-0.2,1.2-0.6,1.6
		c-0.4,0.4-1,0.6-1.8,0.6c-0.4,0-0.7,0-0.9,0V31.2z M26.6,34.8c0.1,0,0.3,0,0.5,0c1.1,0,1.7-0.6,1.7-1.7c0-1-0.5-1.6-1.6-1.6
		c-0.3,0-0.5,0-0.6,0.1V34.8z"/>
	<path d="M30.6,31.5c0,0.2-0.1,0.3-0.3,0.3c-0.2,0-0.3-0.1-0.3-0.3c0-0.2,0.1-0.3,0.3-0.3C30.5,31.1,30.6,31.3,30.6,31.5z M30,35.2
		v-2.9h0.5v2.9H30z"/>
	<path d="M33,35.2l0-0.4h0c-0.2,0.2-0.5,0.4-0.9,0.4c-0.6,0-0.9-0.4-0.9-0.8c0-0.7,0.6-1.1,1.7-1.1v-0.1c0-0.2-0.1-0.7-0.7-0.7
		c-0.3,0-0.6,0.1-0.8,0.2l-0.1-0.3c0.2-0.2,0.6-0.3,1-0.3c0.9,0,1.1,0.6,1.1,1.2v1.1c0,0.3,0,0.5,0,0.7H33z M33,33.7
		c-0.6,0-1.2,0.1-1.2,0.7c0,0.3,0.2,0.5,0.5,0.5c0.4,0,0.6-0.2,0.7-0.5c0-0.1,0-0.1,0-0.2V33.7z"/>
	<path d="M34.9,31.4v0.8h0.8v0.4h-0.8v1.6c0,0.4,0.1,0.6,0.4,0.6c0.1,0,0.2,0,0.3,0l0,0.4c-0.1,0-0.3,0.1-0.5,0.1
		c-0.2,0-0.4-0.1-0.6-0.2c-0.2-0.2-0.2-0.4-0.2-0.8v-1.6H34v-0.4h0.4v-0.7L34.9,31.4z"/>
	<path d="M38.9,33.7c0,1.1-0.7,1.5-1.4,1.5c-0.8,0-1.4-0.6-1.4-1.5c0-1,0.6-1.5,1.4-1.5C38.3,32.2,38.9,32.8,38.9,33.7z M36.6,33.7
		c0,0.6,0.4,1.1,0.9,1.1c0.5,0,0.9-0.5,0.9-1.1c0-0.5-0.2-1.1-0.9-1.1C36.8,32.6,36.6,33.2,36.6,33.7z"/>
	<path d="M39.5,33.1c0-0.3,0-0.5,0-0.8H40l0,0.5h0c0.1-0.3,0.5-0.5,1-0.5c0.4,0,1,0.2,1,1.2v1.7h-0.5v-1.7c0-0.5-0.2-0.9-0.7-0.9
		c-0.3,0-0.6,0.2-0.7,0.5c0,0.1,0,0.2,0,0.2v1.7h-0.5V33.1z"/>
	<path d="M43.5,31.5c0,0.2-0.1,0.3-0.3,0.3c-0.2,0-0.3-0.1-0.3-0.3c0-0.2,0.1-0.3,0.3-0.3C43.3,31.1,43.5,31.3,43.5,31.5z
		 M42.9,35.2v-2.9h0.5v2.9H42.9z"/>
	<path d="M46.4,35.1c-0.1,0.1-0.4,0.2-0.8,0.2c-0.9,0-1.4-0.6-1.4-1.5c0-0.9,0.6-1.5,1.6-1.5c0.3,0,0.6,0.1,0.7,0.1l-0.1,0.4
		c-0.1-0.1-0.3-0.1-0.6-0.1c-0.7,0-1,0.5-1,1.1c0,0.7,0.4,1.1,1,1.1c0.3,0,0.5-0.1,0.6-0.1L46.4,35.1z"/>
	<path d="M51.1,35.1c-0.2,0.1-0.6,0.2-1.1,0.2c-1.1,0-2-0.7-2-2c0-1.3,0.9-2.1,2.1-2.1c0.5,0,0.8,0.1,1,0.2L51,31.7
		c-0.2-0.1-0.5-0.2-0.8-0.2c-0.9,0-1.6,0.6-1.6,1.7c0,1,0.6,1.6,1.6,1.6c0.3,0,0.6-0.1,0.9-0.2L51.1,35.1z"/>
	<path d="M51.7,30.9h0.5v1.8h0c0.1-0.1,0.2-0.3,0.4-0.4c0.2-0.1,0.3-0.1,0.5-0.1c0.4,0,1,0.2,1,1.2v1.7h-0.5v-1.7
		c0-0.5-0.2-0.9-0.7-0.9c-0.3,0-0.6,0.2-0.7,0.5c0,0.1,0,0.1,0,0.3v1.8h-0.5V30.9z"/>
	<path d="M57.7,33.7c0,1.1-0.7,1.5-1.4,1.5c-0.8,0-1.4-0.6-1.4-1.5c0-1,0.6-1.5,1.4-1.5C57.1,32.2,57.7,32.8,57.7,33.7z M55.4,33.7
		c0,0.6,0.4,1.1,0.9,1.1c0.5,0,0.9-0.5,0.9-1.1c0-0.5-0.2-1.1-0.9-1.1C55.6,32.6,55.4,33.2,55.4,33.7z"/>
	<path d="M58.3,33.2c0-0.3,0-0.6,0-0.9h0.5l0,0.6h0c0.1-0.4,0.4-0.6,0.8-0.6c0.1,0,0.1,0,0.2,0v0.5c-0.1,0-0.1,0-0.2,0
		c-0.4,0-0.6,0.3-0.7,0.7c0,0.1,0,0.2,0,0.2v1.5h-0.5V33.2z"/>
	<path d="M62.8,30.9v3.5c0,0.3,0,0.6,0,0.7h-0.5l0-0.5h0c-0.2,0.3-0.5,0.6-1,0.6c-0.7,0-1.2-0.6-1.2-1.5c0-1,0.6-1.6,1.3-1.6
		c0.4,0,0.7,0.2,0.9,0.4h0v-1.7H62.8z M62.2,33.5c0-0.1,0-0.2,0-0.2c-0.1-0.3-0.4-0.6-0.8-0.6c-0.5,0-0.9,0.5-0.9,1.1
		c0,0.6,0.3,1.1,0.9,1.1c0.4,0,0.7-0.2,0.8-0.6c0-0.1,0-0.1,0-0.2V33.5z"/>
	<path d="M68,35c-0.2,0.1-0.7,0.2-1.2,0.2c-0.6,0-1.1-0.2-1.5-0.5c-0.3-0.3-0.6-0.9-0.6-1.5c0-1.2,0.8-2.1,2.2-2.1
		c0.5,0,0.8,0.1,1,0.2l-0.1,0.4c-0.2-0.1-0.5-0.2-0.9-0.2c-1,0-1.6,0.6-1.6,1.6c0,1,0.6,1.6,1.6,1.6c0.3,0,0.6,0,0.7-0.1v-1.2h-0.8
		v-0.4H68V35z"/>
	<path d="M69.1,33.8c0,0.7,0.5,1,1,1c0.4,0,0.6-0.1,0.8-0.1l0.1,0.4c-0.2,0.1-0.5,0.2-1,0.2c-0.9,0-1.4-0.6-1.4-1.5s0.5-1.6,1.4-1.6
		c0.9,0,1.2,0.8,1.2,1.4c0,0.1,0,0.2,0,0.2H69.1z M70.7,33.5c0-0.3-0.1-0.9-0.7-0.9c-0.5,0-0.8,0.5-0.8,0.9H70.7z"/>
	<path d="M71.8,33.1c0-0.3,0-0.5,0-0.8h0.5l0,0.5h0c0.1-0.3,0.5-0.5,1-0.5c0.4,0,1,0.2,1,1.2v1.7h-0.5v-1.7c0-0.5-0.2-0.9-0.7-0.9
		c-0.3,0-0.6,0.2-0.7,0.5c0,0.1,0,0.2,0,0.2v1.7h-0.5V33.1z"/>
	<path d="M75.4,33.8c0,0.7,0.5,1,1,1c0.4,0,0.6-0.1,0.8-0.1l0.1,0.4c-0.2,0.1-0.5,0.2-1,0.2c-0.9,0-1.4-0.6-1.4-1.5s0.5-1.6,1.4-1.6
		c0.9,0,1.2,0.8,1.2,1.4c0,0.1,0,0.2,0,0.2H75.4z M77,33.5c0-0.3-0.1-0.9-0.7-0.9c-0.5,0-0.8,0.5-0.8,0.9H77z"/>
	<path d="M78.2,33.2c0-0.3,0-0.6,0-0.9h0.5l0,0.6h0c0.1-0.4,0.4-0.6,0.8-0.6c0.1,0,0.1,0,0.2,0v0.5c-0.1,0-0.1,0-0.2,0
		c-0.4,0-0.6,0.3-0.7,0.7c0,0.1,0,0.2,0,0.2v1.5h-0.5V33.2z"/>
	<path d="M81.7,35.2l0-0.4h0c-0.2,0.2-0.5,0.4-0.9,0.4c-0.6,0-0.9-0.4-0.9-0.8c0-0.7,0.6-1.1,1.7-1.1v-0.1c0-0.2-0.1-0.7-0.7-0.7
		c-0.3,0-0.6,0.1-0.8,0.2l-0.1-0.3c0.2-0.2,0.6-0.3,1-0.3c0.9,0,1.1,0.6,1.1,1.2v1.1c0,0.3,0,0.5,0,0.7H81.7z M81.6,33.7
		c-0.6,0-1.2,0.1-1.2,0.7c0,0.3,0.2,0.5,0.5,0.5c0.4,0,0.6-0.2,0.7-0.5c0-0.1,0-0.1,0-0.2V33.7z"/>
	<path d="M83.6,31.4v0.8h0.8v0.4h-0.8v1.6c0,0.4,0.1,0.6,0.4,0.6c0.1,0,0.2,0,0.3,0l0,0.4c-0.1,0-0.3,0.1-0.5,0.1
		c-0.2,0-0.4-0.1-0.6-0.2c-0.2-0.2-0.2-0.4-0.2-0.8v-1.6h-0.4v-0.4h0.4v-0.7L83.6,31.4z"/>
	<path d="M87.5,33.7c0,1.1-0.7,1.5-1.4,1.5c-0.8,0-1.4-0.6-1.4-1.5c0-1,0.6-1.5,1.4-1.5C87,32.2,87.5,32.8,87.5,33.7z M85.2,33.7
		c0,0.6,0.4,1.1,0.9,1.1c0.5,0,0.9-0.5,0.9-1.1c0-0.5-0.2-1.1-0.9-1.1C85.5,32.6,85.2,33.2,85.2,33.7z"/>
	<path d="M88.2,33.2c0-0.3,0-0.6,0-0.9h0.5l0,0.6h0c0.1-0.4,0.4-0.6,0.8-0.6c0.1,0,0.1,0,0.2,0v0.5c-0.1,0-0.1,0-0.2,0
		c-0.4,0-0.6,0.3-0.7,0.7c0,0.1,0,0.2,0,0.2v1.5h-0.5V33.2z"/>
</g>
<g>
	<rect x="43" y="297.7" fill="none" width="29.3" height="5.6"/>
	<path fill="#575757" d="M48.6,301.9c-0.2,0.1-0.6,0.2-1.1,0.2c-1.1,0-2-0.7-2-2c0-1.3,0.9-2.1,2.1-2.1c0.5,0,0.8,0.1,1,0.2
		l-0.1,0.4c-0.2-0.1-0.5-0.2-0.8-0.2c-0.9,0-1.6,0.6-1.6,1.7c0,1,0.6,1.6,1.6,1.6c0.3,0,0.6-0.1,0.9-0.2L48.6,301.9z"/>
	<path fill="#575757" d="M49,297.7h0.5v1.8h0c0.1-0.2,0.2-0.3,0.4-0.4c0.2-0.1,0.3-0.1,0.5-0.1c0.4,0,1,0.2,1,1.2v1.7H51v-1.7
		c0-0.5-0.2-0.9-0.7-0.9c-0.3,0-0.6,0.2-0.7,0.5c0,0.1,0,0.2,0,0.3v1.8H49V297.7z"/>
	<path fill="#575757" d="M54.8,300.5c0,1.1-0.7,1.5-1.4,1.5c-0.8,0-1.4-0.6-1.4-1.5c0-1,0.6-1.5,1.4-1.5
		C54.3,299,54.8,299.6,54.8,300.5z M52.5,300.5c0,0.6,0.4,1.1,0.9,1.1c0.5,0,0.9-0.5,0.9-1.1c0-0.5-0.2-1.1-0.9-1.1
		C52.8,299.4,52.5,300,52.5,300.5z"/>
	<path fill="#575757" d="M55.4,300c0-0.3,0-0.6,0-0.9h0.5l0,0.6h0c0.1-0.4,0.4-0.6,0.8-0.6c0.1,0,0.1,0,0.2,0v0.5
		c-0.1,0-0.1,0-0.2,0c-0.4,0-0.6,0.3-0.7,0.7c0,0.1,0,0.2,0,0.2v1.5h-0.5V300z"/>
	<path fill="#575757" d="M59.6,297.7v3.5c0,0.3,0,0.6,0,0.7h-0.5l0-0.5h0c-0.2,0.3-0.5,0.6-1,0.6c-0.7,0-1.2-0.6-1.2-1.5
		c0-1,0.6-1.6,1.3-1.6c0.4,0,0.7,0.2,0.9,0.4h0v-1.7H59.6z M59.1,300.3c0-0.1,0-0.2,0-0.2c-0.1-0.3-0.4-0.6-0.8-0.6
		c-0.5,0-0.9,0.5-0.9,1.1c0,0.6,0.3,1.1,0.9,1.1c0.4,0,0.7-0.2,0.8-0.6c0-0.1,0-0.1,0-0.2V300.3z"/>
	<path fill="#575757" d="M64.9,299.9c0,1.4-0.8,2.1-1.9,2.1c-1.1,0-1.8-0.8-1.8-2.1c0-1.3,0.8-2.1,1.9-2.1
		C64.2,297.9,64.9,298.7,64.9,299.9z M61.8,300c0,0.9,0.5,1.6,1.3,1.6c0.8,0,1.3-0.8,1.3-1.7c0-0.8-0.4-1.6-1.3-1.6
		C62.2,298.3,61.8,299.1,61.8,300z"/>
	<path fill="#575757" d="M67.9,301.2c0,0.3,0,0.6,0,0.8h-0.5l0-0.5h0c-0.1,0.2-0.4,0.5-1,0.5c-0.5,0-1-0.3-1-1.3v-1.7h0.5v1.6
		c0,0.6,0.2,0.9,0.6,0.9c0.4,0,0.6-0.2,0.7-0.5c0-0.1,0-0.2,0-0.3v-1.8h0.5V301.2z"/>
	<path fill="#575757" d="M69.2,298.3v0.8H70v0.4h-0.8v1.6c0,0.4,0.1,0.6,0.4,0.6c0.1,0,0.2,0,0.3,0l0,0.4c-0.1,0-0.3,0.1-0.5,0.1
		c-0.2,0-0.4-0.1-0.6-0.2c-0.2-0.2-0.2-0.4-0.2-0.8v-1.6h-0.4v-0.4h0.4v-0.7L69.2,298.3z"/>
</g>
</svg>
