<?xml version="1.0" encoding="utf-8"?>
<!-- Generator: Adobe Illustrator 25.4.1, SVG Export Plug-In . SVG Version: 6.00 Build 0)  -->
<svg version="1.1"
	 id="svg8" inkscape:version="0.92.4 (5da689c313, 2019-01-14)" sodipodi:docname="ChordCV.svg" xmlns:cc="http://creativecommons.org/ns#" xmlns:dc="http://purl.org/dc/elements/1.1/" xmlns:inkscape="http://www.inkscape.org/namespaces/inkscape" xmlns:rdf="http://www.w3.org/1999/02/22-rdf-syntax-ns#" xmlns:sodipodi="http://sodipodi.sourceforge.net/DTD/sodipodi-0.dtd" xmlns:svg="http://www.w3.org/2000/svg"
	 xmlns="http://www.w3.org/2000/svg" xmlns:xlink="http://www.w3.org/1999/xlink" x="0px" y="0px" width="40.639999mm" height="128.55mm"
	 viewBox="0 0 115.2 364.4" enable-background="new 0 0 115.2 364.4" xml:space="preserve">
<sodipodi:namedview  bordercolor="#666666" borderopacity="1.0" id="base" inkscape:current-layer="layer6" inkscape:cx="88.019841" inkscape:cy="218.56238" inkscape:document-units="mm" inkscape:pageopacity="0.0" inkscape:pageshadow="2" inkscape:window-height="976" inkscape:window-maximized="0" inkscape:window-width="1457" inkscape:window-x="3014" inkscape:window-y="198" inkscape:zoom="1.979899" pagecolor="#ffffff" showgrid="false">
	</sodipodi:namedview>
<g id="layer3" inkscape:groupmode="layer" inkscape:label="BG">
	<rect id="rect4608" x="0" y="0" fill="#F2F2F2" width="115.2" height="364.4"/>
</g>
<path id="rect940" fill="#FC8701" d="M53.9,76.8h7.4c5.8,0,10.5,4.7,10.5,10.5v7.8c0,5.8-4.7,10.5-10.5,10.5h-7.4
	c-5.8,0-10.5-4.7-10.5-10.5v-7.8C43.4,81.5,48.1,76.8,53.9,76.8z"/>
<path id="rect860" fill="#C3C3C3" d="M82.6,185.5h25.9c1.7,0,3.1,1.4,3.1,3.1v7.5c0,1.7-1.4,3.1-3.1,3.1H82.6
	c-1.7,0-3.1-1.4-3.1-3.1v-7.5C79.5,186.8,80.9,185.5,82.6,185.5z"/>
<rect id="rect872" x="12.3" y="190.7" fill="#C3C3C3" width="68" height="3.2"/>
<g id="g857" inkscape:groupmode="layer" inkscape:label="Type">
</g>
<g id="text4624" transform="matrix(1.2451884,0,0,1.2451884,-4.9822279,-72.597247)">
	<path id="path838" inkscape:connector-curvature="0" fill="#4E4E4E" d="M23.9,334.4v5.3l-1.4,0v-1.2l-0.7,0.7
		c-0.4,0.4-0.9,0.5-1.5,0.5c-0.6,0-1.1-0.2-1.5-0.6c0,0-0.2-0.2-0.4-0.4c-0.4-0.4-0.6-0.9-0.6-1.5c0-0.7,0.2-1.2,0.5-1.5l1-1h1.9
		l-1.8,1.9c-0.2,0.2-0.3,0.4-0.3,0.6c0,0.3,0.1,0.5,0.3,0.6c0.2,0.2,0.3,0.3,0.4,0.4c0.2,0.1,0.4,0.2,0.6,0.2c0.3,0,0.5-0.1,0.6-0.3
		l1.5-1.6v-2.2h-4.1c0-0.8,0.5-1.3,1.4-1.4h2.8C23.4,333.1,23.9,333.5,23.9,334.4L23.9,334.4z"/>
	<path id="path840" inkscape:connector-curvature="0" fill="#4E4E4E" d="M30.3,334.4v5.3l-1.4,0v-1.2l-0.7,0.7
		c-0.4,0.4-0.9,0.5-1.5,0.5c-0.6,0-1.1-0.2-1.5-0.6c0,0-0.2-0.2-0.4-0.4c-0.4-0.4-0.6-0.9-0.6-1.5c0-0.7,0.2-1.2,0.5-1.5l1-1h1.9
		l-1.8,1.9c-0.2,0.2-0.3,0.4-0.3,0.6c0,0.3,0.1,0.5,0.3,0.6c0.2,0.2,0.3,0.3,0.4,0.4c0.2,0.1,0.4,0.2,0.6,0.2c0.3,0,0.5-0.1,0.6-0.3
		l1.5-1.6v-2.2h-4.1c0-0.8,0.5-1.3,1.4-1.4H29C29.8,333.1,30.3,333.5,30.3,334.4L30.3,334.4z"/>
	<path id="path842" inkscape:connector-curvature="0" fill="#4E4E4E" d="M36.3,337.1l-1.1,1.1l1.7,1.6H35l-1.7-1.5v-1.9l0.9,0.9l1-1
		c0.2-0.2,0.3-0.4,0.3-0.6s-0.1-0.5-0.3-0.6c0,0-0.1-0.1-0.4-0.4c-0.2-0.1-0.4-0.2-0.6-0.2c-0.2,0-0.5,0.1-0.6,0.3l-1.5,1.6v3.5
		h-1.4v-6.6h1.4v1.2l0.7-0.7c0.4-0.4,0.8-0.5,1.4-0.5c0.6,0,1.1,0.2,1.6,0.6c0,0,0.2,0.1,0.4,0.4c0.4,0.4,0.6,0.9,0.6,1.5
		C36.9,336.1,36.7,336.6,36.3,337.1L36.3,337.1z"/>
	<path id="path844" inkscape:connector-curvature="0" fill="#4E4E4E" d="M40.8,338.2c-0.2,0.2-0.4,0.3-0.6,0.3
		c-0.2,0-0.4-0.1-0.6-0.3c0,0-0.4-0.3-1.1-1v-1.9c0-0.2,0.1-0.4,0.3-0.6c0.2-0.2,0.4-0.3,0.6-0.3c0,0,0.5,0,1.5,0
		c0.3,0,0.6,0.2,0.7,0.4c0,0,0,0,0,0c0.1,0.2,0.1,0.4,0.1,0.5v1.9C41.4,337.6,41.1,337.9,40.8,338.2L40.8,338.2z M43.1,335.2
		L43.1,335.2c0-0.2,0-0.3-0.1-0.4c0-0.1-0.1-0.3-0.2-0.5c-0.1-0.2-0.2-0.3-0.2-0.3c-0.5-0.6-1-0.9-1.7-0.9h-1.5
		c-0.5,0-1,0.2-1.4,0.5c-0.5,0.4-0.8,1-0.8,1.5l0,0v2.7l1.5,1.4c0.4,0.4,0.9,0.6,1.5,0.6c0.6,0,1.1-0.2,1.5-0.5v0l1.5-1.4V335.2z"/>
	<path id="path846" inkscape:connector-curvature="0" fill="#4E4E4E" d="M44.8,339.7h-1.4v-6.6h1.4V339.7z M48.2,339.7v-4.4
		c0-0.1-0.1-0.3-0.2-0.4c-0.2-0.2-0.4-0.3-0.5-0.5c-0.2-0.1-0.3-0.2-0.5-0.2s-0.4,0.1-0.6,0.2l-1.3,1v-1.6c0.4-0.6,1-0.9,1.7-1
		c0.7,0,1.3,0.2,1.8,0.7c0.3,0.3,0.5,0.5,0.6,0.6c0.2,0.3,0.3,0.7,0.3,1v4.4L48.2,339.7z"/>
	<path id="path848" inkscape:connector-curvature="0" fill="#4E4E4E" d="M53,337.4v-1.9l2.7,2.7c0.2,0.2,0.4,0.3,0.6,0.3
		c0.2,0,0.4-0.1,0.6-0.2l0.4-0.4c0.2-0.2,0.2-0.3,0.2-0.5c0-0.3-0.2-0.7-0.5-1l-1.8-1.8h1.9l1.3,1.3c0.4,0.5,0.6,1,0.6,1.6
		c0,0.6-0.2,1.1-0.6,1.5c-0.3,0.3-0.4,0.4-0.4,0.4c-0.4,0.4-0.9,0.6-1.5,0.6c-0.6,0-1-0.2-1.5-0.5l0,0L53,337.4z M55.2,333.1
		c-0.1,0.1-0.2,0.2-0.3,0.3c-0.1,0.2-0.2,0.3-0.2,0.6c0,0.2,0.1,0.5,0.3,0.6l1.2,1.2h-1.9l-0.4-0.4c-0.4-0.4-0.5-0.8-0.5-1.4
		c0-0.3,0.1-0.6,0.2-0.9L55.2,333.1z"/>
	<path id="path850" inkscape:connector-curvature="0" fill="#4E4E4E" d="M60.6,334.4v-1.3h2.8v1.3H60.6z M60.4,331.7v5.8
		c0,0.1,0.1,0.3,0.2,0.4c0.2,0.2,0.3,0.3,0.5,0.5c0.2,0.1,0.3,0.2,0.5,0.2s0.4-0.1,0.6-0.2l1.3-1v1.6c-0.4,0.6-1,0.9-1.7,1
		c-0.7,0-1.3-0.2-1.8-0.7c-0.3-0.4-0.5-0.6-0.6-0.6c-0.2-0.3-0.3-0.6-0.3-1v-5.8L60.4,331.7z"/>
	<path id="path852" inkscape:connector-curvature="0" fill="#4E4E4E" d="M69.8,334.4v5.3l-1.4,0v-1.2l-0.7,0.7
		c-0.4,0.4-0.9,0.5-1.5,0.5c-0.6,0-1.1-0.2-1.5-0.6c0,0-0.2-0.2-0.4-0.4c-0.4-0.4-0.6-0.9-0.6-1.5c0-0.7,0.2-1.2,0.5-1.5l1-1h1.9
		l-1.8,1.9c-0.2,0.2-0.3,0.4-0.3,0.6c0,0.3,0.1,0.5,0.3,0.6c0.2,0.2,0.3,0.3,0.4,0.4c0.2,0.1,0.4,0.2,0.6,0.2c0.3,0,0.5-0.1,0.6-0.3
		l1.5-1.6v-2.2h-4.1c0-0.8,0.5-1.3,1.4-1.4h2.8C69.3,333.1,69.8,333.5,69.8,334.4L69.8,334.4z"/>
	<path id="path854" inkscape:connector-curvature="0" fill="#4E4E4E" d="M71.7,334.4v-1.3h2.8v1.3H71.7z M71.5,331.7v5.8
		c0,0.1,0.1,0.3,0.2,0.4c0.2,0.2,0.3,0.3,0.5,0.5c0.2,0.1,0.3,0.2,0.5,0.2c0.2,0,0.4-0.1,0.6-0.2l1.3-1v1.6c-0.4,0.6-1,0.9-1.7,1
		c-0.7,0-1.3-0.2-1.8-0.7c-0.3-0.4-0.5-0.6-0.6-0.6c-0.2-0.3-0.3-0.6-0.3-1v-5.8L71.5,331.7z"/>
	<path id="path856" inkscape:connector-curvature="0" fill="#4E4E4E" d="M76.4,333.1v6.6H75v-6.6H76.4z"/>
	<path id="path858" inkscape:connector-curvature="0" fill="#4E4E4E" d="M82.7,336.2v1.7l-1.5,1.4c-0.4,0.4-0.9,0.5-1.5,0.5
		c-0.6,0-1.1-0.2-1.6-0.6c0,0-0.1-0.1-0.2-0.2h0l-1.2-1.2v-2.6c0-0.6,0.3-1,0.7-1.4c0.4-0.4,0.9-0.6,1.5-0.6c0,0,0.5,0,1.5,0
		c0.6,0,1.1,0.2,1.5,0.6c0.4,0.4,0.7,0.8,0.7,1.2h-1.4c-0.2-0.3-0.4-0.5-0.8-0.5c-1,0-1.5,0-1.5,0c-0.2,0-0.4,0.1-0.6,0.3
		c-0.2,0.2-0.3,0.4-0.3,0.6v1.9l1,0.9c0.1,0.1,0.1,0.1,0.1,0.2c0.2,0.2,0.4,0.2,0.6,0.2c0.2,0,0.4-0.1,0.6-0.3
		C80.9,337.8,81.7,337.1,82.7,336.2L82.7,336.2z"/>
</g>
<g id="layer2" transform="translate(0,-3.0517578e-6)" inkscape:groupmode="layer" inkscape:label="components" display="none">
	<circle id="path3718" inkscape:label="ROOT_PARAM" display="inline" fill="#FF0000" cx="57.6" cy="72.7" r="18.2">
	</circle>
	<circle id="path4571" inkscape:label="CVOUT1_OUTPUT" display="inline" fill="#0000FF" cx="57.6" cy="339" r="4.4">
	</circle>
</g>
<g>
	<rect y="18.2" fill="none" width="115.2" height="13.7"/>
	<path fill="#2A2A2A" d="M17.5,27.3c-0.3-0.5-0.6-1-0.9-1.6c-0.3-0.5-0.6-1.1-0.9-1.6c-0.1,0-0.2,0-0.3,0c-0.1,0-0.2,0-0.3,0h-1.1
		v3.2h-1.9v-8.8h3.1c1,0,1.8,0.2,2.5,0.7s1,1.2,1,2.1c0,0.5-0.1,1-0.4,1.4c-0.3,0.4-0.6,0.7-1,0.9c0.3,0.6,0.7,1.2,1,1.9
		c0.4,0.6,0.7,1.2,1,1.8H17.5z M15.3,20.1h-1.1v2.6h1.1c0.5,0,0.8-0.1,1.1-0.3c0.3-0.2,0.4-0.5,0.4-1c0-0.5-0.1-0.8-0.4-1
		S15.8,20.1,15.3,20.1z"/>
	<path fill="#2A2A2A" d="M22.6,20.9c0.8,0,1.4,0.2,1.9,0.7s0.8,1,0.8,1.7v4.1h-0.9L24,26.8c-0.2,0.2-0.5,0.4-0.8,0.5s-0.6,0.2-1,0.2
		c-0.8,0-1.4-0.2-1.7-0.6s-0.6-0.9-0.6-1.5c0-0.7,0.2-1.2,0.7-1.5s1-0.5,1.7-0.5h1.1c0-0.3-0.1-0.5-0.3-0.6
		c-0.2-0.2-0.4-0.2-0.7-0.2c-0.3,0-0.6,0-0.9,0.1c-0.3,0.1-0.6,0.2-0.9,0.3l-0.5-1.5c0.3-0.2,0.7-0.3,1.2-0.4
		C21.9,20.9,22.3,20.9,22.6,20.9z M22.2,26c0.2,0,0.4,0,0.6-0.1c0.2-0.1,0.4-0.2,0.6-0.4v-0.8h-1.1c-0.3,0-0.4,0.1-0.6,0.2
		s-0.2,0.3-0.2,0.5c0,0.2,0.1,0.3,0.2,0.4C21.9,25.9,22,26,22.2,26z"/>
	<path fill="#2A2A2A" d="M30.3,20.8c0.9,0,1.5,0.2,1.9,0.7c0.4,0.5,0.6,1.1,0.6,1.9v3.9h-1.9v-3.9c0-0.3-0.1-0.6-0.3-0.8
		c-0.2-0.2-0.4-0.3-0.7-0.3c-0.2,0-0.4,0.1-0.7,0.2s-0.5,0.2-0.7,0.4v4.4h-1.9V21h1l0.5,0.6c0.3-0.2,0.6-0.4,1.1-0.6
		C29.5,20.9,29.9,20.8,30.3,20.8z"/>
	<path fill="#2A2A2A" d="M40,18.2v9.2h-1l-0.5-0.6c-0.3,0.2-0.6,0.4-0.9,0.6c-0.4,0.2-0.8,0.2-1.2,0.2c-1,0-1.7-0.3-2.2-1
		c-0.5-0.6-0.7-1.4-0.7-2.4c0-1,0.3-1.8,0.8-2.4s1.3-1,2.2-1c0.2,0,0.5,0,0.7,0.1s0.5,0.2,0.8,0.3v-2.9L40,18.2z M37,25.9
		c0.2,0,0.3,0,0.5-0.1s0.4-0.2,0.5-0.3v-2.7c-0.2-0.1-0.4-0.2-0.6-0.3s-0.4-0.1-0.6-0.1c-0.5,0-0.9,0.2-1.1,0.6
		c-0.2,0.4-0.3,0.8-0.3,1.2c0,0.5,0.1,0.9,0.3,1.2S36.5,25.9,37,25.9z"/>
	<path fill="#2A2A2A" d="M44.4,20.9c1,0,1.9,0.3,2.5,0.9c0.6,0.6,0.9,1.4,0.9,2.5c0,1-0.3,1.8-1,2.4c-0.6,0.6-1.5,0.9-2.5,0.9
		c-1,0-1.8-0.3-2.4-0.9S41,25.2,41,24.2c0-1,0.3-1.8,0.9-2.4S43.4,20.9,44.4,20.9z M44.4,25.9c0.4,0,0.8-0.1,1.1-0.4
		c0.3-0.3,0.4-0.7,0.4-1.3c0-0.5-0.1-1-0.4-1.3c-0.2-0.3-0.6-0.5-1-0.5s-0.8,0.1-1,0.4c-0.3,0.3-0.4,0.7-0.4,1.3
		c0,0.6,0.1,1,0.3,1.3C43.6,25.7,43.9,25.9,44.4,25.9z"/>
	<path fill="#2A2A2A" d="M56.6,20.8c0.8,0,1.5,0.2,1.8,0.7c0.4,0.5,0.5,1.1,0.5,1.9v3.9H57v-3.9c0-0.3-0.1-0.6-0.3-0.8
		c-0.2-0.2-0.4-0.3-0.7-0.3c-0.2,0-0.4,0.1-0.7,0.2c-0.2,0.1-0.5,0.2-0.7,0.4c0,0.1,0,0.2,0,0.2c0,0.1,0,0.1,0,0.2v3.9h-1.9v-3.9
		c0-0.3-0.1-0.6-0.3-0.8c-0.2-0.2-0.4-0.3-0.7-0.3c-0.2,0-0.4,0-0.6,0.1c-0.2,0.1-0.4,0.2-0.6,0.3v4.5h-1.9V21h1l0.4,0.6
		c0.3-0.2,0.6-0.4,1-0.6c0.4-0.2,0.8-0.2,1.2-0.2c0.5,0,0.9,0.1,1.2,0.2c0.3,0.2,0.6,0.4,0.8,0.7c0.3-0.3,0.6-0.5,1-0.6
		C55.8,20.9,56.2,20.8,56.6,20.8z"/>
	<path fill="#2A2A2A" d="M68,18.5v8.8h-1.9l-3.9-5.6v5.6h-1.9v-8.8h1.8l3.9,5.6v-5.6H68z"/>
	<path fill="#2A2A2A" d="M72.6,20.9c1,0,1.9,0.3,2.5,0.9c0.6,0.6,0.9,1.4,0.9,2.5c0,1-0.3,1.8-1,2.4c-0.7,0.6-1.5,0.9-2.5,0.9
		c-1,0-1.8-0.3-2.4-0.9s-0.9-1.4-0.9-2.4c0-1,0.3-1.8,0.9-2.4S71.6,20.9,72.6,20.9z M72.5,25.9c0.4,0,0.8-0.1,1.1-0.4
		c0.3-0.3,0.4-0.7,0.4-1.3c0-0.5-0.1-1-0.4-1.3c-0.2-0.3-0.6-0.5-1-0.5c-0.4,0-0.8,0.1-1,0.4s-0.4,0.7-0.4,1.3c0,0.6,0.1,1,0.3,1.3
		C71.7,25.7,72.1,25.9,72.5,25.9z"/>
	<path fill="#2A2A2A" d="M79.8,27.6c-0.8,0-1.4-0.2-1.9-0.6c-0.5-0.4-0.8-1-0.8-1.8v-2.6h-0.9v-1.5h0.9v-1.6l1.9-0.3v1.9h1.3
		l0.4,1.5H79v2.3c0,0.3,0.1,0.6,0.2,0.7c0.2,0.2,0.4,0.3,0.7,0.3c0.1,0,0.2,0,0.4-0.1c0.1,0,0.3-0.1,0.4-0.1l0.6,1.4
		c-0.1,0.1-0.4,0.2-0.7,0.3C80.3,27.5,80,27.6,79.8,27.6z"/>
	<path fill="#2A2A2A" d="M84.8,20.9c1,0,1.7,0.3,2.2,1c0.5,0.7,0.7,1.4,0.7,2.3v0.6h-4.1c0.1,0.4,0.3,0.6,0.5,0.8
		c0.3,0.2,0.6,0.3,1,0.3c0.3,0,0.6,0,0.8-0.1s0.5-0.2,0.8-0.3l0.6,1.4c-0.3,0.2-0.7,0.4-1.2,0.5c-0.5,0.1-0.8,0.1-1.1,0.1
		c-1.1,0-1.9-0.3-2.6-0.9c-0.6-0.6-1-1.4-1-2.4c0-1,0.3-1.8,0.9-2.4C83,21.2,83.8,20.9,84.8,20.9z M84.7,22.4
		c-0.3,0-0.5,0.1-0.8,0.3c-0.2,0.2-0.3,0.5-0.4,0.8h2.3c-0.1-0.3-0.2-0.6-0.4-0.8C85.3,22.5,85,22.4,84.7,22.4z"/>
	<path fill="#2A2A2A" d="M92.6,19.9c-0.6,0-1.1,0.3-1.5,0.8S90.5,22,90.5,23c0,0.8,0.2,1.6,0.5,2.1c0.3,0.6,0.8,0.9,1.5,0.9
		c0.4,0,0.7,0,1-0.1c0.3-0.1,0.6-0.2,0.8-0.3l0.7,1.4c-0.3,0.2-0.7,0.3-1.2,0.4s-0.9,0.2-1.3,0.2c-1.4,0-2.4-0.4-3.1-1.3
		c-0.7-0.9-1-2-1-3.2c0-1.4,0.4-2.5,1.1-3.3c0.7-0.9,1.7-1.3,3-1.3c0.3,0,0.7,0,1.2,0.1s0.9,0.3,1.3,0.5l-0.6,1.3
		c-0.4-0.1-0.7-0.2-1-0.3S92.9,19.9,92.6,19.9z"/>
	<path fill="#2A2A2A" d="M98.7,27.3l-3.4-8.6l1.9-0.2l2.4,6.4l2.3-6.4h1.9l-3.4,8.8H98.7z"/>
</g>
<g>
	<rect x="80.9" y="189.1" fill="none" width="29.3" height="8.5"/>
	<path fill="#575757" d="M84.7,194l-1-1.8c-0.1,0-0.1,0-0.2,0c-0.1,0-0.1,0-0.2,0h-0.5v1.8h-0.9v-4.8h1.5c0.5,0,1,0.1,1.3,0.4
		c0.4,0.2,0.6,0.6,0.6,1.1c0,0.3-0.1,0.5-0.2,0.8c-0.2,0.2-0.3,0.4-0.6,0.5l1.2,2H84.7z M83.4,190h-0.6v1.5h0.6
		c0.3,0,0.5-0.1,0.7-0.2c0.2-0.1,0.3-0.3,0.3-0.5c0-0.3-0.1-0.5-0.3-0.6C83.9,190.1,83.7,190,83.4,190z"/>
	<path fill="#575757" d="M87.5,194.1c-0.5,0-1-0.2-1.3-0.5s-0.5-0.8-0.5-1.3c0-0.5,0.2-1,0.5-1.3c0.3-0.3,0.7-0.5,1.3-0.5
		c0.6,0,1,0.2,1.3,0.5c0.3,0.3,0.5,0.8,0.5,1.3c0,0.5-0.2,1-0.5,1.3C88.5,193.9,88.1,194.1,87.5,194.1z M88.4,192.3
		c0-0.3-0.1-0.6-0.2-0.8s-0.3-0.3-0.6-0.3c-0.3,0-0.5,0.1-0.6,0.2c-0.1,0.2-0.2,0.4-0.2,0.7s0.1,0.6,0.2,0.8
		c0.1,0.2,0.3,0.3,0.6,0.3c0.3,0,0.5-0.1,0.6-0.2C88.3,192.9,88.4,192.7,88.4,192.3z"/>
	<path fill="#575757" d="M91.5,194.1c-0.5,0-1-0.2-1.3-0.5c-0.3-0.3-0.5-0.8-0.5-1.3c0-0.5,0.2-1,0.5-1.3c0.3-0.3,0.7-0.5,1.3-0.5
		c0.6,0,1,0.2,1.3,0.5c0.3,0.3,0.5,0.8,0.5,1.3c0,0.5-0.2,1-0.5,1.3C92.5,193.9,92,194.1,91.5,194.1z M92.4,192.3
		c0-0.3-0.1-0.6-0.2-0.8s-0.3-0.3-0.6-0.3c-0.3,0-0.5,0.1-0.6,0.2c-0.1,0.2-0.2,0.4-0.2,0.7s0.1,0.6,0.2,0.8
		c0.1,0.2,0.3,0.3,0.6,0.3c0.3,0,0.5-0.1,0.6-0.2C92.3,192.9,92.4,192.7,92.4,192.3z"/>
	<path fill="#575757" d="M96,193.9c-0.1,0.1-0.2,0.1-0.3,0.2c-0.1,0-0.3,0.1-0.4,0.1c-0.4,0-0.8-0.1-1-0.3s-0.4-0.5-0.4-0.9v-1.6
		h-0.5v-0.7h0.5v-0.8l0.9-0.2v1h0.6l0.3,0.7h-0.9v1.4c0,0.2,0,0.3,0.1,0.4s0.2,0.2,0.4,0.2c0.1,0,0.1,0,0.2,0s0.1,0,0.2-0.1
		L96,193.9z"/>
	<path fill="#575757" d="M99.7,189.2c0.5,0,0.8,0.1,1.1,0.3c0.3,0.2,0.4,0.5,0.4,1c0,0.2,0,0.3-0.1,0.5c-0.1,0.1-0.2,0.3-0.3,0.4
		c0.2,0.1,0.4,0.3,0.5,0.5s0.2,0.4,0.2,0.7c0,0.4-0.2,0.8-0.5,1s-0.7,0.4-1.2,0.4h-2v-4.8H99.7z M99.5,190h-0.7v1.2h0.7
		c0.3,0,0.4,0,0.6-0.1c0.1-0.1,0.2-0.2,0.2-0.5c0-0.2-0.1-0.4-0.2-0.5C99.9,190,99.8,190,99.5,190z M99.8,191.9h-1v1.3h1
		c0.2,0,0.4-0.1,0.6-0.2c0.1-0.1,0.2-0.3,0.2-0.5c0-0.2-0.1-0.4-0.2-0.5C100.2,192,100.1,191.9,99.8,191.9z"/>
	<path fill="#575757" d="M102.6,189.1c0.1,0,0.3,0,0.4,0.1c0.1,0.1,0.2,0.2,0.2,0.4c0,0.1-0.1,0.3-0.2,0.4c-0.1,0.1-0.2,0.1-0.4,0.1
		c-0.1,0-0.3,0-0.4-0.1c-0.1-0.1-0.1-0.2-0.1-0.4c0-0.1,0-0.3,0.1-0.4C102.3,189.2,102.4,189.1,102.6,189.1z M103,190.6v3.4h-0.9
		v-3.4H103z"/>
	<path fill="#575757" d="M104.9,194.1c-0.4,0-0.7-0.1-0.9-0.3c-0.2-0.2-0.3-0.5-0.3-0.8c0-0.3,0.1-0.6,0.4-0.8
		c0.2-0.2,0.5-0.3,0.9-0.3h0.7c0-0.2-0.1-0.3-0.2-0.4s-0.2-0.1-0.4-0.1c-0.2,0-0.3,0-0.5,0.1c-0.2,0-0.3,0.1-0.5,0.2l-0.2-0.8
		c0.1-0.1,0.3-0.2,0.6-0.2c0.3-0.1,0.5-0.1,0.6-0.1c0.4,0,0.8,0.1,1,0.4c0.3,0.2,0.4,0.5,0.4,0.9v2.2H106l-0.2-0.3
		c-0.1,0.1-0.3,0.2-0.4,0.3C105.2,194.1,105,194.1,104.9,194.1z M104.4,193c0,0.1,0,0.2,0.1,0.3c0.1,0.1,0.2,0.1,0.3,0.1
		c0.1,0,0.3,0,0.4-0.1c0.1-0.1,0.3-0.1,0.4-0.3v-0.5h-0.7c-0.2,0-0.3,0-0.4,0.1C104.4,192.8,104.4,192.9,104.4,193z"/>
	<path fill="#575757" d="M109.2,191.5c-0.2-0.1-0.3-0.1-0.5-0.2c-0.1,0-0.3-0.1-0.4-0.1c-0.1,0-0.2,0-0.3,0.1
		c-0.1,0-0.1,0.1-0.1,0.2c0,0.1,0,0.1,0.1,0.2c0.1,0.1,0.2,0.1,0.4,0.2c0.3,0.1,0.5,0.2,0.8,0.4c0.2,0.2,0.4,0.4,0.4,0.7
		c0,0.3-0.1,0.6-0.4,0.8s-0.6,0.3-1.1,0.3c-0.1,0-0.3,0-0.6-0.1c-0.2-0.1-0.4-0.1-0.6-0.3l0.3-0.7c0.2,0.1,0.3,0.1,0.5,0.2
		c0.2,0,0.3,0.1,0.4,0.1c0.2,0,0.3,0,0.4-0.1c0.1,0,0.1-0.1,0.1-0.2c0-0.1,0-0.2-0.1-0.3c-0.1-0.1-0.2-0.1-0.4-0.2
		c-0.3-0.1-0.5-0.2-0.8-0.4c-0.2-0.2-0.4-0.4-0.4-0.7c0-0.3,0.1-0.6,0.4-0.8c0.2-0.2,0.6-0.3,1-0.3c0.1,0,0.3,0,0.6,0.1
		s0.4,0.1,0.6,0.3L109.2,191.5z"/>
</g>
<g>
	<rect x="42.9" y="69.8" fill="none" width="29.3" height="8.5"/>
	<path fill="#575757" d="M49,70.1c0.3,0,0.7-0.1,1.2-0.1c0.6,0,1,0.1,1.3,0.4c0.3,0.2,0.4,0.6,0.4,1c0,0.4-0.1,0.8-0.4,1
		c-0.3,0.3-0.8,0.5-1.4,0.5c-0.2,0-0.4,0-0.5,0v1.9H49V70.1z M49.6,72.3c0.1,0,0.3,0,0.5,0c0.7,0,1.2-0.4,1.2-1
		c0-0.6-0.4-0.9-1.1-0.9c-0.3,0-0.5,0-0.6,0V72.3z"/>
	<path fill="#575757" d="M55.4,73c0,1.3-0.9,1.8-1.7,1.8c-0.9,0-1.6-0.7-1.6-1.7c0-1.1,0.7-1.8,1.7-1.8C54.7,71.3,55.4,72,55.4,73z
		 M52.7,73c0,0.7,0.4,1.3,1,1.3c0.6,0,1-0.6,1-1.3c0-0.6-0.3-1.3-1-1.3C53,71.7,52.7,72.4,52.7,73z"/>
	<path fill="#575757" d="M56,69.8h0.6v5H56V69.8z"/>
	<path fill="#575757" d="M57.7,71.3l0.7,2c0.1,0.2,0.2,0.5,0.2,0.7h0c0.1-0.2,0.1-0.5,0.2-0.7l0.7-2h0.7l-0.9,2.4
		c-0.4,1.2-0.7,1.8-1.2,2.1c-0.3,0.3-0.6,0.4-0.8,0.4l-0.2-0.5c0.2,0,0.4-0.1,0.5-0.3c0.2-0.1,0.4-0.4,0.5-0.7c0-0.1,0-0.1,0-0.1
		s0-0.1,0-0.2L57,71.3H57.7z"/>
	<path fill="#575757" d="M62.5,70v4.7h-0.6V70H62.5z"/>
	<path fill="#575757" d="M63.4,72.3c0-0.4,0-0.6,0-0.9h0.5l0,0.6h0c0.2-0.3,0.6-0.6,1.1-0.6c0.5,0,1.2,0.3,1.2,1.4v2h-0.6v-2
		c0-0.5-0.2-1-0.8-1c-0.4,0-0.7,0.3-0.8,0.6c0,0.1,0,0.2,0,0.3v2h-0.6V72.3z"/>
</g>
<path id="rect860_00000104668561187876591160000002772902507485636517_" fill="#C3C3C3" d="M82.2,142.5h25.9c1.7,0,3.1,1.4,3.1,3.1
	v7.5c0,1.7-1.4,3.1-3.1,3.1H82.2c-1.7,0-3.1-1.4-3.1-3.1v-7.5C79.1,143.9,80.5,142.5,82.2,142.5z"/>
<rect id="rect872_00000175307983957820127870000016696929086851640736_" x="11.9" y="147.7" fill="#C3C3C3" width="68" height="3.2"/>
<g>
	<rect x="80.5" y="146.1" fill="none" width="29.3" height="8.5"/>
	<path fill="#575757" d="M84.2,146.3h3.8l0.1,0.7h-1.6v4h-0.9v-4h-1.4V146.3z"/>
	<path fill="#575757" d="M90.4,147.6l0.2,0.7c-0.2,0-0.3,0-0.5,0.1c-0.2,0.1-0.4,0.2-0.6,0.4v2.1h-0.9v-3.4H89l0.3,0.5
		c0.1-0.1,0.3-0.2,0.5-0.3C90,147.7,90.2,147.6,90.4,147.6z"/>
	<path fill="#575757" d="M91.3,146.1c0.1,0,0.3,0,0.4,0.1c0.1,0.1,0.2,0.2,0.2,0.4c0,0.1-0.1,0.3-0.2,0.4c-0.1,0.1-0.2,0.1-0.4,0.1
		c-0.1,0-0.3,0-0.4-0.1c-0.1-0.1-0.1-0.2-0.1-0.4c0-0.1,0-0.3,0.1-0.4C91,146.2,91.2,146.1,91.3,146.1z M91.8,147.6v3.4h-0.9v-3.4
		H91.8z"/>
	<path fill="#575757" d="M95.7,147.6v3.4c0,0.4-0.1,0.8-0.4,1c-0.3,0.3-0.7,0.4-1.3,0.4c-0.1,0-0.4,0-0.6-0.1
		c-0.3-0.1-0.5-0.2-0.7-0.3l0.3-0.6c0.2,0.1,0.4,0.2,0.5,0.2c0.1,0,0.3,0.1,0.5,0.1c0.3,0,0.5-0.1,0.6-0.2c0.1-0.1,0.2-0.3,0.2-0.5
		v-0.2c-0.1,0.1-0.3,0.2-0.5,0.2c-0.2,0-0.3,0.1-0.5,0.1c-0.5,0-0.9-0.2-1.1-0.5c-0.3-0.3-0.4-0.8-0.4-1.3c0-0.5,0.1-0.9,0.4-1.3
		c0.3-0.3,0.7-0.5,1.2-0.5c0.2,0,0.4,0,0.6,0.1s0.4,0.2,0.5,0.3l0.2-0.3H95.7z M94.1,148.3c-0.3,0-0.5,0.1-0.7,0.3
		c-0.1,0.2-0.2,0.5-0.2,0.7c0,0.3,0.1,0.5,0.2,0.7c0.1,0.2,0.3,0.3,0.7,0.3c0.1,0,0.2,0,0.3-0.1c0.1,0,0.2-0.1,0.3-0.2v-1.6
		c-0.1-0.1-0.2-0.1-0.3-0.2C94.3,148.3,94.2,148.3,94.1,148.3z"/>
	<path fill="#575757" d="M99.7,147.6v3.4c0,0.4-0.1,0.8-0.4,1c-0.3,0.3-0.7,0.4-1.3,0.4c-0.1,0-0.4,0-0.6-0.1
		c-0.3-0.1-0.5-0.2-0.7-0.3l0.3-0.6c0.2,0.1,0.4,0.2,0.5,0.2c0.1,0,0.3,0.1,0.5,0.1c0.3,0,0.5-0.1,0.6-0.2c0.1-0.1,0.2-0.3,0.2-0.5
		v-0.2c-0.1,0.1-0.3,0.2-0.5,0.2c-0.2,0-0.3,0.1-0.5,0.1c-0.5,0-0.9-0.2-1.1-0.5c-0.3-0.3-0.4-0.8-0.4-1.3c0-0.5,0.1-0.9,0.4-1.3
		c0.3-0.3,0.7-0.5,1.2-0.5c0.2,0,0.4,0,0.6,0.1s0.4,0.2,0.5,0.3l0.2-0.3H99.7z M98.1,148.3c-0.3,0-0.5,0.1-0.7,0.3
		c-0.1,0.2-0.2,0.5-0.2,0.7c0,0.3,0.1,0.5,0.2,0.7c0.1,0.2,0.3,0.3,0.7,0.3c0.1,0,0.2,0,0.3-0.1c0.1,0,0.2-0.1,0.3-0.2v-1.6
		c-0.1-0.1-0.2-0.1-0.3-0.2C98.3,148.3,98.2,148.3,98.1,148.3z"/>
	<path fill="#575757" d="M102.1,151.1c-0.6,0-1.1-0.2-1.4-0.5c-0.3-0.3-0.5-0.8-0.5-1.3c0-0.5,0.2-1,0.5-1.3
		c0.3-0.3,0.7-0.5,1.2-0.5c0.5,0,0.9,0.2,1.2,0.5c0.2,0.4,0.4,0.8,0.4,1.2v0.3h-2.3c0,0.2,0.1,0.4,0.3,0.5c0.2,0.1,0.4,0.2,0.6,0.2
		c0.2,0,0.3,0,0.4-0.1c0.1,0,0.3-0.1,0.4-0.2l0.3,0.7c-0.2,0.1-0.4,0.2-0.6,0.3C102.5,151.1,102.3,151.1,102.1,151.1z M102.6,149
		c0-0.2-0.1-0.4-0.3-0.5c-0.1-0.1-0.3-0.2-0.5-0.2c-0.2,0-0.3,0.1-0.5,0.2c-0.1,0.1-0.2,0.3-0.2,0.5H102.6z"/>
	<path fill="#575757" d="M105.9,147.6l0.2,0.7c-0.2,0-0.3,0-0.5,0.1c-0.2,0.1-0.4,0.2-0.6,0.4v2.1H104v-3.4h0.5l0.3,0.5
		c0.1-0.1,0.3-0.2,0.5-0.3C105.5,147.7,105.7,147.6,105.9,147.6z"/>
</g>
<path id="rect940_00000033349108354286466000000017556608275812237993_" fill="#C3C3C3" d="M53.9,304.2h7.4
	c5.8,0,10.5,4.7,10.5,10.5v7.8c0,5.8-4.7,10.5-10.5,10.5h-7.4c-5.8,0-10.5-4.7-10.5-10.5v-7.8C43.4,308.9,48.1,304.2,53.9,304.2z"/>
<g>
	<rect x="41.9" y="297.2" fill="none" width="31.4" height="8.5"/>
	<path fill="#575757" d="M44.5,298.2L44.5,298.2l-0.8,0.4l-0.1-0.5l1-0.5h0.5v4.6h-0.6V298.2z"/>
	<path fill="#575757" d="M47,298.8l0.7,1.9c0.1,0.3,0.2,0.6,0.3,0.9h0c0.1-0.3,0.2-0.6,0.3-0.9l0.7-1.9h0.6l-1.3,3.4h-0.6l-1.3-3.4
		H47z"/>
	<path fill="#575757" d="M49.4,302.5l2-5.1h0.5l-2,5.1H49.4z"/>
	<path fill="#575757" d="M55.2,300.5c0,1.3-0.9,1.8-1.7,1.8c-0.9,0-1.6-0.7-1.6-1.7c0-1.1,0.7-1.8,1.7-1.8
		C54.6,298.7,55.2,299.4,55.2,300.5z M52.5,300.5c0,0.7,0.4,1.3,1,1.3c0.6,0,1-0.6,1-1.3c0-0.6-0.3-1.3-1-1.3
		C52.9,299.2,52.5,299.9,52.5,300.5z"/>
	<path fill="#575757" d="M58.2,302.1c-0.2,0.1-0.5,0.2-1,0.2c-1,0-1.7-0.7-1.7-1.7c0-1,0.7-1.8,1.8-1.8c0.4,0,0.7,0.1,0.9,0.2
		l-0.1,0.5c-0.1-0.1-0.4-0.2-0.7-0.2c-0.8,0-1.2,0.6-1.2,1.3c0,0.8,0.5,1.3,1.2,1.3c0.3,0,0.6-0.1,0.8-0.2L58.2,302.1z"/>
	<path fill="#575757" d="M59.6,297.8v1h0.9v0.5h-0.9v1.8c0,0.4,0.1,0.7,0.5,0.7c0.2,0,0.3,0,0.4,0l0,0.5c-0.1,0-0.3,0.1-0.5,0.1
		c-0.3,0-0.5-0.1-0.7-0.3c-0.2-0.2-0.2-0.5-0.2-0.9v-1.8h-0.5v-0.5H59V298L59.6,297.8z"/>
	<path fill="#575757" d="M66.4,299.8c0,1.6-1,2.5-2.2,2.5c-1.2,0-2.1-1-2.1-2.4c0-1.5,0.9-2.5,2.2-2.5
		C65.5,297.4,66.4,298.4,66.4,299.8z M62.7,299.9c0,1,0.5,1.9,1.5,1.9c1,0,1.5-0.9,1.5-2c0-0.9-0.5-1.9-1.5-1.9
		C63.2,297.9,62.7,298.8,62.7,299.9z"/>
	<path fill="#575757" d="M69.8,301.3c0,0.3,0,0.7,0,0.9h-0.5l0-0.6h0c-0.2,0.3-0.5,0.6-1.1,0.6c-0.5,0-1.2-0.3-1.2-1.5v-2h0.6v1.9
		c0,0.6,0.2,1.1,0.8,1.1c0.4,0,0.7-0.3,0.8-0.6c0-0.1,0.1-0.2,0.1-0.3v-2.1h0.6V301.3z"/>
	<path fill="#575757" d="M71.4,297.8v1h0.9v0.5h-0.9v1.8c0,0.4,0.1,0.7,0.5,0.7c0.2,0,0.3,0,0.4,0l0,0.5c-0.1,0-0.3,0.1-0.5,0.1
		c-0.3,0-0.5-0.1-0.7-0.3c-0.2-0.2-0.2-0.5-0.2-0.9v-1.8h-0.5v-0.5h0.5V298L71.4,297.8z"/>
</g>
<path id="rect860_00000178197275544551504170000007095898295472299153_" fill="#C3C3C3" d="M82.2,229.2h25.9c1.7,0,3.1,1.4,3.1,3.1
	v7.5c0,1.7-1.4,3.1-3.1,3.1H82.2c-1.7,0-3.1-1.4-3.1-3.1v-7.5C79.1,230.5,80.5,229.2,82.2,229.2z"/>
<rect id="rect872_00000128472196767509371230000004935863919937882548_" x="11.9" y="234.4" fill="#C3C3C3" width="68" height="3.2"/>
<g>
	<rect x="80.5" y="232.8" fill="none" width="29.3" height="8.5"/>
	<path fill="#575757" d="M88.9,237.7l-1-1.8c-0.1,0-0.1,0-0.2,0c-0.1,0-0.1,0-0.2,0H87v1.8h-0.9V233h1.5c0.5,0,1,0.1,1.3,0.4
		s0.6,0.6,0.6,1.1c0,0.3-0.1,0.5-0.2,0.8c-0.2,0.2-0.3,0.4-0.6,0.5l1.2,2H88.9z M87.6,233.7H87v1.5h0.6c0.3,0,0.5-0.1,0.7-0.2
		s0.3-0.3,0.3-0.5c0-0.3-0.1-0.5-0.3-0.6C88.1,233.8,87.9,233.7,87.6,233.7z"/>
	<path fill="#575757" d="M91.3,237.8c-0.4,0-0.7-0.1-0.9-0.3c-0.2-0.2-0.3-0.5-0.3-0.8c0-0.3,0.1-0.6,0.4-0.8
		c0.2-0.2,0.5-0.3,0.9-0.3H92c0-0.2-0.1-0.3-0.2-0.4s-0.2-0.1-0.4-0.1c-0.2,0-0.3,0-0.5,0.1c-0.2,0-0.3,0.1-0.5,0.2l-0.2-0.8
		c0.1-0.1,0.3-0.2,0.6-0.2c0.3-0.1,0.5-0.1,0.6-0.1c0.4,0,0.8,0.1,1,0.4c0.3,0.2,0.4,0.5,0.4,0.9v2.2h-0.5l-0.2-0.3
		c-0.1,0.1-0.3,0.2-0.4,0.3C91.6,237.8,91.4,237.8,91.3,237.8z M90.8,236.7c0,0.1,0,0.2,0.1,0.3c0.1,0.1,0.2,0.1,0.3,0.1
		c0.1,0,0.3,0,0.4-0.1c0.1-0.1,0.3-0.1,0.4-0.3v-0.5h-0.7c-0.2,0-0.3,0-0.4,0.1C90.9,236.5,90.8,236.6,90.8,236.7z"/>
	<path fill="#575757" d="M94.3,234.7c0.2-0.2,0.3-0.3,0.6-0.4c0.2-0.1,0.4-0.1,0.6-0.1c0.5,0,0.8,0.1,1,0.4s0.3,0.6,0.3,1v2.1h-0.9
		v-2.1c0-0.2-0.1-0.4-0.2-0.5s-0.3-0.2-0.4-0.2c-0.1,0-0.3,0-0.4,0.1c-0.1,0.1-0.3,0.1-0.4,0.2v2.4h-0.9v-3.4H94L94.3,234.7z"/>
	<path fill="#575757" d="M100.7,234.3v3.4c0,0.4-0.1,0.8-0.4,1c-0.3,0.3-0.7,0.4-1.3,0.4c-0.1,0-0.4,0-0.6-0.1
		c-0.3-0.1-0.5-0.2-0.7-0.3l0.3-0.6c0.2,0.1,0.4,0.2,0.5,0.2s0.3,0.1,0.5,0.1c0.3,0,0.5-0.1,0.6-0.2c0.1-0.1,0.2-0.3,0.2-0.5v-0.2
		c-0.1,0.1-0.3,0.2-0.5,0.2c-0.2,0-0.3,0.1-0.5,0.1c-0.5,0-0.9-0.2-1.1-0.5c-0.3-0.3-0.4-0.8-0.4-1.3c0-0.5,0.1-0.9,0.4-1.3
		c0.3-0.3,0.7-0.5,1.2-0.5c0.2,0,0.4,0,0.6,0.1s0.4,0.2,0.5,0.3l0.2-0.3H100.7z M99.1,235c-0.3,0-0.5,0.1-0.7,0.3
		c-0.1,0.2-0.2,0.5-0.2,0.7c0,0.3,0.1,0.5,0.2,0.7c0.1,0.2,0.3,0.3,0.7,0.3c0.1,0,0.2,0,0.3-0.1c0.1,0,0.2-0.1,0.3-0.2v-1.6
		c-0.1-0.1-0.2-0.1-0.3-0.2C99.3,235,99.2,235,99.1,235z"/>
	<path fill="#575757" d="M103.2,237.8c-0.6,0-1.1-0.2-1.4-0.5c-0.3-0.3-0.5-0.8-0.5-1.3s0.2-1,0.5-1.3c0.3-0.3,0.7-0.5,1.2-0.5
		c0.5,0,0.9,0.2,1.2,0.5c0.2,0.4,0.4,0.8,0.4,1.2v0.3h-2.3c0,0.2,0.1,0.4,0.3,0.5c0.2,0.1,0.4,0.2,0.6,0.2c0.2,0,0.3,0,0.4-0.1
		c0.1,0,0.3-0.1,0.4-0.2l0.3,0.7c-0.2,0.1-0.4,0.2-0.6,0.3C103.5,237.8,103.3,237.8,103.2,237.8z M103.7,235.7
		c0-0.2-0.1-0.4-0.3-0.5c-0.1-0.1-0.3-0.2-0.5-0.2c-0.2,0-0.3,0.1-0.5,0.2c-0.1,0.1-0.2,0.3-0.2,0.5H103.7z"/>
</g>
<g>
	<path d="M27.7,31c0.3-0.1,0.6-0.1,1-0.1c0.6,0,0.9,0.1,1.2,0.3c0.2,0.2,0.3,0.5,0.3,0.8c0,0.5-0.3,0.9-0.8,1v0
		c0.3,0.1,0.5,0.4,0.6,0.8c0.1,0.6,0.2,1,0.3,1.1h-0.5c-0.1-0.1-0.2-0.5-0.3-1c-0.1-0.6-0.3-0.8-0.8-0.8h-0.5v1.8h-0.5V31z
		 M28.3,32.8h0.5c0.6,0,0.9-0.3,0.9-0.8c0-0.5-0.4-0.7-0.9-0.8c-0.3,0-0.4,0-0.5,0V32.8z"/>
	<path d="M32.6,34.9l0-0.4h0c-0.2,0.2-0.5,0.4-0.9,0.4c-0.6,0-0.9-0.4-0.9-0.8c0-0.7,0.6-1.1,1.7-1.1V33c0-0.2-0.1-0.7-0.7-0.7
		c-0.3,0-0.6,0.1-0.8,0.2L31,32.2c0.2-0.2,0.6-0.3,1-0.3c0.9,0,1.1,0.6,1.1,1.2v1.1c0,0.3,0,0.5,0,0.7H32.6z M32.5,33.5
		c-0.6,0-1.2,0.1-1.2,0.7c0,0.3,0.2,0.5,0.5,0.5c0.4,0,0.6-0.2,0.7-0.5c0-0.1,0-0.1,0-0.2V33.5z"/>
	<path d="M33.9,32.8c0-0.3,0-0.5,0-0.8h0.5l0,0.5h0c0.1-0.3,0.5-0.5,1-0.5c0.4,0,1,0.2,1,1.2v1.7h-0.5v-1.7c0-0.5-0.2-0.9-0.7-0.9
		c-0.3,0-0.6,0.2-0.7,0.5c0,0.1,0,0.2,0,0.2v1.7h-0.5V32.8z"/>
	<path d="M39.7,30.7v3.5c0,0.3,0,0.6,0,0.7h-0.5l0-0.5h0c-0.2,0.3-0.5,0.6-1,0.6c-0.7,0-1.2-0.6-1.2-1.5c0-1,0.6-1.6,1.3-1.6
		c0.4,0,0.7,0.2,0.9,0.4h0v-1.7H39.7z M39.2,33.2c0-0.1,0-0.2,0-0.2c-0.1-0.3-0.4-0.6-0.8-0.6c-0.5,0-0.9,0.5-0.9,1.1
		c0,0.6,0.3,1.1,0.9,1.1c0.4,0,0.7-0.2,0.8-0.6c0-0.1,0-0.1,0-0.2V33.2z"/>
	<path d="M43.2,33.5c0,1.1-0.7,1.5-1.4,1.5c-0.8,0-1.4-0.6-1.4-1.5c0-1,0.6-1.5,1.4-1.5C42.7,32,43.2,32.6,43.2,33.5z M40.9,33.5
		c0,0.6,0.4,1.1,0.9,1.1c0.5,0,0.9-0.5,0.9-1.1c0-0.5-0.2-1.1-0.9-1.1C41.2,32.4,40.9,32.9,40.9,33.5z"/>
	<path d="M43.9,32.8c0-0.3,0-0.5,0-0.8h0.5l0,0.5h0c0.2-0.3,0.4-0.5,0.9-0.5c0.4,0,0.7,0.2,0.8,0.6h0c0.1-0.2,0.2-0.3,0.3-0.4
		c0.2-0.1,0.4-0.2,0.6-0.2c0.4,0,1,0.3,1,1.3v1.7h-0.5v-1.6c0-0.6-0.2-0.9-0.6-0.9c-0.3,0-0.5,0.2-0.6,0.5c0,0.1,0,0.2,0,0.3v1.8
		h-0.5v-1.7c0-0.5-0.2-0.8-0.6-0.8c-0.3,0-0.6,0.3-0.7,0.5c0,0.1,0,0.2,0,0.3v1.8h-0.5V32.8z"/>
	<path d="M50.2,34.9v-4h0.6l1.3,2c0.3,0.5,0.5,0.9,0.7,1.3l0,0c0-0.5-0.1-1-0.1-1.7v-1.7h0.5v4h-0.5l-1.3-2.1
		c-0.3-0.4-0.6-0.9-0.8-1.3l0,0c0,0.5,0,1,0,1.7v1.7H50.2z"/>
	<path d="M56.8,33.5c0,1.1-0.7,1.5-1.4,1.5c-0.8,0-1.4-0.6-1.4-1.5c0-1,0.6-1.5,1.4-1.5C56.2,32,56.8,32.6,56.8,33.5z M54.5,33.5
		c0,0.6,0.4,1.1,0.9,1.1c0.5,0,0.9-0.5,0.9-1.1c0-0.5-0.2-1.1-0.9-1.1C54.7,32.4,54.5,32.9,54.5,33.5z"/>
	<path d="M58.1,31.2V32h0.8v0.4h-0.8V34c0,0.4,0.1,0.6,0.4,0.6c0.1,0,0.2,0,0.3,0l0,0.4c-0.1,0-0.3,0.1-0.5,0.1
		c-0.2,0-0.4-0.1-0.6-0.2c-0.2-0.2-0.2-0.4-0.2-0.8v-1.6h-0.4V32h0.4v-0.7L58.1,31.2z"/>
	<path d="M59.7,33.6c0,0.7,0.5,1,1,1c0.4,0,0.6-0.1,0.8-0.1l0.1,0.4c-0.2,0.1-0.5,0.2-1,0.2c-0.9,0-1.4-0.6-1.4-1.5s0.5-1.6,1.4-1.6
		c0.9,0,1.2,0.8,1.2,1.4c0,0.1,0,0.2,0,0.2H59.7z M61.2,33.2c0-0.3-0.1-0.9-0.7-0.9c-0.5,0-0.8,0.5-0.8,0.9H61.2z"/>
	<path d="M66.8,34.8c-0.2,0.1-0.7,0.2-1.2,0.2c-0.6,0-1.1-0.2-1.5-0.5c-0.3-0.3-0.6-0.9-0.6-1.5c0-1.2,0.8-2.1,2.2-2.1
		c0.5,0,0.8,0.1,1,0.2l-0.1,0.4c-0.2-0.1-0.5-0.2-0.9-0.2c-1,0-1.6,0.6-1.6,1.6c0,1,0.6,1.6,1.6,1.6c0.3,0,0.6,0,0.7-0.1v-1.2h-0.8
		v-0.4h1.3V34.8z"/>
	<path d="M67.9,33.6c0,0.7,0.5,1,1,1c0.4,0,0.6-0.1,0.8-0.1l0.1,0.4c-0.2,0.1-0.5,0.2-1,0.2c-0.9,0-1.4-0.6-1.4-1.5s0.5-1.6,1.4-1.6
		c0.9,0,1.2,0.8,1.2,1.4c0,0.1,0,0.2,0,0.2H67.9z M69.4,33.2c0-0.3-0.1-0.9-0.7-0.9c-0.5,0-0.8,0.5-0.8,0.9H69.4z"/>
	<path d="M70.6,32.8c0-0.3,0-0.5,0-0.8H71l0,0.5h0c0.1-0.3,0.5-0.5,1-0.5c0.4,0,1,0.2,1,1.2v1.7h-0.5v-1.7c0-0.5-0.2-0.9-0.7-0.9
		c-0.3,0-0.6,0.2-0.7,0.5c0,0.1,0,0.2,0,0.2v1.7h-0.5V32.8z"/>
	<path d="M74.2,33.6c0,0.7,0.5,1,1,1c0.4,0,0.6-0.1,0.8-0.1l0.1,0.4c-0.2,0.1-0.5,0.2-1,0.2c-0.9,0-1.4-0.6-1.4-1.5S74.2,32,75,32
		c0.9,0,1.2,0.8,1.2,1.4c0,0.1,0,0.2,0,0.2H74.2z M75.7,33.2c0-0.3-0.1-0.9-0.7-0.9c-0.5,0-0.8,0.5-0.8,0.9H75.7z"/>
	<path d="M76.9,32.9c0-0.3,0-0.6,0-0.9h0.5l0,0.6h0c0.1-0.4,0.4-0.6,0.8-0.6c0.1,0,0.1,0,0.2,0v0.5c-0.1,0-0.1,0-0.2,0
		c-0.4,0-0.6,0.3-0.7,0.7c0,0.1,0,0.2,0,0.2v1.5h-0.5V32.9z"/>
	<path d="M80.4,34.9l0-0.4h0c-0.2,0.2-0.5,0.4-0.9,0.4c-0.6,0-0.9-0.4-0.9-0.8c0-0.7,0.6-1.1,1.7-1.1V33c0-0.2-0.1-0.7-0.7-0.7
		c-0.3,0-0.6,0.1-0.8,0.2l-0.1-0.3c0.2-0.2,0.6-0.3,1-0.3c0.9,0,1.1,0.6,1.1,1.2v1.1c0,0.3,0,0.5,0,0.7H80.4z M80.4,33.5
		c-0.6,0-1.2,0.1-1.2,0.7c0,0.3,0.2,0.5,0.5,0.5c0.4,0,0.6-0.2,0.7-0.5c0-0.1,0-0.1,0-0.2V33.5z"/>
	<path d="M82.3,31.2V32h0.8v0.4h-0.8V34c0,0.4,0.1,0.6,0.4,0.6c0.1,0,0.2,0,0.3,0l0,0.4C83,35,82.8,35,82.6,35
		c-0.2,0-0.4-0.1-0.6-0.2c-0.2-0.2-0.2-0.4-0.2-0.8v-1.6h-0.4V32h0.4v-0.7L82.3,31.2z"/>
	<path d="M86.3,33.5c0,1.1-0.7,1.5-1.4,1.5c-0.8,0-1.4-0.6-1.4-1.5c0-1,0.6-1.5,1.4-1.5C85.7,32,86.3,32.6,86.3,33.5z M84,33.5
		c0,0.6,0.4,1.1,0.9,1.1c0.5,0,0.9-0.5,0.9-1.1c0-0.5-0.2-1.1-0.9-1.1C84.2,32.4,84,32.9,84,33.5z"/>
	<path d="M86.9,32.9c0-0.3,0-0.6,0-0.9h0.5l0,0.6h0c0.1-0.4,0.4-0.6,0.8-0.6c0.1,0,0.1,0,0.2,0v0.5c-0.1,0-0.1,0-0.2,0
		c-0.4,0-0.6,0.3-0.7,0.7c0,0.1,0,0.2,0,0.2v1.5h-0.5V32.9z"/>
</g>
</svg>
