<?xml version="1.0" encoding="utf-8"?>
<!-- Generator: Adobe Illustrator 25.4.1, SVG Export Plug-In . SVG Version: 6.00 Build 0)  -->
<svg version="1.1"
	 id="svg8" inkscape:version="0.92.4 (5da689c313, 2019-01-14)" sodipodi:docname="ChordCV.svg" xmlns:cc="http://creativecommons.org/ns#" xmlns:dc="http://purl.org/dc/elements/1.1/" xmlns:inkscape="http://www.inkscape.org/namespaces/inkscape" xmlns:rdf="http://www.w3.org/1999/02/22-rdf-syntax-ns#" xmlns:sodipodi="http://sodipodi.sourceforge.net/DTD/sodipodi-0.dtd" xmlns:svg="http://www.w3.org/2000/svg"
	 xmlns="http://www.w3.org/2000/svg" xmlns:xlink="http://www.w3.org/1999/xlink" x="0px" y="0px" width="40.639999mm" height="128.55mm"
	 viewBox="0 0 115.2 364.4" enable-background="new 0 0 115.2 364.4" xml:space="preserve">
<sodipodi:namedview  bordercolor="#666666" borderopacity="1.0" id="base" inkscape:current-layer="layer6" inkscape:cx="88.019841" inkscape:cy="218.56238" inkscape:document-units="mm" inkscape:pageopacity="0.0" inkscape:pageshadow="2" inkscape:window-height="976" inkscape:window-maximized="0" inkscape:window-width="1457" inkscape:window-x="3014" inkscape:window-y="198" inkscape:zoom="1.979899" pagecolor="#ffffff" showgrid="false">
	</sodipodi:namedview>
<g id="layer3" inkscape:groupmode="layer" inkscape:label="BG">
	<rect id="rect4608" fill="#F2F2F2" width="115.2" height="364.4"/>
</g>
<path id="rect940" fill="#FC8701" d="M53.9,302.8h7.4c5.8,0,10.5,4.7,10.5,10.5v7.8c0,5.8-4.7,10.5-10.5,10.5h-7.4
	c-5.8,0-10.5-4.7-10.5-10.5v-7.8C43.4,307.5,48.1,302.8,53.9,302.8z"/>
<path id="rect860" fill="#C3C3C3" d="M82.6,84.5h25.9c1.7,0,3.1,1.4,3.1,3.1V95c0,1.7-1.4,3.1-3.1,3.1H82.6c-1.7,0-3.1-1.4-3.1-3.1
	v-7.5C79.5,85.8,80.9,84.5,82.6,84.5z"/>
<g id="text864" transform="matrix(1.0399824,0,0,0.96155473,0,-0.1889881)">
	<path id="path943" inkscape:connector-curvature="0" fill="#575757" d="M84.4,95.9H83v2.8h-1.2v-7.2h2.5c0.8,0,1.5,0.2,1.9,0.6
		c0.4,0.4,0.7,0.9,0.7,1.6c0,0.5-0.1,0.9-0.3,1.2c-0.2,0.3-0.6,0.6-1,0.7l1.6,3v0.1h-1.3L84.4,95.9z M83,94.9h1.3
		c0.4,0,0.7-0.1,1-0.3c0.2-0.2,0.4-0.5,0.4-0.9c0-0.4-0.1-0.7-0.3-0.9c-0.2-0.2-0.5-0.3-1-0.3H83L83,94.9z"/>
	<path id="path945" inkscape:connector-curvature="0" fill="#575757" d="M87.7,96c0-0.5,0.1-1,0.3-1.4c0.2-0.4,0.5-0.7,0.9-1
		c0.4-0.2,0.8-0.3,1.3-0.3c0.7,0,1.3,0.2,1.7,0.7c0.4,0.5,0.7,1.1,0.7,1.8l0,0.3c0,0.5-0.1,1-0.3,1.4c-0.2,0.4-0.5,0.7-0.9,1
		c-0.4,0.2-0.8,0.3-1.3,0.3c-0.8,0-1.4-0.2-1.8-0.7C88,97.5,87.7,96.9,87.7,96L87.7,96z M88.9,96.1c0,0.5,0.1,1,0.3,1.3
		c0.2,0.3,0.5,0.5,0.9,0.5c0.4,0,0.7-0.2,0.9-0.5c0.2-0.3,0.3-0.8,0.3-1.4c0-0.5-0.1-1-0.3-1.3c-0.2-0.3-0.5-0.5-0.9-0.5
		c-0.4,0-0.7,0.2-0.9,0.5C89,95,88.9,95.4,88.9,96.1z"/>
	<path id="path947" inkscape:connector-curvature="0" fill="#575757" d="M93.5,96c0-0.5,0.1-1,0.3-1.4c0.2-0.4,0.5-0.7,0.9-1
		c0.4-0.2,0.8-0.3,1.3-0.3c0.7,0,1.3,0.2,1.7,0.7c0.4,0.5,0.7,1.1,0.7,1.8l0,0.3c0,0.5-0.1,1-0.3,1.4c-0.2,0.4-0.5,0.7-0.9,1
		c-0.4,0.2-0.8,0.3-1.3,0.3c-0.8,0-1.4-0.2-1.8-0.7C93.7,97.5,93.5,96.9,93.5,96L93.5,96z M94.7,96.1c0,0.5,0.1,1,0.3,1.3
		c0.2,0.3,0.5,0.5,0.9,0.5s0.7-0.2,0.9-0.5c0.2-0.3,0.3-0.8,0.3-1.4c0-0.5-0.1-1-0.3-1.3c-0.2-0.3-0.5-0.5-0.9-0.5
		c-0.4,0-0.7,0.2-0.9,0.5C94.8,95,94.7,95.4,94.7,96.1z"/>
	<path id="path949" inkscape:connector-curvature="0" fill="#575757" d="M101,92.1v1.3h0.9v0.9H101v3c0,0.2,0,0.4,0.1,0.4
		c0.1,0.1,0.2,0.1,0.4,0.1c0.1,0,0.3,0,0.4,0v0.9c-0.3,0.1-0.5,0.1-0.8,0.1c-0.9,0-1.4-0.5-1.4-1.5v-3h-0.9v-0.9h0.9v-1.3L101,92.1z
		"/>
</g>
<rect id="rect872" x="12.3" y="89.7" fill="#C3C3C3" width="68" height="3.2"/>
<path id="rect860-2" fill="#C3C3C3" d="M82.6,127.4h25.9c1.7,0,3.1,1.4,3.1,3.1v7.5c0,1.7-1.4,3.1-3.1,3.1H82.6
	c-1.7,0-3.1-1.4-3.1-3.1v-7.5C79.5,128.8,80.9,127.4,82.6,127.4z"/>
<rect id="rect872-2" x="12.3" y="132.6" fill="#C3C3C3" width="68" height="3.2"/>
<g id="g857" inkscape:groupmode="layer" inkscape:label="Type">
</g>
<g id="text4624" transform="matrix(1.2451884,0,0,1.2451884,-4.9822279,-72.597247)">
	<path id="path838" inkscape:connector-curvature="0" fill="#4E4E4E" d="M23.9,331.2v5.3l-1.4,0v-1.2l-0.7,0.7
		c-0.4,0.4-0.9,0.5-1.5,0.5c-0.6,0-1.1-0.2-1.5-0.6c0,0-0.2-0.2-0.4-0.4c-0.4-0.4-0.6-0.9-0.6-1.5c0-0.7,0.2-1.2,0.5-1.5l1-1h1.9
		l-1.8,1.9c-0.2,0.2-0.3,0.4-0.3,0.6c0,0.3,0.1,0.5,0.3,0.6c0.2,0.2,0.3,0.3,0.4,0.4c0.2,0.1,0.4,0.2,0.6,0.2c0.3,0,0.5-0.1,0.6-0.3
		l1.5-1.6v-2.2h-4.1c0-0.8,0.5-1.3,1.4-1.4h2.8C23.4,329.9,23.9,330.3,23.9,331.2L23.9,331.2z"/>
	<path id="path840" inkscape:connector-curvature="0" fill="#4E4E4E" d="M30.3,331.2v5.3l-1.4,0v-1.2l-0.7,0.7
		c-0.4,0.4-0.9,0.5-1.5,0.5c-0.6,0-1.1-0.2-1.5-0.6c0,0-0.2-0.2-0.4-0.4c-0.4-0.4-0.6-0.9-0.6-1.5c0-0.7,0.2-1.2,0.5-1.5l1-1h1.9
		l-1.8,1.9c-0.2,0.2-0.3,0.4-0.3,0.6c0,0.3,0.1,0.5,0.3,0.6c0.2,0.2,0.3,0.3,0.4,0.4c0.2,0.1,0.4,0.2,0.6,0.2c0.3,0,0.5-0.1,0.6-0.3
		l1.5-1.6v-2.2h-4.1c0-0.8,0.5-1.3,1.4-1.4H29C29.8,329.9,30.3,330.3,30.3,331.2L30.3,331.2z"/>
	<path id="path842" inkscape:connector-curvature="0" fill="#4E4E4E" d="M36.3,333.9l-1.1,1.1l1.7,1.6H35l-1.7-1.5v-1.9l0.9,0.9l1-1
		c0.2-0.2,0.3-0.4,0.3-0.6s-0.1-0.5-0.3-0.6c0,0-0.1-0.1-0.4-0.4c-0.2-0.1-0.4-0.2-0.6-0.2c-0.2,0-0.5,0.1-0.6,0.3l-1.5,1.6v3.5
		h-1.4v-6.6h1.4v1.2l0.7-0.7c0.4-0.4,0.8-0.5,1.4-0.5c0.6,0,1.1,0.2,1.6,0.6c0,0,0.2,0.1,0.4,0.4c0.4,0.4,0.6,0.9,0.6,1.5
		C36.9,332.9,36.7,333.4,36.3,333.9L36.3,333.9z"/>
	<path id="path844" inkscape:connector-curvature="0" fill="#4E4E4E" d="M40.8,335c-0.2,0.2-0.4,0.3-0.6,0.3c-0.2,0-0.4-0.1-0.6-0.3
		c0,0-0.4-0.3-1.1-1v-1.9c0-0.2,0.1-0.4,0.3-0.6c0.2-0.2,0.4-0.3,0.6-0.3c0,0,0.5,0,1.5,0c0.3,0,0.6,0.2,0.7,0.4c0,0,0,0,0,0
		c0.1,0.2,0.1,0.4,0.1,0.5v1.9C41.4,334.4,41.1,334.7,40.8,335L40.8,335z M43.1,332L43.1,332c0-0.2,0-0.3-0.1-0.4
		c0-0.1-0.1-0.3-0.2-0.5c-0.1-0.2-0.2-0.3-0.2-0.3c-0.5-0.6-1-0.9-1.7-0.9h-1.5c-0.5,0-1,0.2-1.4,0.5c-0.5,0.4-0.8,1-0.8,1.5l0,0
		v2.7l1.5,1.4c0.4,0.4,0.9,0.6,1.5,0.6c0.6,0,1.1-0.2,1.5-0.5v0l1.5-1.4V332z"/>
	<path id="path846" inkscape:connector-curvature="0" fill="#4E4E4E" d="M44.8,336.5h-1.4v-6.6h1.4V336.5z M48.2,336.5v-4.4
		c0-0.1-0.1-0.3-0.2-0.4c-0.2-0.2-0.4-0.3-0.5-0.5c-0.2-0.1-0.3-0.2-0.5-0.2s-0.4,0.1-0.6,0.2l-1.3,1v-1.6c0.4-0.6,1-0.9,1.7-1
		c0.7,0,1.3,0.2,1.8,0.7c0.3,0.3,0.5,0.5,0.6,0.6c0.2,0.3,0.3,0.7,0.3,1v4.4L48.2,336.5z"/>
	<path id="path848" inkscape:connector-curvature="0" fill="#4E4E4E" d="M53,334.2v-1.9l2.7,2.7c0.2,0.2,0.4,0.3,0.6,0.3
		c0.2,0,0.4-0.1,0.6-0.2l0.4-0.4c0.2-0.2,0.2-0.3,0.2-0.5c0-0.3-0.2-0.7-0.5-1l-1.8-1.8h1.9l1.3,1.3c0.4,0.5,0.6,1,0.6,1.6
		c0,0.6-0.2,1.1-0.6,1.5c-0.3,0.3-0.4,0.4-0.4,0.4c-0.4,0.4-0.9,0.6-1.5,0.6c-0.6,0-1-0.2-1.5-0.5l0,0L53,334.2z M55.2,329.9
		c-0.1,0.1-0.2,0.2-0.3,0.3c-0.1,0.2-0.2,0.3-0.2,0.6c0,0.2,0.1,0.5,0.3,0.6l1.2,1.2h-1.9l-0.4-0.4c-0.4-0.4-0.5-0.8-0.5-1.4
		c0-0.3,0.1-0.6,0.2-0.9L55.2,329.9z"/>
	<path id="path850" inkscape:connector-curvature="0" fill="#4E4E4E" d="M60.6,331.2v-1.3h2.8v1.3H60.6z M60.4,328.5v5.8
		c0,0.1,0.1,0.3,0.2,0.4c0.2,0.2,0.3,0.3,0.5,0.5c0.2,0.1,0.3,0.2,0.5,0.2s0.4-0.1,0.6-0.2l1.3-1v1.6c-0.4,0.6-1,0.9-1.7,1
		c-0.7,0-1.3-0.2-1.8-0.7c-0.3-0.4-0.5-0.6-0.6-0.6c-0.2-0.3-0.3-0.6-0.3-1v-5.8L60.4,328.5z"/>
	<path id="path852" inkscape:connector-curvature="0" fill="#4E4E4E" d="M69.8,331.2v5.3l-1.4,0v-1.2l-0.7,0.7
		c-0.4,0.4-0.9,0.5-1.5,0.5c-0.6,0-1.1-0.2-1.5-0.6c0,0-0.2-0.2-0.4-0.4c-0.4-0.4-0.6-0.9-0.6-1.5c0-0.7,0.2-1.2,0.5-1.5l1-1h1.9
		l-1.8,1.9c-0.2,0.2-0.3,0.4-0.3,0.6c0,0.3,0.1,0.5,0.3,0.6c0.2,0.2,0.3,0.3,0.4,0.4c0.2,0.1,0.4,0.2,0.6,0.2c0.3,0,0.5-0.1,0.6-0.3
		l1.5-1.6v-2.2h-4.1c0-0.8,0.5-1.3,1.4-1.4h2.8C69.3,329.9,69.8,330.3,69.8,331.2L69.8,331.2z"/>
	<path id="path854" inkscape:connector-curvature="0" fill="#4E4E4E" d="M71.7,331.2v-1.3h2.8v1.3H71.7z M71.5,328.5v5.8
		c0,0.1,0.1,0.3,0.2,0.4c0.2,0.2,0.3,0.3,0.5,0.5c0.2,0.1,0.3,0.2,0.5,0.2c0.2,0,0.4-0.1,0.6-0.2l1.3-1v1.6c-0.4,0.6-1,0.9-1.7,1
		c-0.7,0-1.3-0.2-1.8-0.7c-0.3-0.4-0.5-0.6-0.6-0.6c-0.2-0.3-0.3-0.6-0.3-1v-5.8L71.5,328.5z"/>
	<path id="path856" inkscape:connector-curvature="0" fill="#4E4E4E" d="M76.4,329.9v6.6H75v-6.6H76.4z"/>
	<path id="path858" inkscape:connector-curvature="0" fill="#4E4E4E" d="M82.7,333v1.7l-1.5,1.4c-0.4,0.4-0.9,0.5-1.5,0.5
		c-0.6,0-1.1-0.2-1.6-0.6c0,0-0.1-0.1-0.2-0.2h0l-1.2-1.2V332c0-0.6,0.3-1,0.7-1.4c0.4-0.4,0.9-0.6,1.5-0.6c0,0,0.5,0,1.5,0
		c0.6,0,1.1,0.2,1.5,0.6c0.4,0.4,0.7,0.8,0.7,1.2h-1.4c-0.2-0.3-0.4-0.5-0.8-0.5c-1,0-1.5,0-1.5,0c-0.2,0-0.4,0.1-0.6,0.3
		c-0.2,0.2-0.3,0.4-0.3,0.6v1.9l1,0.9c0.1,0.1,0.1,0.1,0.1,0.2c0.2,0.2,0.4,0.2,0.6,0.2c0.2,0,0.4-0.1,0.6-0.3
		C80.9,334.6,81.7,333.9,82.7,333L82.7,333z"/>
</g>
<g id="layer2" transform="translate(0,-3.0517578e-6)" inkscape:groupmode="layer" inkscape:label="components" display="none">
	<circle id="path3718" inkscape:label="ROOT_PARAM" display="inline" fill="#FF0000" cx="57.6" cy="72.7" r="18.2">
	</circle>
	<circle id="path4571" inkscape:label="CVOUT1_OUTPUT" display="inline" fill="#0000FF" cx="57.6" cy="339" r="4.4">
	</circle>
</g>
<g>
	<rect y="18.2" fill="none" width="115.2" height="13.7"/>
	<path fill="#2A2A2A" d="M25.2,21.9c0-1,0.4-1.9,1.2-2.6c0.8-0.7,1.9-1,3.3-1c0.6,0,1.3,0.1,2,0.3c0.7,0.2,1.2,0.4,1.7,0.7l-0.9,2.1
		c-0.5-0.2-1-0.4-1.4-0.5c-0.4-0.1-0.9-0.2-1.4-0.2c-0.5,0-0.9,0.1-1.2,0.3c-0.3,0.2-0.5,0.5-0.5,0.9c0,0.4,0.2,0.7,0.6,1
		c0.4,0.3,1,0.6,1.6,0.9c0.9,0.5,1.8,1,2.7,1.7c0.8,0.7,1.3,1.5,1.3,2.6c0,1-0.4,1.9-1.3,2.6c-0.9,0.7-2.1,1-3.6,1
		c-0.6,0-1.3-0.1-2.1-0.3c-0.8-0.2-1.5-0.5-1.8-0.8l0.7-2.2c0.4,0.2,0.9,0.4,1.5,0.6s1.2,0.3,1.7,0.3c0.7,0,1.2-0.1,1.6-0.4
		s0.5-0.5,0.5-0.9c0-0.4-0.2-0.7-0.7-1c-0.5-0.3-1-0.6-1.6-0.9c-0.9-0.5-1.8-1-2.6-1.7C25.6,23.9,25.2,23.1,25.2,21.9z"/>
	<path fill="#2A2A2A" d="M40.2,24.4c-0.6,0-1.1,0.2-1.5,0.7c-0.4,0.5-0.6,1.1-0.6,1.8c0,0.7,0.2,1.3,0.6,1.8
		c0.4,0.5,0.9,0.7,1.5,0.7c0.4,0,0.7,0,1.1-0.1c0.3-0.1,0.7-0.2,1.1-0.4l0.8,2c-0.5,0.4-1,0.6-1.6,0.7s-1.1,0.2-1.5,0.2
		c-1.5,0-2.7-0.4-3.5-1.3s-1.3-2-1.3-3.5c0-1.5,0.4-2.7,1.3-3.6c0.9-0.9,2-1.3,3.5-1.3c0.4,0,0.9,0.1,1.5,0.2
		c0.6,0.1,1.1,0.4,1.6,0.7l-0.8,2c-0.4-0.2-0.8-0.4-1.1-0.4C40.9,24.5,40.6,24.4,40.2,24.4z"/>
	<path fill="#2A2A2A" d="M48,22.1c1.2,0,2.1,0.3,2.8,1c0.7,0.7,1.1,1.5,1.1,2.5v5.9h-1.4L50,30.8c-0.3,0.3-0.7,0.5-1.2,0.7
		c-0.5,0.2-0.9,0.3-1.4,0.3c-1.1,0-2-0.3-2.5-0.8c-0.6-0.6-0.8-1.3-0.8-2.2c0-1,0.3-1.7,1-2.2c0.7-0.5,1.5-0.7,2.6-0.7h1.6
		c0-0.4-0.2-0.7-0.4-0.9s-0.6-0.3-1-0.3c-0.4,0-0.8,0.1-1.3,0.2c-0.5,0.1-0.9,0.3-1.3,0.4l-0.7-2.2c0.4-0.2,1-0.4,1.7-0.6
		C46.9,22.2,47.5,22.1,48,22.1z M47.4,29.6c0.3,0,0.6-0.1,0.9-0.2c0.3-0.1,0.6-0.3,0.9-0.6v-1.2h-1.6c-0.4,0-0.7,0.1-0.9,0.3
		s-0.3,0.5-0.3,0.8c0,0.2,0.1,0.4,0.3,0.6S47.1,29.6,47.4,29.6z"/>
	<path fill="#2A2A2A" d="M56.5,18.2v13.4h-2.8V18.4L56.5,18.2z"/>
	<path fill="#2A2A2A" d="M62.8,22.1c1.4,0,2.5,0.5,3.2,1.4c0.7,1,1,2.1,1,3.4v0.9h-6c0.1,0.5,0.4,0.9,0.8,1.2s0.9,0.4,1.5,0.4
		c0.4,0,0.8,0,1.2-0.1c0.4-0.1,0.8-0.2,1.2-0.4l0.8,2c-0.5,0.4-1,0.6-1.7,0.7c-0.7,0.1-1.2,0.2-1.6,0.2c-1.6,0-2.8-0.4-3.8-1.3
		c-0.9-0.8-1.4-2-1.4-3.6c0-1.5,0.4-2.7,1.3-3.6C60.2,22.5,61.3,22.1,62.8,22.1z M62.7,24.4c-0.4,0-0.8,0.1-1.1,0.4
		c-0.3,0.3-0.5,0.7-0.6,1.2h3.4c-0.1-0.5-0.3-0.9-0.6-1.2C63.5,24.6,63.1,24.4,62.7,24.4z"/>
	<path fill="#2A2A2A" d="M74.1,20.7c-0.9,0-1.7,0.4-2.2,1.2c-0.5,0.8-0.8,1.9-0.8,3.2c0,1.2,0.2,2.3,0.7,3.1s1.2,1.2,2.2,1.2
		c0.5,0,1-0.1,1.5-0.2c0.5-0.1,0.9-0.3,1.2-0.4l1,2.1c-0.5,0.3-1.1,0.5-1.8,0.6s-1.3,0.2-1.9,0.2c-2,0-3.5-0.6-4.5-1.9
		c-1-1.3-1.4-2.9-1.4-4.8c0-2,0.5-3.6,1.6-4.9c1-1.3,2.5-1.9,4.4-1.9c0.5,0,1,0.1,1.7,0.2c0.7,0.1,1.3,0.4,1.8,0.7l-0.9,2
		c-0.6-0.2-1.1-0.3-1.4-0.4C75.1,20.8,74.6,20.7,74.1,20.7z"/>
	<path fill="#2A2A2A" d="M83.1,31.6l-5-12.6l2.8-0.3l3.5,9.3l3.4-9.3h2.8l-5,12.9H83.1z"/>
</g>
<g>
	<rect x="80.7" y="131" fill="none" width="29.3" height="8.5"/>
	<path fill="#575757" d="M87.1,136l-1.6-2.1v4.1h-1.3v-6.8H85l2.3,3.1l2.1-3.1h0.8v6.8h-1.3v-3.9l-1.3,1.8L87.1,136z"/>
	<path fill="#575757" d="M93.6,138.2c-0.8,0-1.4-0.2-1.8-0.7c-0.4-0.5-0.6-1.1-0.6-1.9c0-0.8,0.2-1.4,0.7-1.9s1.1-0.7,1.8-0.7
		c0.8,0,1.4,0.2,1.9,0.7c0.4,0.5,0.7,1.1,0.7,1.9c0,0.8-0.2,1.4-0.7,1.8C95,138,94.4,138.2,93.6,138.2z M94.9,135.7
		c0-0.5-0.1-0.8-0.3-1.1c-0.2-0.3-0.5-0.4-0.9-0.4c-0.4,0-0.7,0.1-0.9,0.4c-0.2,0.2-0.3,0.6-0.3,1.1s0.1,0.8,0.3,1.1
		s0.5,0.4,0.8,0.4c0.4,0,0.7-0.1,0.9-0.3C94.8,136.5,94.9,136.2,94.9,135.7z"/>
	<path fill="#575757" d="M101.6,131v7.1h-0.7l-0.4-0.5c-0.2,0.2-0.5,0.3-0.8,0.4c-0.3,0.1-0.6,0.2-0.8,0.2c-0.7,0-1.2-0.2-1.6-0.7
		c-0.4-0.5-0.6-1.1-0.6-1.8s0.2-1.3,0.6-1.8c0.4-0.5,1-0.7,1.7-0.7c0.2,0,0.4,0,0.6,0.1s0.4,0.2,0.6,0.3v-2.3L101.6,131z
		 M99.3,134.2c-0.5,0-0.8,0.2-0.9,0.5c-0.2,0.3-0.3,0.7-0.3,1c0,0.4,0.1,0.7,0.2,1c0.2,0.3,0.5,0.4,1,0.4c0.2,0,0.3,0,0.5-0.1
		c0.2-0.1,0.3-0.2,0.5-0.2v-2.2c-0.1-0.1-0.3-0.2-0.5-0.2C99.7,134.2,99.5,134.2,99.3,134.2z"/>
	<path fill="#575757" d="M105.2,138.2c-0.8,0-1.5-0.2-2-0.7s-0.7-1.1-0.7-1.9s0.2-1.4,0.7-1.9c0.4-0.5,1-0.7,1.8-0.7
		c0.8,0,1.3,0.3,1.7,0.8s0.5,1.1,0.5,1.8v0.4h-3.3c0.1,0.3,0.2,0.6,0.4,0.8s0.5,0.3,0.9,0.3c0.2,0,0.4,0,0.6-0.1
		c0.2-0.1,0.4-0.1,0.6-0.2l0.4,0.9c-0.2,0.2-0.5,0.3-0.8,0.4S105.4,138.2,105.2,138.2z M105.9,135.2c-0.1-0.3-0.2-0.6-0.4-0.7
		c-0.2-0.2-0.4-0.2-0.7-0.2c-0.3,0-0.5,0.1-0.7,0.2c-0.2,0.2-0.3,0.4-0.4,0.7H105.9z"/>
</g>
</svg>
