<?xml version="1.0" encoding="utf-8"?>
<!-- Generator: Adobe Illustrator 25.4.1, SVG Export Plug-In . SVG Version: 6.00 Build 0)  -->
<svg version="1.1"
	 id="svg8" inkscape:version="0.92.4 (5da689c313, 2019-01-14)" sodipodi:docname="ChordCV.svg" xmlns:cc="http://creativecommons.org/ns#" xmlns:dc="http://purl.org/dc/elements/1.1/" xmlns:inkscape="http://www.inkscape.org/namespaces/inkscape" xmlns:rdf="http://www.w3.org/1999/02/22-rdf-syntax-ns#" xmlns:sodipodi="http://sodipodi.sourceforge.net/DTD/sodipodi-0.dtd" xmlns:svg="http://www.w3.org/2000/svg"
	 xmlns="http://www.w3.org/2000/svg" xmlns:xlink="http://www.w3.org/1999/xlink" x="0px" y="0px" width="40.639999mm" height="128.55mm"
	 viewBox="0 0 115.2 364.4" enable-background="new 0 0 115.2 364.4" xml:space="preserve">
<sodipodi:namedview  bordercolor="#666666" borderopacity="1.0" id="base" inkscape:current-layer="layer6" inkscape:cx="88.019841" inkscape:cy="218.56238" inkscape:document-units="mm" inkscape:pageopacity="0.0" inkscape:pageshadow="2" inkscape:window-height="976" inkscape:window-maximized="0" inkscape:window-width="1457" inkscape:window-x="3014" inkscape:window-y="198" inkscape:zoom="1.979899" pagecolor="#ffffff" showgrid="false">
	</sodipodi:namedview>
<g id="layer3" inkscape:groupmode="layer" inkscape:label="BG">
	<rect id="rect4608" x="0" y="0" fill="#F2F2F2" width="115.2" height="364.4"/>
</g>
<path id="rect940" fill="#FC8701" d="M53.9,304.8h7.4c5.8,0,10.5,4.7,10.5,10.5v7.8c0,5.8-4.7,10.5-10.5,10.5h-7.4
	c-5.8,0-10.5-4.7-10.5-10.5v-7.8C43.4,309.5,48.1,304.8,53.9,304.8z"/>
<path id="rect860" fill="#C3C3C3" d="M82.6,84.5h25.9c1.7,0,3.1,1.4,3.1,3.1V95c0,1.7-1.4,3.1-3.1,3.1H82.6c-1.7,0-3.1-1.4-3.1-3.1
	v-7.5C79.5,85.8,80.9,84.5,82.6,84.5z"/>
<rect id="rect872" x="12.3" y="89.7" fill="#C3C3C3" width="68" height="3.2"/>
<path id="rect860-2" fill="#C3C3C3" d="M82.6,127.4h25.9c1.7,0,3.1,1.4,3.1,3.1v7.5c0,1.7-1.4,3.1-3.1,3.1H82.6
	c-1.7,0-3.1-1.4-3.1-3.1v-7.5C79.5,128.8,80.9,127.4,82.6,127.4z"/>
<rect id="rect872-2" x="12.3" y="132.6" fill="#C3C3C3" width="68" height="3.2"/>
<g id="g857" inkscape:groupmode="layer" inkscape:label="Type">
</g>
<g id="text4624" transform="matrix(1.2451884,0,0,1.2451884,-4.9822279,-72.597247)">
	<path id="path838" inkscape:connector-curvature="0" fill="#4E4E4E" d="M23.9,334.4v5.3l-1.4,0v-1.2l-0.7,0.7
		c-0.4,0.4-0.9,0.5-1.5,0.5c-0.6,0-1.1-0.2-1.5-0.6c0,0-0.2-0.2-0.4-0.4c-0.4-0.4-0.6-0.9-0.6-1.5c0-0.7,0.2-1.2,0.5-1.5l1-1h1.9
		l-1.8,1.9c-0.2,0.2-0.3,0.4-0.3,0.6c0,0.3,0.1,0.5,0.3,0.6c0.2,0.2,0.3,0.3,0.4,0.4c0.2,0.1,0.4,0.2,0.6,0.2c0.3,0,0.5-0.1,0.6-0.3
		l1.5-1.6v-2.2h-4.1c0-0.8,0.5-1.3,1.4-1.4h2.8C23.4,333.1,23.9,333.5,23.9,334.4L23.9,334.4z"/>
	<path id="path840" inkscape:connector-curvature="0" fill="#4E4E4E" d="M30.3,334.4v5.3l-1.4,0v-1.2l-0.7,0.7
		c-0.4,0.4-0.9,0.5-1.5,0.5c-0.6,0-1.1-0.2-1.5-0.6c0,0-0.2-0.2-0.4-0.4c-0.4-0.4-0.6-0.9-0.6-1.5c0-0.7,0.2-1.2,0.5-1.5l1-1h1.9
		l-1.8,1.9c-0.2,0.2-0.3,0.4-0.3,0.6c0,0.3,0.1,0.5,0.3,0.6c0.2,0.2,0.3,0.3,0.4,0.4c0.2,0.1,0.4,0.2,0.6,0.2c0.3,0,0.5-0.1,0.6-0.3
		l1.5-1.6v-2.2h-4.1c0-0.8,0.5-1.3,1.4-1.4H29C29.8,333.1,30.3,333.5,30.3,334.4L30.3,334.4z"/>
	<path id="path842" inkscape:connector-curvature="0" fill="#4E4E4E" d="M36.3,337.1l-1.1,1.1l1.7,1.6H35l-1.7-1.5v-1.9l0.9,0.9l1-1
		c0.2-0.2,0.3-0.4,0.3-0.6s-0.1-0.5-0.3-0.6c0,0-0.1-0.1-0.4-0.4c-0.2-0.1-0.4-0.2-0.6-0.2c-0.2,0-0.5,0.1-0.6,0.3l-1.5,1.6v3.5
		h-1.4v-6.6h1.4v1.2l0.7-0.7c0.4-0.4,0.8-0.5,1.4-0.5c0.6,0,1.1,0.2,1.6,0.6c0,0,0.2,0.1,0.4,0.4c0.4,0.4,0.6,0.9,0.6,1.5
		C36.9,336.1,36.7,336.6,36.3,337.1L36.3,337.1z"/>
	<path id="path844" inkscape:connector-curvature="0" fill="#4E4E4E" d="M40.8,338.2c-0.2,0.2-0.4,0.3-0.6,0.3
		c-0.2,0-0.4-0.1-0.6-0.3c0,0-0.4-0.3-1.1-1v-1.9c0-0.2,0.1-0.4,0.3-0.6c0.2-0.2,0.4-0.3,0.6-0.3c0,0,0.5,0,1.5,0
		c0.3,0,0.6,0.2,0.7,0.4c0,0,0,0,0,0c0.1,0.2,0.1,0.4,0.1,0.5v1.9C41.4,337.6,41.1,337.9,40.8,338.2L40.8,338.2z M43.1,335.2
		L43.1,335.2c0-0.2,0-0.3-0.1-0.4c0-0.1-0.1-0.3-0.2-0.5c-0.1-0.2-0.2-0.3-0.2-0.3c-0.5-0.6-1-0.9-1.7-0.9h-1.5
		c-0.5,0-1,0.2-1.4,0.5c-0.5,0.4-0.8,1-0.8,1.5l0,0v2.7l1.5,1.4c0.4,0.4,0.9,0.6,1.5,0.6c0.6,0,1.1-0.2,1.5-0.5v0l1.5-1.4V335.2z"/>
	<path id="path846" inkscape:connector-curvature="0" fill="#4E4E4E" d="M44.8,339.7h-1.4v-6.6h1.4V339.7z M48.2,339.7v-4.4
		c0-0.1-0.1-0.3-0.2-0.4c-0.2-0.2-0.4-0.3-0.5-0.5c-0.2-0.1-0.3-0.2-0.5-0.2s-0.4,0.1-0.6,0.2l-1.3,1v-1.6c0.4-0.6,1-0.9,1.7-1
		c0.7,0,1.3,0.2,1.8,0.7c0.3,0.3,0.5,0.5,0.6,0.6c0.2,0.3,0.3,0.7,0.3,1v4.4L48.2,339.7z"/>
	<path id="path848" inkscape:connector-curvature="0" fill="#4E4E4E" d="M53,337.4v-1.9l2.7,2.7c0.2,0.2,0.4,0.3,0.6,0.3
		c0.2,0,0.4-0.1,0.6-0.2l0.4-0.4c0.2-0.2,0.2-0.3,0.2-0.5c0-0.3-0.2-0.7-0.5-1l-1.8-1.8h1.9l1.3,1.3c0.4,0.5,0.6,1,0.6,1.6
		c0,0.6-0.2,1.1-0.6,1.5c-0.3,0.3-0.4,0.4-0.4,0.4c-0.4,0.4-0.9,0.6-1.5,0.6c-0.6,0-1-0.2-1.5-0.5l0,0L53,337.4z M55.2,333.1
		c-0.1,0.1-0.2,0.2-0.3,0.3c-0.1,0.2-0.2,0.3-0.2,0.6c0,0.2,0.1,0.5,0.3,0.6l1.2,1.2h-1.9l-0.4-0.4c-0.4-0.4-0.5-0.8-0.5-1.4
		c0-0.3,0.1-0.6,0.2-0.9L55.2,333.1z"/>
	<path id="path850" inkscape:connector-curvature="0" fill="#4E4E4E" d="M60.6,334.4v-1.3h2.8v1.3H60.6z M60.4,331.7v5.8
		c0,0.1,0.1,0.3,0.2,0.4c0.2,0.2,0.3,0.3,0.5,0.5c0.2,0.1,0.3,0.2,0.5,0.2s0.4-0.1,0.6-0.2l1.3-1v1.6c-0.4,0.6-1,0.9-1.7,1
		c-0.7,0-1.3-0.2-1.8-0.7c-0.3-0.4-0.5-0.6-0.6-0.6c-0.2-0.3-0.3-0.6-0.3-1v-5.8L60.4,331.7z"/>
	<path id="path852" inkscape:connector-curvature="0" fill="#4E4E4E" d="M69.8,334.4v5.3l-1.4,0v-1.2l-0.7,0.7
		c-0.4,0.4-0.9,0.5-1.5,0.5c-0.6,0-1.1-0.2-1.5-0.6c0,0-0.2-0.2-0.4-0.4c-0.4-0.4-0.6-0.9-0.6-1.5c0-0.7,0.2-1.2,0.5-1.5l1-1h1.9
		l-1.8,1.9c-0.2,0.2-0.3,0.4-0.3,0.6c0,0.3,0.1,0.5,0.3,0.6c0.2,0.2,0.3,0.3,0.4,0.4c0.2,0.1,0.4,0.2,0.6,0.2c0.3,0,0.5-0.1,0.6-0.3
		l1.5-1.6v-2.2h-4.1c0-0.8,0.5-1.3,1.4-1.4h2.8C69.3,333.1,69.8,333.5,69.8,334.4L69.8,334.4z"/>
	<path id="path854" inkscape:connector-curvature="0" fill="#4E4E4E" d="M71.7,334.4v-1.3h2.8v1.3H71.7z M71.5,331.7v5.8
		c0,0.1,0.1,0.3,0.2,0.4c0.2,0.2,0.3,0.3,0.5,0.5c0.2,0.1,0.3,0.2,0.5,0.2c0.2,0,0.4-0.1,0.6-0.2l1.3-1v1.6c-0.4,0.6-1,0.9-1.7,1
		c-0.7,0-1.3-0.2-1.8-0.7c-0.3-0.4-0.5-0.6-0.6-0.6c-0.2-0.3-0.3-0.6-0.3-1v-5.8L71.5,331.7z"/>
	<path id="path856" inkscape:connector-curvature="0" fill="#4E4E4E" d="M76.4,333.1v6.6H75v-6.6H76.4z"/>
	<path id="path858" inkscape:connector-curvature="0" fill="#4E4E4E" d="M82.7,336.2v1.7l-1.5,1.4c-0.4,0.4-0.9,0.5-1.5,0.5
		c-0.6,0-1.1-0.2-1.6-0.6c0,0-0.1-0.1-0.2-0.2h0l-1.2-1.2v-2.6c0-0.6,0.3-1,0.7-1.4c0.4-0.4,0.9-0.6,1.5-0.6c0,0,0.5,0,1.5,0
		c0.6,0,1.1,0.2,1.5,0.6c0.4,0.4,0.7,0.8,0.7,1.2h-1.4c-0.2-0.3-0.4-0.5-0.8-0.5c-1,0-1.5,0-1.5,0c-0.2,0-0.4,0.1-0.6,0.3
		c-0.2,0.2-0.3,0.4-0.3,0.6v1.9l1,0.9c0.1,0.1,0.1,0.1,0.1,0.2c0.2,0.2,0.4,0.2,0.6,0.2c0.2,0,0.4-0.1,0.6-0.3
		C80.9,337.8,81.7,337.1,82.7,336.2L82.7,336.2z"/>
</g>
<g id="layer2" transform="translate(0,-3.0517578e-6)" inkscape:groupmode="layer" inkscape:label="components" display="none">
	<circle id="path3718" inkscape:label="ROOT_PARAM" display="inline" fill="#FF0000" cx="57.6" cy="72.7" r="18.2">
	</circle>
	<circle id="path4571" inkscape:label="CVOUT1_OUTPUT" display="inline" fill="#0000FF" cx="57.6" cy="339" r="4.4">
	</circle>
</g>
<g>
	<rect y="14.2" fill="none" width="115.2" height="13.7"/>
	<path fill="#2A2A2A" d="M25.2,17.9c0-1,0.4-1.9,1.2-2.6c0.8-0.7,1.9-1,3.3-1c0.6,0,1.3,0.1,2,0.3c0.7,0.2,1.2,0.4,1.7,0.7l-0.9,2.1
		c-0.5-0.2-1-0.4-1.4-0.5c-0.4-0.1-0.9-0.2-1.4-0.2c-0.5,0-0.9,0.1-1.2,0.3c-0.3,0.2-0.5,0.5-0.5,0.9c0,0.4,0.2,0.7,0.6,1
		c0.4,0.3,1,0.6,1.6,0.9c0.9,0.5,1.8,1,2.7,1.7c0.8,0.7,1.3,1.5,1.3,2.6c0,1-0.4,1.9-1.3,2.6c-0.9,0.7-2.1,1-3.6,1
		c-0.6,0-1.3-0.1-2.1-0.3c-0.8-0.2-1.5-0.5-1.8-0.8l0.7-2.2c0.4,0.2,0.9,0.4,1.5,0.6s1.2,0.3,1.7,0.3c0.7,0,1.2-0.1,1.6-0.4
		s0.5-0.5,0.5-0.9c0-0.4-0.2-0.7-0.7-1c-0.5-0.3-1-0.6-1.6-0.9c-0.9-0.5-1.8-1-2.6-1.7C25.6,19.9,25.2,19.1,25.2,17.9z"/>
	<path fill="#2A2A2A" d="M40.2,20.4c-0.6,0-1.1,0.2-1.5,0.7c-0.4,0.5-0.6,1.1-0.6,1.8c0,0.7,0.2,1.3,0.6,1.8
		c0.4,0.5,0.9,0.7,1.5,0.7c0.4,0,0.7,0,1.1-0.1c0.3-0.1,0.7-0.2,1.1-0.4l0.8,2c-0.5,0.4-1,0.6-1.6,0.7s-1.1,0.2-1.5,0.2
		c-1.5,0-2.7-0.4-3.5-1.3s-1.3-2-1.3-3.5c0-1.5,0.4-2.7,1.3-3.6c0.9-0.9,2-1.3,3.5-1.3c0.4,0,0.9,0.1,1.5,0.2
		c0.6,0.1,1.1,0.4,1.6,0.7l-0.8,2c-0.4-0.2-0.8-0.4-1.1-0.4C40.9,20.5,40.6,20.4,40.2,20.4z"/>
	<path fill="#2A2A2A" d="M48,18.1c1.2,0,2.1,0.3,2.8,1c0.7,0.7,1.1,1.5,1.1,2.5v5.9h-1.4L50,26.8c-0.3,0.3-0.7,0.5-1.2,0.7
		c-0.5,0.2-0.9,0.3-1.4,0.3c-1.1,0-2-0.3-2.5-0.8c-0.6-0.6-0.8-1.3-0.8-2.2c0-1,0.3-1.7,1-2.2c0.7-0.5,1.5-0.7,2.6-0.7h1.6
		c0-0.4-0.2-0.7-0.4-0.9s-0.6-0.3-1-0.3c-0.4,0-0.8,0.1-1.3,0.2c-0.5,0.1-0.9,0.3-1.3,0.4l-0.7-2.2c0.4-0.2,1-0.4,1.7-0.6
		C46.9,18.2,47.5,18.1,48,18.1z M47.4,25.6c0.3,0,0.6-0.1,0.9-0.2c0.3-0.1,0.6-0.3,0.9-0.6v-1.2h-1.6c-0.4,0-0.7,0.1-0.9,0.3
		s-0.3,0.5-0.3,0.8c0,0.2,0.1,0.4,0.3,0.6S47.1,25.6,47.4,25.6z"/>
	<path fill="#2A2A2A" d="M56.5,14.2v13.4h-2.8V14.4L56.5,14.2z"/>
	<path fill="#2A2A2A" d="M62.8,18.1c1.4,0,2.5,0.5,3.2,1.4c0.7,1,1,2.1,1,3.4v0.9h-6c0.1,0.5,0.4,0.9,0.8,1.2s0.9,0.4,1.5,0.4
		c0.4,0,0.8,0,1.2-0.1c0.4-0.1,0.8-0.2,1.2-0.4l0.8,2c-0.5,0.4-1,0.6-1.7,0.7c-0.7,0.1-1.2,0.2-1.6,0.2c-1.6,0-2.8-0.4-3.8-1.3
		c-0.9-0.8-1.4-2-1.4-3.6c0-1.5,0.4-2.7,1.3-3.6C60.2,18.5,61.3,18.1,62.8,18.1z M62.7,20.4c-0.4,0-0.8,0.1-1.1,0.4
		c-0.3,0.3-0.5,0.7-0.6,1.2h3.4c-0.1-0.5-0.3-0.9-0.6-1.2C63.5,20.6,63.1,20.4,62.7,20.4z"/>
	<path fill="#2A2A2A" d="M74.1,16.7c-0.9,0-1.7,0.4-2.2,1.2c-0.5,0.8-0.8,1.9-0.8,3.2c0,1.2,0.2,2.3,0.7,3.1s1.2,1.2,2.2,1.2
		c0.5,0,1-0.1,1.5-0.2c0.5-0.1,0.9-0.3,1.2-0.4l1,2.1c-0.5,0.3-1.1,0.5-1.8,0.6s-1.3,0.2-1.9,0.2c-2,0-3.5-0.6-4.5-1.9
		c-1-1.3-1.4-2.9-1.4-4.8c0-2,0.5-3.6,1.6-4.9c1-1.3,2.5-1.9,4.4-1.9c0.5,0,1,0.1,1.7,0.2c0.7,0.1,1.3,0.4,1.8,0.7l-0.9,2
		c-0.6-0.2-1.1-0.3-1.4-0.4C75.1,16.8,74.6,16.7,74.1,16.7z"/>
	<path fill="#2A2A2A" d="M83.1,27.6l-5-12.6l2.8-0.3l3.5,9.3l3.4-9.3h2.8l-5,12.9H83.1z"/>
</g>
<path fill="#E0E0E0" d="M98,292.3H17.1c-4.9,0-8.8-3.9-8.8-8.8V163.4c0-4.9,3.9-8.8,8.8-8.8H98c4.9,0,8.8,3.9,8.8,8.8v120.1
	C106.8,288.4,102.8,292.3,98,292.3z"/>
<rect id="rect872-2_00000012441040453125655940000009475240176862805678_" x="23.5" y="180.8" fill="#C3C3C3" width="68" height="3.2"/>
<rect id="rect872-2_00000043457586679423299380000007258584665358165162_" x="23.6" y="211.3" fill="#C3C3C3" width="68" height="3.2"/>
<rect id="rect872-2_00000015349784972564643530000016503507855864679359_" x="23.6" y="242.9" fill="#C3C3C3" width="68" height="3.2"/>
<rect id="rect872-2_00000172402437068938403990000000759767497387225731_" x="23.6" y="273.4" fill="#C3C3C3" width="68" height="3.2"/>
<g>
	<rect x="20.8" y="158.2" fill="none" width="74.2" height="6"/>
	<path fill="#575757" d="M43.4,164.2l-0.6-0.5c-0.2,0.1-0.4,0.2-0.6,0.2s-0.4,0.1-0.7,0.1c-0.8,0-1.5-0.3-1.9-0.8
		c-0.4-0.5-0.6-1.2-0.6-2c0-0.8,0.2-1.5,0.7-2.1c0.4-0.5,1.1-0.8,1.8-0.8c0.9,0,1.5,0.3,1.9,0.8s0.6,1.2,0.6,2
		c0,0.4-0.1,0.8-0.2,1.1c-0.1,0.3-0.3,0.6-0.4,0.9l0.5,0.5L43.4,164.2z M40.1,161.2c0,0.6,0.1,1,0.3,1.4c0.2,0.4,0.6,0.5,1.1,0.5
		c0.1,0,0.2,0,0.3,0c0.1,0,0.2-0.1,0.3-0.1l-0.7-0.6l0.7-0.5l0.6,0.6c0.1-0.2,0.1-0.3,0.2-0.5c0-0.2,0.1-0.5,0.1-0.7
		c0-0.6-0.1-1-0.3-1.4c-0.2-0.4-0.6-0.5-1.1-0.5c-0.4,0-0.8,0.2-1,0.5S40.1,160.6,40.1,161.2z"/>
	<path fill="#575757" d="M47.8,163.5c-0.2,0.2-0.4,0.3-0.6,0.4s-0.5,0.1-0.7,0.1c-0.5,0-0.9-0.2-1.1-0.5c-0.2-0.3-0.3-0.7-0.3-1.1
		V160h1v2.4c0,0.2,0.1,0.4,0.2,0.6c0.1,0.1,0.3,0.2,0.5,0.2c0.1,0,0.3,0,0.4-0.1s0.3-0.1,0.4-0.2V160h1v3.9h-0.5L47.8,163.5z"/>
	<path fill="#575757" d="M50.9,164c-0.5,0-0.8-0.1-1.1-0.3c-0.2-0.2-0.3-0.5-0.3-0.9c0-0.4,0.1-0.7,0.4-0.9s0.6-0.3,1.1-0.3h0.8
		c0-0.2-0.1-0.4-0.2-0.5s-0.3-0.2-0.5-0.2c-0.2,0-0.4,0-0.6,0.1c-0.2,0.1-0.4,0.1-0.5,0.2l-0.3-0.9c0.1-0.1,0.4-0.2,0.7-0.3
		c0.3-0.1,0.5-0.1,0.7-0.1c0.5,0,0.9,0.1,1.2,0.4c0.3,0.3,0.5,0.6,0.5,1v2.6h-0.5l-0.3-0.3c-0.1,0.1-0.3,0.2-0.5,0.3
		C51.3,163.9,51.1,164,50.9,164z M50.4,162.7c0,0.1,0,0.2,0.1,0.3c0.1,0.1,0.2,0.1,0.4,0.1c0.1,0,0.3,0,0.4-0.1
		c0.1-0.1,0.3-0.2,0.4-0.3v-0.6H51c-0.2,0-0.3,0.1-0.4,0.2C50.4,162.4,50.4,162.6,50.4,162.7z"/>
	<path fill="#575757" d="M54.6,160.4c0.2-0.2,0.4-0.3,0.7-0.4c0.3-0.1,0.5-0.2,0.7-0.2c0.5,0,0.9,0.2,1.1,0.5
		c0.2,0.3,0.3,0.7,0.3,1.1v2.4h-1v-2.4c0-0.2-0.1-0.4-0.2-0.6c-0.1-0.1-0.3-0.2-0.5-0.2c-0.1,0-0.3,0-0.5,0.1
		c-0.2,0.1-0.3,0.2-0.4,0.3v2.8h-1V160h0.5L54.6,160.4z"/>
	<path fill="#575757" d="M60.8,163.8c-0.1,0.1-0.2,0.1-0.4,0.2S60.1,164,60,164c-0.5,0-0.9-0.1-1.1-0.4s-0.4-0.6-0.4-1v-1.8h-0.5
		V160h0.5v-0.9l1-0.2v1.1h0.7l0.3,0.8h-1v1.6c0,0.2,0,0.4,0.1,0.5c0.1,0.1,0.2,0.2,0.4,0.2c0.1,0,0.1,0,0.2,0s0.1,0,0.2-0.1
		L60.8,163.8z"/>
	<path fill="#575757" d="M61.9,158.3c0.2,0,0.3,0.1,0.4,0.2c0.1,0.1,0.2,0.3,0.2,0.4c0,0.2-0.1,0.3-0.2,0.4
		c-0.1,0.1-0.3,0.2-0.4,0.2c-0.2,0-0.3-0.1-0.4-0.2c-0.1-0.1-0.2-0.3-0.2-0.4c0-0.2,0.1-0.3,0.2-0.4
		C61.6,158.3,61.7,158.3,61.9,158.3z M62.4,160v3.9h-1V160H62.4z"/>
	<path fill="#575757" d="M66.3,160.6l-1.9,2.4h1.9l0.1,0.8h-3.2l-0.1-0.6l1.8-2.5h-1.6l-0.2-0.9h3.1L66.3,160.6z"/>
	<path fill="#575757" d="M69,164c-0.7,0-1.2-0.2-1.6-0.6s-0.6-0.9-0.6-1.5s0.2-1.1,0.5-1.5c0.3-0.4,0.8-0.6,1.4-0.6
		c0.6,0,1.1,0.2,1.3,0.6s0.4,0.9,0.4,1.4v0.3h-2.6c0,0.3,0.2,0.5,0.4,0.6s0.4,0.2,0.7,0.2c0.2,0,0.3,0,0.5-0.1s0.3-0.1,0.5-0.2
		l0.3,0.8c-0.2,0.1-0.4,0.2-0.7,0.3S69.2,164,69,164z M69.6,161.5c-0.1-0.3-0.1-0.5-0.3-0.6c-0.1-0.1-0.3-0.2-0.5-0.2
		c-0.2,0-0.4,0.1-0.5,0.2c-0.1,0.1-0.2,0.3-0.3,0.6H69.6z"/>
	<path fill="#575757" d="M73.5,160l0.2,0.8c-0.2,0-0.4,0.1-0.6,0.2c-0.2,0.1-0.5,0.3-0.7,0.4v2.4h-1V160h0.5l0.3,0.6
		c0.2-0.1,0.4-0.3,0.6-0.4C73.1,160.1,73.3,160,73.5,160z"/>
	<path fill="#575757" d="M76.5,161c-0.2-0.1-0.4-0.2-0.5-0.2s-0.3-0.1-0.5-0.1c-0.1,0-0.2,0-0.3,0.1c-0.1,0.1-0.1,0.1-0.1,0.2
		c0,0.1,0,0.1,0.1,0.2s0.2,0.1,0.4,0.2c0.3,0.1,0.6,0.3,0.9,0.5s0.4,0.5,0.4,0.8c0,0.4-0.1,0.7-0.4,0.9c-0.3,0.2-0.7,0.3-1.2,0.3
		c-0.2,0-0.4,0-0.7-0.1c-0.3-0.1-0.5-0.2-0.7-0.3l0.3-0.8c0.2,0.1,0.4,0.2,0.5,0.2c0.2,0,0.3,0.1,0.5,0.1c0.2,0,0.3,0,0.4-0.1
		c0.1-0.1,0.2-0.1,0.2-0.2c0-0.1-0.1-0.2-0.2-0.3c-0.1-0.1-0.3-0.2-0.5-0.2c-0.3-0.1-0.6-0.2-0.9-0.4c-0.3-0.2-0.4-0.4-0.4-0.8
		c0-0.4,0.1-0.7,0.4-0.9c0.3-0.2,0.6-0.3,1.1-0.3c0.2,0,0.4,0,0.6,0.1c0.3,0.1,0.5,0.2,0.7,0.3L76.5,161z"/>
</g>
<g>
	<path d="M33,32.8c0-0.6-0.1-1.2-0.1-1.7h0c-0.1,0.5-0.3,1-0.5,1.5l-0.7,2h-0.4l-0.7-1.9c-0.2-0.6-0.4-1.1-0.5-1.6h0
		c0,0.5,0,1.2-0.1,1.8L30,34.5h-0.5l0.3-4h0.7l0.7,2c0.2,0.5,0.3,0.9,0.4,1.4h0c0.1-0.4,0.2-0.9,0.4-1.4l0.7-2h0.7l0.3,4h-0.5
		L33,32.8z"/>
	<path d="M37.1,33.1c0,1.1-0.7,1.5-1.4,1.5c-0.8,0-1.4-0.6-1.4-1.5c0-1,0.6-1.5,1.4-1.5C36.5,31.6,37.1,32.2,37.1,33.1z M34.8,33.1
		c0,0.6,0.4,1.1,0.9,1.1c0.5,0,0.9-0.5,0.9-1.1c0-0.5-0.2-1.1-0.9-1.1C35.1,32,34.8,32.5,34.8,33.1z"/>
	<path d="M40.3,30.3v3.5c0,0.3,0,0.6,0,0.7h-0.5l0-0.5h0c-0.2,0.3-0.5,0.6-1,0.6c-0.7,0-1.2-0.6-1.2-1.5c0-1,0.6-1.6,1.3-1.6
		c0.4,0,0.7,0.2,0.9,0.4h0v-1.7H40.3z M39.7,32.8c0-0.1,0-0.2,0-0.2C39.6,32.3,39.4,32,39,32c-0.5,0-0.9,0.5-0.9,1.1
		c0,0.6,0.3,1.1,0.9,1.1c0.4,0,0.7-0.2,0.8-0.6c0-0.1,0-0.1,0-0.2V32.8z"/>
	<path d="M42.8,34.5l0-0.4h0c-0.2,0.2-0.5,0.4-0.9,0.4c-0.6,0-0.9-0.4-0.9-0.8c0-0.7,0.6-1.1,1.7-1.1v-0.1c0-0.2-0.1-0.7-0.7-0.7
		c-0.3,0-0.6,0.1-0.8,0.2l-0.1-0.3c0.2-0.2,0.6-0.3,1-0.3c0.9,0,1.1,0.6,1.1,1.2v1.1c0,0.3,0,0.5,0,0.7H42.8z M42.7,33.1
		c-0.6,0-1.2,0.1-1.2,0.7c0,0.3,0.2,0.5,0.5,0.5c0.4,0,0.6-0.2,0.7-0.5c0-0.1,0-0.1,0-0.2V33.1z"/>
	<path d="M44,30.3h0.5v4.3H44V30.3z"/>
	<path d="M46.7,33.9c0.2,0.1,0.6,0.3,0.9,0.3c0.5,0,0.8-0.3,0.8-0.7c0-0.4-0.2-0.6-0.8-0.8c-0.7-0.2-1.1-0.6-1.1-1.1
		c0-0.6,0.5-1.1,1.3-1.1c0.4,0,0.7,0.1,0.9,0.2l-0.1,0.4c-0.1-0.1-0.4-0.2-0.8-0.2c-0.6,0-0.8,0.3-0.8,0.6c0,0.4,0.2,0.6,0.8,0.8
		c0.7,0.3,1,0.6,1,1.2c0,0.6-0.5,1.2-1.4,1.2c-0.4,0-0.8-0.1-1-0.3L46.7,33.9z"/>
	<path d="M51.8,34.4c-0.1,0.1-0.4,0.2-0.8,0.2c-0.9,0-1.4-0.6-1.4-1.5c0-0.9,0.6-1.5,1.6-1.5c0.3,0,0.6,0.1,0.7,0.1l-0.1,0.4
		c-0.1-0.1-0.3-0.1-0.6-0.1c-0.7,0-1,0.5-1,1.1c0,0.7,0.4,1.1,1,1.1c0.3,0,0.5-0.1,0.6-0.1L51.8,34.4z"/>
	<path d="M54,34.5l0-0.4h0c-0.2,0.2-0.5,0.4-0.9,0.4c-0.6,0-0.9-0.4-0.9-0.8c0-0.7,0.6-1.1,1.7-1.1v-0.1c0-0.2-0.1-0.7-0.7-0.7
		c-0.3,0-0.6,0.1-0.8,0.2l-0.1-0.3c0.2-0.2,0.6-0.3,1-0.3c0.9,0,1.1,0.6,1.1,1.2v1.1c0,0.3,0,0.5,0,0.7H54z M53.9,33.1
		c-0.6,0-1.2,0.1-1.2,0.7c0,0.3,0.2,0.5,0.5,0.5c0.4,0,0.6-0.2,0.7-0.5c0-0.1,0-0.1,0-0.2V33.1z"/>
	<path d="M55.3,30.3h0.5v4.3h-0.5V30.3z"/>
	<path d="M57,33.2c0,0.7,0.5,1,1,1c0.4,0,0.6-0.1,0.8-0.1l0.1,0.4c-0.2,0.1-0.5,0.2-1,0.2c-0.9,0-1.4-0.6-1.4-1.5s0.5-1.6,1.4-1.6
		c0.9,0,1.2,0.8,1.2,1.4c0,0.1,0,0.2,0,0.2H57z M58.6,32.8c0-0.3-0.1-0.9-0.7-0.9c-0.5,0-0.8,0.5-0.8,0.9H58.6z"/>
	<path d="M64.1,34.4c-0.2,0.1-0.7,0.2-1.2,0.2c-0.6,0-1.1-0.2-1.5-0.5c-0.3-0.3-0.6-0.9-0.6-1.5c0-1.2,0.8-2.1,2.2-2.1
		c0.5,0,0.8,0.1,1,0.2l-0.1,0.4c-0.2-0.1-0.5-0.2-0.9-0.2c-1,0-1.6,0.6-1.6,1.6c0,1,0.6,1.6,1.6,1.6c0.3,0,0.6,0,0.7-0.1v-1.2h-0.8
		v-0.4h1.3V34.4z"/>
	<path d="M65.2,33.2c0,0.7,0.5,1,1,1c0.4,0,0.6-0.1,0.8-0.1l0.1,0.4c-0.2,0.1-0.5,0.2-1,0.2c-0.9,0-1.4-0.6-1.4-1.5s0.5-1.6,1.4-1.6
		c0.9,0,1.2,0.8,1.2,1.4c0,0.1,0,0.2,0,0.2H65.2z M66.7,32.8c0-0.3-0.1-0.9-0.7-0.9c-0.5,0-0.8,0.5-0.8,0.9H66.7z"/>
	<path d="M67.9,32.4c0-0.3,0-0.5,0-0.8h0.5l0,0.5h0c0.1-0.3,0.5-0.5,1-0.5c0.4,0,1,0.2,1,1.2v1.7h-0.5v-1.7c0-0.5-0.2-0.9-0.7-0.9
		c-0.3,0-0.6,0.2-0.7,0.5c0,0.1,0,0.2,0,0.2v1.7h-0.5V32.4z"/>
	<path d="M71.5,33.2c0,0.7,0.5,1,1,1c0.4,0,0.6-0.1,0.8-0.1l0.1,0.4c-0.2,0.1-0.5,0.2-1,0.2c-0.9,0-1.4-0.6-1.4-1.5s0.5-1.6,1.4-1.6
		c0.9,0,1.2,0.8,1.2,1.4c0,0.1,0,0.2,0,0.2H71.5z M73.1,32.8c0-0.3-0.1-0.9-0.7-0.9c-0.5,0-0.8,0.5-0.8,0.9H73.1z"/>
	<path d="M74.2,32.5c0-0.3,0-0.6,0-0.9h0.5l0,0.6h0c0.1-0.4,0.4-0.6,0.8-0.6c0.1,0,0.1,0,0.2,0v0.5c-0.1,0-0.1,0-0.2,0
		c-0.4,0-0.6,0.3-0.7,0.7c0,0.1,0,0.2,0,0.2v1.5h-0.5V32.5z"/>
	<path d="M77.8,34.5l0-0.4h0c-0.2,0.2-0.5,0.4-0.9,0.4c-0.6,0-0.9-0.4-0.9-0.8c0-0.7,0.6-1.1,1.7-1.1v-0.1c0-0.2-0.1-0.7-0.7-0.7
		c-0.3,0-0.6,0.1-0.8,0.2l-0.1-0.3c0.2-0.2,0.6-0.3,1-0.3c0.9,0,1.1,0.6,1.1,1.2v1.1c0,0.3,0,0.5,0,0.7H77.8z M77.7,33.1
		c-0.6,0-1.2,0.1-1.2,0.7c0,0.3,0.2,0.5,0.5,0.5c0.4,0,0.6-0.2,0.7-0.5c0-0.1,0-0.1,0-0.2V33.1z"/>
	<path d="M79.7,30.8v0.8h0.8V32h-0.8v1.6c0,0.4,0.1,0.6,0.4,0.6c0.1,0,0.2,0,0.3,0l0,0.4c-0.1,0-0.3,0.1-0.5,0.1
		c-0.2,0-0.4-0.1-0.6-0.2c-0.2-0.2-0.2-0.4-0.2-0.8V32h-0.4v-0.4h0.4v-0.7L79.7,30.8z"/>
	<path d="M83.6,33.1c0,1.1-0.7,1.5-1.4,1.5c-0.8,0-1.4-0.6-1.4-1.5c0-1,0.6-1.5,1.4-1.5C83.1,31.6,83.6,32.2,83.6,33.1z M81.3,33.1
		c0,0.6,0.4,1.1,0.9,1.1c0.5,0,0.9-0.5,0.9-1.1c0-0.5-0.2-1.1-0.9-1.1C81.6,32,81.3,32.5,81.3,33.1z"/>
	<path d="M84.3,32.5c0-0.3,0-0.6,0-0.9h0.5l0,0.6h0c0.1-0.4,0.4-0.6,0.8-0.6c0.1,0,0.1,0,0.2,0v0.5c-0.1,0-0.1,0-0.2,0
		c-0.4,0-0.6,0.3-0.7,0.7c0,0.1,0,0.2,0,0.2v1.5h-0.5V32.5z"/>
</g>
<g>
	<rect x="42.2" y="298.8" fill="none" width="29.3" height="5.6"/>
	<path fill="#575757" d="M46,302.4c0.2,0.1,0.6,0.3,0.9,0.3c0.5,0,0.8-0.3,0.8-0.7c0-0.4-0.2-0.6-0.8-0.8c-0.7-0.2-1.1-0.6-1.1-1.1
		c0-0.6,0.5-1.1,1.3-1.1c0.4,0,0.7,0.1,0.9,0.2l-0.1,0.4c-0.1-0.1-0.4-0.2-0.8-0.2c-0.6,0-0.8,0.3-0.8,0.6c0,0.4,0.2,0.6,0.8,0.8
		c0.7,0.3,1,0.6,1,1.2c0,0.6-0.5,1.2-1.4,1.2c-0.4,0-0.8-0.1-1-0.3L46,302.4z"/>
	<path fill="#575757" d="M51,302.9c-0.1,0.1-0.4,0.2-0.8,0.2c-0.9,0-1.4-0.6-1.4-1.5c0-0.9,0.6-1.5,1.6-1.5c0.3,0,0.6,0.1,0.7,0.1
		l-0.1,0.4c-0.1-0.1-0.3-0.1-0.6-0.1c-0.7,0-1,0.5-1,1.1c0,0.7,0.4,1.1,1,1.1c0.3,0,0.5-0.1,0.6-0.1L51,302.9z"/>
	<path fill="#575757" d="M53.1,303l0-0.4h0c-0.2,0.2-0.5,0.4-0.9,0.4c-0.6,0-0.9-0.4-0.9-0.8c0-0.7,0.6-1.1,1.7-1.1v-0.1
		c0-0.2-0.1-0.7-0.7-0.7c-0.3,0-0.6,0.1-0.8,0.2l-0.1-0.3c0.2-0.2,0.6-0.3,1-0.3c0.9,0,1.1,0.6,1.1,1.2v1.1c0,0.3,0,0.5,0,0.7H53.1z
		 M53,301.5c-0.6,0-1.2,0.1-1.2,0.7c0,0.3,0.2,0.5,0.5,0.5c0.4,0,0.6-0.2,0.7-0.5c0-0.1,0-0.1,0-0.2V301.5z"/>
	<path fill="#575757" d="M54.2,298.8h0.5v4.3h-0.5V298.8z"/>
	<path fill="#575757" d="M55.8,301.7c0,0.7,0.5,1,1,1c0.4,0,0.6-0.1,0.8-0.1l0.1,0.4c-0.2,0.1-0.5,0.2-1,0.2c-0.9,0-1.4-0.6-1.4-1.5
		c0-0.9,0.5-1.6,1.4-1.6c0.9,0,1.2,0.8,1.2,1.4c0,0.1,0,0.2,0,0.2H55.8z M57.3,301.3c0-0.3-0.1-0.9-0.7-0.9c-0.5,0-0.8,0.5-0.8,0.9
		H57.3z"/>
	<path fill="#575757" d="M62.9,301c0,1.4-0.8,2.1-1.9,2.1c-1.1,0-1.8-0.8-1.8-2.1c0-1.3,0.8-2.1,1.9-2.1
		C62.2,298.9,62.9,299.8,62.9,301z M59.8,301c0,0.9,0.5,1.6,1.3,1.6c0.8,0,1.3-0.8,1.3-1.7c0-0.8-0.4-1.6-1.3-1.6
		C60.2,299.3,59.8,300.1,59.8,301z"/>
	<path fill="#575757" d="M65.8,302.2c0,0.3,0,0.6,0,0.8h-0.5l0-0.5h0c-0.1,0.2-0.4,0.5-1,0.5c-0.5,0-1-0.3-1-1.3v-1.7h0.5v1.6
		c0,0.6,0.2,0.9,0.6,0.9c0.4,0,0.6-0.2,0.7-0.5c0-0.1,0-0.2,0-0.3v-1.8h0.5V302.2z"/>
	<path fill="#575757" d="M67.2,299.3v0.8H68v0.4h-0.8v1.6c0,0.4,0.1,0.6,0.4,0.6c0.1,0,0.2,0,0.3,0l0,0.4c-0.1,0-0.3,0.1-0.5,0.1
		c-0.2,0-0.4-0.1-0.6-0.2c-0.2-0.2-0.2-0.4-0.2-0.8v-1.6h-0.4v-0.4h0.4v-0.7L67.2,299.3z"/>
</g>
<g>
	<rect x="15.1" y="164.8" fill="none" width="29.3" height="5.6"/>
	<path fill="#575757" d="M28.4,165.1v4h-0.5v-4H28.4z"/>
	<path fill="#575757" d="M29.2,167c0-0.3,0-0.5,0-0.8h0.5l0,0.5h0c0.1-0.3,0.5-0.5,1-0.5c0.4,0,1,0.2,1,1.2v1.7h-0.5v-1.7
		c0-0.5-0.2-0.9-0.7-0.9c-0.3,0-0.6,0.2-0.7,0.5c0,0.1,0,0.2,0,0.2v1.7h-0.5V167z"/>
</g>
<g>
	<rect x="71.8" y="165.2" fill="none" width="29.3" height="5.6"/>
	<path fill="#575757" d="M85.8,167.4c0,1.4-0.8,2.1-1.9,2.1c-1.1,0-1.8-0.8-1.8-2.1c0-1.3,0.8-2.1,1.9-2.1
		C85.1,165.3,85.8,166.2,85.8,167.4z M82.7,167.4c0,0.9,0.5,1.6,1.3,1.6c0.8,0,1.3-0.8,1.3-1.7c0-0.8-0.4-1.6-1.3-1.6
		C83.1,165.7,82.7,166.5,82.7,167.4z"/>
	<path fill="#575757" d="M88.7,168.6c0,0.3,0,0.6,0,0.8h-0.5l0-0.5h0c-0.1,0.2-0.4,0.5-1,0.5c-0.5,0-1-0.3-1-1.3v-1.7h0.5v1.6
		c0,0.6,0.2,0.9,0.6,0.9c0.4,0,0.6-0.2,0.7-0.5c0-0.1,0-0.2,0-0.3v-1.8h0.5V168.6z"/>
	<path fill="#575757" d="M90.1,165.7v0.8h0.8v0.4h-0.8v1.6c0,0.4,0.1,0.6,0.4,0.6c0.1,0,0.2,0,0.3,0l0,0.4c-0.1,0-0.3,0.1-0.5,0.1
		c-0.2,0-0.4-0.1-0.6-0.2c-0.2-0.2-0.2-0.4-0.2-0.8v-1.6h-0.4v-0.4h0.4v-0.7L90.1,165.7z"/>
</g>
<g>
	<rect x="80.3" y="88.1" fill="none" width="29.3" height="8.5"/>
	<path fill="#575757" d="M89.5,94.5c-0.2-0.4-0.4-0.7-0.6-1.1c-0.2-0.4-0.4-0.7-0.6-1.1c-0.1,0-0.1,0-0.2,0c-0.1,0-0.1,0-0.2,0h-0.7
		v2.2h-1.3v-6.1h2.1c0.7,0,1.2,0.2,1.7,0.5c0.5,0.3,0.7,0.8,0.7,1.5c0,0.4-0.1,0.7-0.3,1s-0.4,0.5-0.7,0.6c0.2,0.4,0.5,0.9,0.7,1.3
		s0.5,0.9,0.7,1.3H89.5z M88,89.4h-0.8v1.8H88c0.3,0,0.6-0.1,0.8-0.2c0.2-0.1,0.3-0.4,0.3-0.7c0-0.3-0.1-0.5-0.3-0.7
		C88.6,89.5,88.4,89.4,88,89.4z"/>
	<path fill="#575757" d="M93.5,90c0.7,0,1.3,0.2,1.7,0.6c0.4,0.4,0.6,1,0.6,1.7c0,0.7-0.2,1.3-0.7,1.7c-0.5,0.4-1,0.6-1.7,0.6
		c-0.7,0-1.2-0.2-1.7-0.6c-0.4-0.4-0.6-1-0.6-1.7c0-0.7,0.2-1.3,0.6-1.7C92.3,90.2,92.8,90,93.5,90z M93.5,93.4
		c0.3,0,0.6-0.1,0.7-0.3c0.2-0.2,0.3-0.5,0.3-0.9c0-0.4-0.1-0.7-0.3-0.9s-0.4-0.3-0.7-0.3c-0.3,0-0.5,0.1-0.7,0.3
		c-0.2,0.2-0.3,0.5-0.3,0.9c0,0.4,0.1,0.7,0.2,0.9C92.9,93.3,93.2,93.4,93.5,93.4z"/>
	<path fill="#575757" d="M98.7,90c0.7,0,1.3,0.2,1.7,0.6c0.4,0.4,0.6,1,0.6,1.7c0,0.7-0.2,1.3-0.7,1.7c-0.5,0.4-1,0.6-1.7,0.6
		c-0.7,0-1.2-0.2-1.7-0.6c-0.4-0.4-0.6-1-0.6-1.7c0-0.7,0.2-1.3,0.6-1.7C97.4,90.2,98,90,98.7,90z M98.6,93.4c0.3,0,0.6-0.1,0.7-0.3
		c0.2-0.2,0.3-0.5,0.3-0.9c0-0.4-0.1-0.7-0.3-0.9s-0.4-0.3-0.7-0.3c-0.3,0-0.5,0.1-0.7,0.3c-0.2,0.2-0.3,0.5-0.3,0.9
		c0,0.4,0.1,0.7,0.2,0.9C98.1,93.3,98.3,93.4,98.6,93.4z"/>
	<path fill="#575757" d="M103.7,94.6c-0.5,0-1-0.1-1.3-0.4c-0.4-0.3-0.5-0.7-0.5-1.2v-1.8h-0.6v-1h0.6v-1.1l1.3-0.2v1.3h0.9l0.3,1
		h-1.2v1.6c0,0.2,0.1,0.4,0.2,0.5c0.1,0.1,0.3,0.2,0.5,0.2c0.1,0,0.2,0,0.3,0c0.1,0,0.2-0.1,0.3-0.1l0.4,0.9
		c-0.1,0.1-0.3,0.2-0.5,0.2S103.8,94.6,103.7,94.6z"/>
</g>
<g>
	<rect x="80.4" y="130.9" fill="none" width="29.3" height="8.5"/>
	<path fill="#575757" d="M87.4,135.4l-1.3-1.7v3.5h-1.3v-6.1h0.9l2,2.7c0.3-0.4,0.6-0.9,0.9-1.3c0.3-0.4,0.6-0.9,0.9-1.3h0.8v6.1H89
		v-3.3c-0.2,0.2-0.3,0.5-0.5,0.7c-0.2,0.2-0.4,0.5-0.5,0.7c-0.1,0-0.2,0-0.3,0S87.5,135.4,87.4,135.4z"/>
	<path fill="#575757" d="M93.4,132.7c0.7,0,1.3,0.2,1.7,0.6c0.4,0.4,0.6,1,0.6,1.7c0,0.7-0.2,1.3-0.7,1.7c-0.5,0.4-1,0.6-1.7,0.6
		c-0.7,0-1.2-0.2-1.7-0.6c-0.4-0.4-0.6-1-0.6-1.7c0-0.7,0.2-1.3,0.6-1.7C92.2,133,92.7,132.7,93.4,132.7z M93.4,136.2
		c0.3,0,0.6-0.1,0.7-0.3c0.2-0.2,0.3-0.5,0.3-0.9c0-0.4-0.1-0.7-0.3-0.9s-0.4-0.3-0.7-0.3c-0.3,0-0.5,0.1-0.7,0.3
		c-0.2,0.2-0.3,0.5-0.3,0.9c0,0.4,0.1,0.7,0.2,0.9C92.9,136.1,93.1,136.2,93.4,136.2z"/>
	<path fill="#575757" d="M100.7,130.9v6.4H100l-0.3-0.4c-0.2,0.2-0.4,0.3-0.6,0.4c-0.3,0.1-0.5,0.2-0.8,0.2c-0.7,0-1.2-0.2-1.5-0.7
		c-0.3-0.4-0.5-1-0.5-1.6c0-0.7,0.2-1.2,0.5-1.7c0.4-0.4,0.9-0.7,1.6-0.7c0.2,0,0.3,0,0.5,0.1c0.2,0,0.4,0.1,0.5,0.2v-2L100.7,130.9
		z M98.6,136.2c0.1,0,0.2,0,0.4-0.1c0.1,0,0.3-0.1,0.4-0.2v-1.9c-0.1-0.1-0.2-0.2-0.4-0.2c-0.1-0.1-0.3-0.1-0.4-0.1
		c-0.4,0-0.6,0.1-0.7,0.4c-0.1,0.3-0.2,0.5-0.2,0.8c0,0.3,0.1,0.6,0.2,0.8C98,136.1,98.2,136.2,98.6,136.2z"/>
	<path fill="#575757" d="M103.6,132.7c0.7,0,1.2,0.2,1.5,0.7c0.3,0.4,0.5,1,0.5,1.6v0.4h-2.8c0.1,0.2,0.2,0.4,0.4,0.6
		c0.2,0.1,0.4,0.2,0.7,0.2c0.2,0,0.4,0,0.6-0.1c0.2,0,0.4-0.1,0.6-0.2l0.4,0.9c-0.2,0.2-0.5,0.3-0.8,0.4c-0.3,0.1-0.6,0.1-0.8,0.1
		c-0.7,0-1.3-0.2-1.8-0.6c-0.4-0.4-0.7-1-0.7-1.7c0-0.7,0.2-1.3,0.6-1.7C102.4,133,103,132.7,103.6,132.7z M103.6,133.8
		c-0.2,0-0.4,0.1-0.5,0.2c-0.1,0.1-0.2,0.3-0.3,0.6h1.6c0-0.2-0.1-0.4-0.3-0.5C104,133.9,103.8,133.8,103.6,133.8z"/>
</g>
</svg>
